<mxfile host="app.diagrams.net" modified="2021-07-11T08:38:45.537Z" agent="5.0 (Windows NT 10.0; Win64; x64) AppleWebKit/537.36 (KHTML, like Gecko) Chrome/91.0.4472.124 Safari/537.36" etag="K_NvGQ3jCpStHxUVanIl" version="14.8.4" type="github">
  <diagram id="252hQuhekfQrJqdJKIK0" name="Page-1">
    <mxGraphModel dx="2031" dy="1143" grid="0" gridSize="10" guides="1" tooltips="1" connect="1" arrows="1" fold="1" page="1" pageScale="1" pageWidth="2339" pageHeight="3300" math="0" shadow="0">
      <root>
        <mxCell id="0" />
        <mxCell id="1" parent="0" />
        <mxCell id="SUnMmAHehi4IOB_Qr8HH-211" value="" style="rounded=0;whiteSpace=wrap;html=1;strokeColor=#000000;strokeWidth=2;" parent="1" vertex="1">
          <mxGeometry x="513" y="3558" width="1103.5" height="539" as="geometry" />
        </mxCell>
        <mxCell id="SUnMmAHehi4IOB_Qr8HH-311" value="" style="ellipse;whiteSpace=wrap;html=1;strokeWidth=2;strokeColor=#3333FF;" parent="1" vertex="1">
          <mxGeometry x="1351" y="3929" width="206" height="140" as="geometry" />
        </mxCell>
        <mxCell id="SUnMmAHehi4IOB_Qr8HH-280" value="" style="rounded=0;whiteSpace=wrap;html=1;strokeColor=#000000;strokeWidth=2;" parent="1" vertex="1">
          <mxGeometry x="785" y="4195" width="692" height="549" as="geometry" />
        </mxCell>
        <mxCell id="SUnMmAHehi4IOB_Qr8HH-4" value="" style="rounded=0;whiteSpace=wrap;html=1;strokeColor=#000000;strokeWidth=2;" parent="1" vertex="1">
          <mxGeometry x="401" y="265" width="1151" height="537" as="geometry" />
        </mxCell>
        <mxCell id="SUnMmAHehi4IOB_Qr8HH-73" style="edgeStyle=orthogonalEdgeStyle;rounded=0;orthogonalLoop=1;jettySize=auto;html=1;exitX=0.5;exitY=0;exitDx=0;exitDy=0;entryX=0;entryY=0.5;entryDx=0;entryDy=0;strokeWidth=2;strokeColor=#FF3333;" parent="1" source="SUnMmAHehi4IOB_Qr8HH-1" target="SUnMmAHehi4IOB_Qr8HH-3" edge="1">
          <mxGeometry relative="1" as="geometry" />
        </mxCell>
        <mxCell id="SUnMmAHehi4IOB_Qr8HH-1" value="&lt;font style=&quot;font-size: 24px&quot;&gt;MUX&lt;/font&gt;" style="shape=trapezoid;perimeter=trapezoidPerimeter;whiteSpace=wrap;html=1;fixedSize=1;rotation=90;fillColor=#d5e8d4;strokeColor=#82b366;" parent="1" vertex="1">
          <mxGeometry x="1112" y="474" width="236" height="88" as="geometry" />
        </mxCell>
        <mxCell id="SUnMmAHehi4IOB_Qr8HH-2" value="&lt;div class=&quot;lake-content&quot;&gt;&lt;i&gt;&lt;font style=&quot;font-size: 24px&quot;&gt;satp&lt;/font&gt;&lt;/i&gt;&lt;/div&gt;" style="text;whiteSpace=wrap;html=1;strokeWidth=2;align=center;" parent="1" vertex="1">
          <mxGeometry x="297" y="405" width="68" height="42" as="geometry" />
        </mxCell>
        <mxCell id="SUnMmAHehi4IOB_Qr8HH-3" value="&lt;div class=&quot;lake-content&quot;&gt;&lt;em&gt;&lt;span class=&quot;ne-text&quot;&gt;&lt;font style=&quot;font-size: 24px&quot;&gt;io_mem_req_bits_addr&lt;/font&gt;&lt;/span&gt;&lt;/em&gt;&lt;/div&gt;" style="text;whiteSpace=wrap;html=1;strokeWidth=2;align=center;" parent="1" vertex="1">
          <mxGeometry x="1607" y="497.5" width="257" height="41" as="geometry" />
        </mxCell>
        <mxCell id="SUnMmAHehi4IOB_Qr8HH-5" value="" style="endArrow=classic;html=1;entryX=0;entryY=0.5;entryDx=0;entryDy=0;strokeWidth=2;strokeColor=#FF3333;" parent="1" source="SUnMmAHehi4IOB_Qr8HH-2" target="SUnMmAHehi4IOB_Qr8HH-136" edge="1">
          <mxGeometry width="50" height="50" relative="1" as="geometry">
            <mxPoint x="293" y="542" as="sourcePoint" />
            <mxPoint x="426" y="426" as="targetPoint" />
          </mxGeometry>
        </mxCell>
        <mxCell id="SUnMmAHehi4IOB_Qr8HH-26" value="" style="shape=table;startSize=0;container=1;collapsible=0;childLayout=tableLayout;strokeWidth=2;" parent="1" vertex="1">
          <mxGeometry x="601" y="385" width="133" height="83" as="geometry" />
        </mxCell>
        <mxCell id="SUnMmAHehi4IOB_Qr8HH-27" value="" style="shape=partialRectangle;collapsible=0;dropTarget=0;pointerEvents=0;fillColor=none;top=0;left=0;bottom=0;right=0;points=[[0,0.5],[1,0.5]];portConstraint=eastwest;" parent="SUnMmAHehi4IOB_Qr8HH-26" vertex="1">
          <mxGeometry width="133" height="10" as="geometry" />
        </mxCell>
        <mxCell id="SUnMmAHehi4IOB_Qr8HH-28" value="" style="shape=partialRectangle;html=1;whiteSpace=wrap;connectable=0;overflow=hidden;fillColor=none;top=0;left=0;bottom=0;right=0;" parent="SUnMmAHehi4IOB_Qr8HH-27" vertex="1">
          <mxGeometry width="133" height="10" as="geometry" />
        </mxCell>
        <mxCell id="SUnMmAHehi4IOB_Qr8HH-29" value="" style="shape=partialRectangle;collapsible=0;dropTarget=0;pointerEvents=0;fillColor=none;top=0;left=0;bottom=0;right=0;points=[[0,0.5],[1,0.5]];portConstraint=eastwest;" parent="SUnMmAHehi4IOB_Qr8HH-26" vertex="1">
          <mxGeometry y="10" width="133" height="11" as="geometry" />
        </mxCell>
        <mxCell id="SUnMmAHehi4IOB_Qr8HH-30" value="" style="shape=partialRectangle;html=1;whiteSpace=wrap;connectable=0;overflow=hidden;fillColor=none;top=0;left=0;bottom=0;right=0;" parent="SUnMmAHehi4IOB_Qr8HH-29" vertex="1">
          <mxGeometry width="133" height="11" as="geometry" />
        </mxCell>
        <mxCell id="SUnMmAHehi4IOB_Qr8HH-31" value="" style="shape=partialRectangle;collapsible=0;dropTarget=0;pointerEvents=0;fillColor=none;top=0;left=0;bottom=0;right=0;points=[[0,0.5],[1,0.5]];portConstraint=eastwest;" parent="SUnMmAHehi4IOB_Qr8HH-26" vertex="1">
          <mxGeometry y="21" width="133" height="10" as="geometry" />
        </mxCell>
        <mxCell id="SUnMmAHehi4IOB_Qr8HH-32" value="" style="shape=partialRectangle;html=1;whiteSpace=wrap;connectable=0;overflow=hidden;fillColor=none;top=0;left=0;bottom=0;right=0;" parent="SUnMmAHehi4IOB_Qr8HH-31" vertex="1">
          <mxGeometry width="133" height="10" as="geometry" />
        </mxCell>
        <mxCell id="SUnMmAHehi4IOB_Qr8HH-33" value="" style="shape=partialRectangle;collapsible=0;dropTarget=0;pointerEvents=0;fillColor=none;top=0;left=0;bottom=0;right=0;points=[[0,0.5],[1,0.5]];portConstraint=eastwest;" parent="SUnMmAHehi4IOB_Qr8HH-26" vertex="1">
          <mxGeometry y="31" width="133" height="11" as="geometry" />
        </mxCell>
        <mxCell id="SUnMmAHehi4IOB_Qr8HH-34" value="" style="shape=partialRectangle;html=1;whiteSpace=wrap;connectable=0;overflow=hidden;fillColor=none;top=0;left=0;bottom=0;right=0;" parent="SUnMmAHehi4IOB_Qr8HH-33" vertex="1">
          <mxGeometry width="133" height="11" as="geometry" />
        </mxCell>
        <mxCell id="SUnMmAHehi4IOB_Qr8HH-35" value="" style="shape=partialRectangle;collapsible=0;dropTarget=0;pointerEvents=0;fillColor=none;top=0;left=0;bottom=0;right=0;points=[[0,0.5],[1,0.5]];portConstraint=eastwest;" parent="SUnMmAHehi4IOB_Qr8HH-26" vertex="1">
          <mxGeometry y="42" width="133" height="10" as="geometry" />
        </mxCell>
        <mxCell id="SUnMmAHehi4IOB_Qr8HH-36" value="" style="shape=partialRectangle;html=1;whiteSpace=wrap;connectable=0;overflow=hidden;fillColor=none;top=0;left=0;bottom=0;right=0;" parent="SUnMmAHehi4IOB_Qr8HH-35" vertex="1">
          <mxGeometry width="133" height="10" as="geometry" />
        </mxCell>
        <mxCell id="SUnMmAHehi4IOB_Qr8HH-37" value="" style="shape=partialRectangle;collapsible=0;dropTarget=0;pointerEvents=0;fillColor=none;top=0;left=0;bottom=0;right=0;points=[[0,0.5],[1,0.5]];portConstraint=eastwest;" parent="SUnMmAHehi4IOB_Qr8HH-26" vertex="1">
          <mxGeometry y="52" width="133" height="10" as="geometry" />
        </mxCell>
        <mxCell id="SUnMmAHehi4IOB_Qr8HH-38" value="" style="shape=partialRectangle;html=1;whiteSpace=wrap;connectable=0;overflow=hidden;fillColor=none;top=0;left=0;bottom=0;right=0;" parent="SUnMmAHehi4IOB_Qr8HH-37" vertex="1">
          <mxGeometry width="133" height="10" as="geometry" />
        </mxCell>
        <mxCell id="SUnMmAHehi4IOB_Qr8HH-39" value="" style="shape=partialRectangle;collapsible=0;dropTarget=0;pointerEvents=0;fillColor=none;top=0;left=0;bottom=0;right=0;points=[[0,0.5],[1,0.5]];portConstraint=eastwest;" parent="SUnMmAHehi4IOB_Qr8HH-26" vertex="1">
          <mxGeometry y="62" width="133" height="11" as="geometry" />
        </mxCell>
        <mxCell id="SUnMmAHehi4IOB_Qr8HH-40" value="" style="shape=partialRectangle;html=1;whiteSpace=wrap;connectable=0;overflow=hidden;fillColor=none;top=0;left=0;bottom=0;right=0;" parent="SUnMmAHehi4IOB_Qr8HH-39" vertex="1">
          <mxGeometry width="133" height="11" as="geometry" />
        </mxCell>
        <mxCell id="SUnMmAHehi4IOB_Qr8HH-41" value="" style="shape=partialRectangle;collapsible=0;dropTarget=0;pointerEvents=0;fillColor=none;top=0;left=0;bottom=0;right=0;points=[[0,0.5],[1,0.5]];portConstraint=eastwest;" parent="SUnMmAHehi4IOB_Qr8HH-26" vertex="1">
          <mxGeometry y="73" width="133" height="10" as="geometry" />
        </mxCell>
        <mxCell id="SUnMmAHehi4IOB_Qr8HH-42" value="" style="shape=partialRectangle;html=1;whiteSpace=wrap;connectable=0;overflow=hidden;fillColor=none;top=0;left=0;bottom=0;right=0;" parent="SUnMmAHehi4IOB_Qr8HH-41" vertex="1">
          <mxGeometry width="133" height="10" as="geometry" />
        </mxCell>
        <mxCell id="SUnMmAHehi4IOB_Qr8HH-43" value="" style="shape=curlyBracket;whiteSpace=wrap;html=1;rounded=1;strokeColor=#000000;strokeWidth=2;" parent="1" vertex="1">
          <mxGeometry x="573" y="384" width="20" height="84" as="geometry" />
        </mxCell>
        <mxCell id="SUnMmAHehi4IOB_Qr8HH-63" value="" style="shape=table;startSize=0;container=1;collapsible=0;childLayout=tableLayout;strokeWidth=2;" parent="1" vertex="1">
          <mxGeometry x="858" y="415" width="110" height="12" as="geometry" />
        </mxCell>
        <mxCell id="SUnMmAHehi4IOB_Qr8HH-64" value="" style="shape=partialRectangle;collapsible=0;dropTarget=0;pointerEvents=0;fillColor=none;top=0;left=0;bottom=0;right=0;points=[[0,0.5],[1,0.5]];portConstraint=eastwest;" parent="SUnMmAHehi4IOB_Qr8HH-63" vertex="1">
          <mxGeometry width="110" height="12" as="geometry" />
        </mxCell>
        <mxCell id="SUnMmAHehi4IOB_Qr8HH-65" value="" style="shape=partialRectangle;html=1;whiteSpace=wrap;connectable=0;overflow=hidden;fillColor=none;top=0;left=0;bottom=0;right=0;" parent="SUnMmAHehi4IOB_Qr8HH-64" vertex="1">
          <mxGeometry width="110" height="12" as="geometry" />
        </mxCell>
        <mxCell id="SUnMmAHehi4IOB_Qr8HH-66" value="" style="endArrow=classic;html=1;exitX=1;exitY=0.5;exitDx=0;exitDy=0;entryX=0;entryY=0.5;entryDx=0;entryDy=0;strokeWidth=2;strokeColor=#FF3333;" parent="1" source="SUnMmAHehi4IOB_Qr8HH-33" target="SUnMmAHehi4IOB_Qr8HH-64" edge="1">
          <mxGeometry width="50" height="50" relative="1" as="geometry">
            <mxPoint x="887" y="522" as="sourcePoint" />
            <mxPoint x="937" y="472" as="targetPoint" />
          </mxGeometry>
        </mxCell>
        <mxCell id="SUnMmAHehi4IOB_Qr8HH-77" value="&lt;font style=&quot;font-size: 24px&quot;&gt;fetch&lt;/font&gt;" style="edgeLabel;html=1;align=center;verticalAlign=middle;resizable=0;points=[];" parent="SUnMmAHehi4IOB_Qr8HH-66" vertex="1" connectable="0">
          <mxGeometry x="-0.2744" y="-3" relative="1" as="geometry">
            <mxPoint x="17" y="-24" as="offset" />
          </mxGeometry>
        </mxCell>
        <mxCell id="SUnMmAHehi4IOB_Qr8HH-69" style="edgeStyle=orthogonalEdgeStyle;rounded=0;orthogonalLoop=1;jettySize=auto;html=1;exitX=1;exitY=0.5;exitDx=0;exitDy=0;entryX=0;entryY=0.5;entryDx=0;entryDy=0;strokeWidth=2;strokeColor=#FF3333;" parent="1" source="SUnMmAHehi4IOB_Qr8HH-67" target="SUnMmAHehi4IOB_Qr8HH-1" edge="1">
          <mxGeometry relative="1" as="geometry" />
        </mxCell>
        <mxCell id="SUnMmAHehi4IOB_Qr8HH-78" value="&lt;font style=&quot;font-size: 24px&quot;&gt;write back A/D？&lt;/font&gt;" style="edgeLabel;html=1;align=center;verticalAlign=middle;resizable=0;points=[];" parent="SUnMmAHehi4IOB_Qr8HH-69" vertex="1" connectable="0">
          <mxGeometry x="0.2967" y="-1" relative="1" as="geometry">
            <mxPoint x="94" y="27" as="offset" />
          </mxGeometry>
        </mxCell>
        <mxCell id="SUnMmAHehi4IOB_Qr8HH-67" value="&lt;font style=&quot;font-size: 24px&quot;&gt;A/D check&lt;/font&gt;" style="ellipse;whiteSpace=wrap;html=1;aspect=fixed;strokeColor=#000000;strokeWidth=2;" parent="1" vertex="1">
          <mxGeometry x="1034" y="304" width="80" height="80" as="geometry" />
        </mxCell>
        <mxCell id="SUnMmAHehi4IOB_Qr8HH-68" value="" style="edgeStyle=elbowEdgeStyle;elbow=vertical;endArrow=classic;html=1;entryX=0;entryY=0.5;entryDx=0;entryDy=0;exitX=0.464;exitY=-0.167;exitDx=0;exitDy=0;exitPerimeter=0;strokeWidth=2;strokeColor=#FF3333;" parent="1" source="SUnMmAHehi4IOB_Qr8HH-64" target="SUnMmAHehi4IOB_Qr8HH-67" edge="1">
          <mxGeometry width="50" height="50" relative="1" as="geometry">
            <mxPoint x="785" y="421" as="sourcePoint" />
            <mxPoint x="948" y="362" as="targetPoint" />
            <Array as="points">
              <mxPoint x="907" y="344" />
            </Array>
          </mxGeometry>
        </mxCell>
        <mxCell id="SUnMmAHehi4IOB_Qr8HH-70" style="edgeStyle=orthogonalEdgeStyle;rounded=0;orthogonalLoop=1;jettySize=auto;html=1;exitX=1;exitY=0.5;exitDx=0;exitDy=0;entryX=0.093;entryY=1.011;entryDx=0;entryDy=0;entryPerimeter=0;strokeWidth=2;" parent="1" source="SUnMmAHehi4IOB_Qr8HH-64" target="SUnMmAHehi4IOB_Qr8HH-1" edge="1">
          <mxGeometry relative="1" as="geometry" />
        </mxCell>
        <mxCell id="SUnMmAHehi4IOB_Qr8HH-82" value="&lt;font style=&quot;font-size: 24px&quot;&gt;PTE address&lt;/font&gt;" style="edgeLabel;html=1;align=center;verticalAlign=middle;resizable=0;points=[];" parent="SUnMmAHehi4IOB_Qr8HH-70" vertex="1" connectable="0">
          <mxGeometry x="-0.275" y="3" relative="1" as="geometry">
            <mxPoint x="24" y="19" as="offset" />
          </mxGeometry>
        </mxCell>
        <mxCell id="SUnMmAHehi4IOB_Qr8HH-72" style="edgeStyle=orthogonalEdgeStyle;rounded=0;orthogonalLoop=1;jettySize=auto;html=1;entryX=0.958;entryY=1.023;entryDx=0;entryDy=0;entryPerimeter=0;strokeWidth=2;" parent="1" source="SUnMmAHehi4IOB_Qr8HH-71" target="SUnMmAHehi4IOB_Qr8HH-1" edge="1">
          <mxGeometry relative="1" as="geometry" />
        </mxCell>
        <mxCell id="SUnMmAHehi4IOB_Qr8HH-71" value="&lt;font style=&quot;font-size: 24px&quot;&gt;raddr&lt;br&gt;(reg)&lt;/font&gt;" style="rounded=0;whiteSpace=wrap;html=1;strokeColor=#000000;strokeWidth=2;" parent="1" vertex="1">
          <mxGeometry x="883" y="521" width="60" height="210" as="geometry" />
        </mxCell>
        <mxCell id="SUnMmAHehi4IOB_Qr8HH-75" value="&lt;font style=&quot;font-size: 24px&quot;&gt;TLB&lt;/font&gt;" style="text;html=1;strokeColor=none;fillColor=none;align=center;verticalAlign=middle;whiteSpace=wrap;rounded=0;" parent="1" vertex="1">
          <mxGeometry x="647.5" y="477.5" width="40" height="20" as="geometry" />
        </mxCell>
        <mxCell id="SUnMmAHehi4IOB_Qr8HH-76" value="&lt;span style=&quot;font-size: 24px&quot;&gt;hit entry&lt;/span&gt;" style="text;html=1;strokeColor=none;fillColor=none;align=center;verticalAlign=middle;whiteSpace=wrap;rounded=0;" parent="1" vertex="1">
          <mxGeometry x="862.5" y="432" width="101" height="26" as="geometry" />
        </mxCell>
        <mxCell id="SUnMmAHehi4IOB_Qr8HH-81" style="edgeStyle=orthogonalEdgeStyle;rounded=0;orthogonalLoop=1;jettySize=auto;html=1;entryX=0;entryY=0.5;entryDx=0;entryDy=0;strokeWidth=2;" parent="1" source="SUnMmAHehi4IOB_Qr8HH-80" target="SUnMmAHehi4IOB_Qr8HH-71" edge="1">
          <mxGeometry relative="1" as="geometry" />
        </mxCell>
        <mxCell id="SUnMmAHehi4IOB_Qr8HH-80" value="&lt;font style=&quot;font-size: 20px&quot;&gt;PTW address logic&lt;/font&gt;" style="ellipse;shape=cloud;whiteSpace=wrap;html=1;strokeColor=#000000;strokeWidth=2;" parent="1" vertex="1">
          <mxGeometry x="473" y="533" width="270" height="186" as="geometry" />
        </mxCell>
        <mxCell id="SUnMmAHehi4IOB_Qr8HH-83" value="" style="rounded=0;whiteSpace=wrap;html=1;strokeColor=#000000;strokeWidth=2;" parent="1" vertex="1">
          <mxGeometry x="365" y="997" width="1201" height="537" as="geometry" />
        </mxCell>
        <mxCell id="SUnMmAHehi4IOB_Qr8HH-84" style="edgeStyle=orthogonalEdgeStyle;rounded=0;orthogonalLoop=1;jettySize=auto;html=1;exitX=0.5;exitY=0;exitDx=0;exitDy=0;entryX=0;entryY=0.5;entryDx=0;entryDy=0;strokeWidth=2;strokeColor=#FF3333;" parent="1" source="SUnMmAHehi4IOB_Qr8HH-85" target="SUnMmAHehi4IOB_Qr8HH-87" edge="1">
          <mxGeometry relative="1" as="geometry" />
        </mxCell>
        <mxCell id="SUnMmAHehi4IOB_Qr8HH-85" value="&lt;font style=&quot;font-size: 24px&quot;&gt;MUX&lt;/font&gt;" style="shape=trapezoid;perimeter=trapezoidPerimeter;whiteSpace=wrap;html=1;fixedSize=1;rotation=90;fillColor=#d5e8d4;strokeColor=#82b366;" parent="1" vertex="1">
          <mxGeometry x="1126" y="1206" width="236" height="88" as="geometry" />
        </mxCell>
        <mxCell id="SUnMmAHehi4IOB_Qr8HH-87" value="&lt;div class=&quot;lake-content&quot;&gt;&lt;em&gt;&lt;span class=&quot;ne-text&quot;&gt;&lt;font style=&quot;font-size: 24px&quot;&gt;io_mem_req_bits_addr&lt;/font&gt;&lt;/span&gt;&lt;/em&gt;&lt;/div&gt;" style="text;whiteSpace=wrap;html=1;strokeWidth=2;align=center;" parent="1" vertex="1">
          <mxGeometry x="1621" y="1229.5" width="257" height="41" as="geometry" />
        </mxCell>
        <mxCell id="SUnMmAHehi4IOB_Qr8HH-88" value="" style="endArrow=classic;html=1;entryX=0.1;entryY=0.5;entryDx=0;entryDy=0;entryPerimeter=0;strokeWidth=2;strokeColor=#FF3333;exitX=1;exitY=0.5;exitDx=0;exitDy=0;" parent="1" source="SUnMmAHehi4IOB_Qr8HH-125" target="SUnMmAHehi4IOB_Qr8HH-107" edge="1">
          <mxGeometry width="50" height="50" relative="1" as="geometry">
            <mxPoint x="519" y="1170.6724137931033" as="sourcePoint" />
            <mxPoint x="559" y="1143" as="targetPoint" />
          </mxGeometry>
        </mxCell>
        <mxCell id="SUnMmAHehi4IOB_Qr8HH-89" value="&lt;font style=&quot;font-size: 24px&quot;&gt;hit check&lt;/font&gt;" style="edgeLabel;html=1;align=center;verticalAlign=middle;resizable=0;points=[];" parent="SUnMmAHehi4IOB_Qr8HH-88" vertex="1" connectable="0">
          <mxGeometry x="0.2" y="2" relative="1" as="geometry">
            <mxPoint x="-8" y="-18" as="offset" />
          </mxGeometry>
        </mxCell>
        <mxCell id="SUnMmAHehi4IOB_Qr8HH-90" value="" style="shape=table;startSize=0;container=1;collapsible=0;childLayout=tableLayout;strokeWidth=2;" parent="1" vertex="1">
          <mxGeometry x="615" y="1117" width="133" height="83" as="geometry" />
        </mxCell>
        <mxCell id="SUnMmAHehi4IOB_Qr8HH-91" value="" style="shape=partialRectangle;collapsible=0;dropTarget=0;pointerEvents=0;fillColor=none;top=0;left=0;bottom=0;right=0;points=[[0,0.5],[1,0.5]];portConstraint=eastwest;" parent="SUnMmAHehi4IOB_Qr8HH-90" vertex="1">
          <mxGeometry width="133" height="10" as="geometry" />
        </mxCell>
        <mxCell id="SUnMmAHehi4IOB_Qr8HH-92" value="" style="shape=partialRectangle;html=1;whiteSpace=wrap;connectable=0;overflow=hidden;fillColor=none;top=0;left=0;bottom=0;right=0;" parent="SUnMmAHehi4IOB_Qr8HH-91" vertex="1">
          <mxGeometry width="133" height="10" as="geometry" />
        </mxCell>
        <mxCell id="SUnMmAHehi4IOB_Qr8HH-93" value="" style="shape=partialRectangle;collapsible=0;dropTarget=0;pointerEvents=0;fillColor=none;top=0;left=0;bottom=0;right=0;points=[[0,0.5],[1,0.5]];portConstraint=eastwest;" parent="SUnMmAHehi4IOB_Qr8HH-90" vertex="1">
          <mxGeometry y="10" width="133" height="11" as="geometry" />
        </mxCell>
        <mxCell id="SUnMmAHehi4IOB_Qr8HH-94" value="" style="shape=partialRectangle;html=1;whiteSpace=wrap;connectable=0;overflow=hidden;fillColor=none;top=0;left=0;bottom=0;right=0;" parent="SUnMmAHehi4IOB_Qr8HH-93" vertex="1">
          <mxGeometry width="133" height="11" as="geometry" />
        </mxCell>
        <mxCell id="SUnMmAHehi4IOB_Qr8HH-95" value="" style="shape=partialRectangle;collapsible=0;dropTarget=0;pointerEvents=0;fillColor=none;top=0;left=0;bottom=0;right=0;points=[[0,0.5],[1,0.5]];portConstraint=eastwest;" parent="SUnMmAHehi4IOB_Qr8HH-90" vertex="1">
          <mxGeometry y="21" width="133" height="10" as="geometry" />
        </mxCell>
        <mxCell id="SUnMmAHehi4IOB_Qr8HH-96" value="" style="shape=partialRectangle;html=1;whiteSpace=wrap;connectable=0;overflow=hidden;fillColor=none;top=0;left=0;bottom=0;right=0;" parent="SUnMmAHehi4IOB_Qr8HH-95" vertex="1">
          <mxGeometry width="133" height="10" as="geometry" />
        </mxCell>
        <mxCell id="SUnMmAHehi4IOB_Qr8HH-97" value="" style="shape=partialRectangle;collapsible=0;dropTarget=0;pointerEvents=0;fillColor=none;top=0;left=0;bottom=0;right=0;points=[[0,0.5],[1,0.5]];portConstraint=eastwest;" parent="SUnMmAHehi4IOB_Qr8HH-90" vertex="1">
          <mxGeometry y="31" width="133" height="11" as="geometry" />
        </mxCell>
        <mxCell id="SUnMmAHehi4IOB_Qr8HH-98" value="" style="shape=partialRectangle;html=1;whiteSpace=wrap;connectable=0;overflow=hidden;fillColor=none;top=0;left=0;bottom=0;right=0;" parent="SUnMmAHehi4IOB_Qr8HH-97" vertex="1">
          <mxGeometry width="133" height="11" as="geometry" />
        </mxCell>
        <mxCell id="SUnMmAHehi4IOB_Qr8HH-99" value="" style="shape=partialRectangle;collapsible=0;dropTarget=0;pointerEvents=0;fillColor=none;top=0;left=0;bottom=0;right=0;points=[[0,0.5],[1,0.5]];portConstraint=eastwest;" parent="SUnMmAHehi4IOB_Qr8HH-90" vertex="1">
          <mxGeometry y="42" width="133" height="10" as="geometry" />
        </mxCell>
        <mxCell id="SUnMmAHehi4IOB_Qr8HH-100" value="" style="shape=partialRectangle;html=1;whiteSpace=wrap;connectable=0;overflow=hidden;fillColor=none;top=0;left=0;bottom=0;right=0;" parent="SUnMmAHehi4IOB_Qr8HH-99" vertex="1">
          <mxGeometry width="133" height="10" as="geometry" />
        </mxCell>
        <mxCell id="SUnMmAHehi4IOB_Qr8HH-101" value="" style="shape=partialRectangle;collapsible=0;dropTarget=0;pointerEvents=0;fillColor=none;top=0;left=0;bottom=0;right=0;points=[[0,0.5],[1,0.5]];portConstraint=eastwest;" parent="SUnMmAHehi4IOB_Qr8HH-90" vertex="1">
          <mxGeometry y="52" width="133" height="10" as="geometry" />
        </mxCell>
        <mxCell id="SUnMmAHehi4IOB_Qr8HH-102" value="" style="shape=partialRectangle;html=1;whiteSpace=wrap;connectable=0;overflow=hidden;fillColor=none;top=0;left=0;bottom=0;right=0;" parent="SUnMmAHehi4IOB_Qr8HH-101" vertex="1">
          <mxGeometry width="133" height="10" as="geometry" />
        </mxCell>
        <mxCell id="SUnMmAHehi4IOB_Qr8HH-103" value="" style="shape=partialRectangle;collapsible=0;dropTarget=0;pointerEvents=0;fillColor=none;top=0;left=0;bottom=0;right=0;points=[[0,0.5],[1,0.5]];portConstraint=eastwest;" parent="SUnMmAHehi4IOB_Qr8HH-90" vertex="1">
          <mxGeometry y="62" width="133" height="11" as="geometry" />
        </mxCell>
        <mxCell id="SUnMmAHehi4IOB_Qr8HH-104" value="" style="shape=partialRectangle;html=1;whiteSpace=wrap;connectable=0;overflow=hidden;fillColor=none;top=0;left=0;bottom=0;right=0;" parent="SUnMmAHehi4IOB_Qr8HH-103" vertex="1">
          <mxGeometry width="133" height="11" as="geometry" />
        </mxCell>
        <mxCell id="SUnMmAHehi4IOB_Qr8HH-105" value="" style="shape=partialRectangle;collapsible=0;dropTarget=0;pointerEvents=0;fillColor=none;top=0;left=0;bottom=0;right=0;points=[[0,0.5],[1,0.5]];portConstraint=eastwest;" parent="SUnMmAHehi4IOB_Qr8HH-90" vertex="1">
          <mxGeometry y="73" width="133" height="10" as="geometry" />
        </mxCell>
        <mxCell id="SUnMmAHehi4IOB_Qr8HH-106" value="" style="shape=partialRectangle;html=1;whiteSpace=wrap;connectable=0;overflow=hidden;fillColor=none;top=0;left=0;bottom=0;right=0;" parent="SUnMmAHehi4IOB_Qr8HH-105" vertex="1">
          <mxGeometry width="133" height="10" as="geometry" />
        </mxCell>
        <mxCell id="SUnMmAHehi4IOB_Qr8HH-107" value="" style="shape=curlyBracket;whiteSpace=wrap;html=1;rounded=1;strokeColor=#000000;strokeWidth=2;" parent="1" vertex="1">
          <mxGeometry x="587" y="1116" width="20" height="84" as="geometry" />
        </mxCell>
        <mxCell id="SUnMmAHehi4IOB_Qr8HH-108" value="" style="shape=table;startSize=0;container=1;collapsible=0;childLayout=tableLayout;strokeWidth=2;" parent="1" vertex="1">
          <mxGeometry x="872" y="1147" width="110" height="12" as="geometry" />
        </mxCell>
        <mxCell id="SUnMmAHehi4IOB_Qr8HH-109" value="" style="shape=partialRectangle;collapsible=0;dropTarget=0;pointerEvents=0;fillColor=none;top=0;left=0;bottom=0;right=0;points=[[0,0.5],[1,0.5]];portConstraint=eastwest;" parent="SUnMmAHehi4IOB_Qr8HH-108" vertex="1">
          <mxGeometry width="110" height="12" as="geometry" />
        </mxCell>
        <mxCell id="SUnMmAHehi4IOB_Qr8HH-110" value="" style="shape=partialRectangle;html=1;whiteSpace=wrap;connectable=0;overflow=hidden;fillColor=none;top=0;left=0;bottom=0;right=0;" parent="SUnMmAHehi4IOB_Qr8HH-109" vertex="1">
          <mxGeometry width="110" height="12" as="geometry" />
        </mxCell>
        <mxCell id="SUnMmAHehi4IOB_Qr8HH-111" value="" style="endArrow=classic;html=1;exitX=1;exitY=0.5;exitDx=0;exitDy=0;entryX=0;entryY=0.5;entryDx=0;entryDy=0;strokeWidth=2;strokeColor=#FF3333;" parent="1" source="SUnMmAHehi4IOB_Qr8HH-97" target="SUnMmAHehi4IOB_Qr8HH-109" edge="1">
          <mxGeometry width="50" height="50" relative="1" as="geometry">
            <mxPoint x="901" y="1254" as="sourcePoint" />
            <mxPoint x="951" y="1204" as="targetPoint" />
          </mxGeometry>
        </mxCell>
        <mxCell id="SUnMmAHehi4IOB_Qr8HH-112" value="&lt;font style=&quot;font-size: 24px&quot;&gt;fetch&lt;/font&gt;" style="edgeLabel;html=1;align=center;verticalAlign=middle;resizable=0;points=[];" parent="SUnMmAHehi4IOB_Qr8HH-111" vertex="1" connectable="0">
          <mxGeometry x="-0.2744" y="-3" relative="1" as="geometry">
            <mxPoint x="17" y="-24" as="offset" />
          </mxGeometry>
        </mxCell>
        <mxCell id="SUnMmAHehi4IOB_Qr8HH-113" style="edgeStyle=orthogonalEdgeStyle;rounded=0;orthogonalLoop=1;jettySize=auto;html=1;exitX=1;exitY=0.5;exitDx=0;exitDy=0;entryX=0;entryY=0.5;entryDx=0;entryDy=0;strokeWidth=2;strokeColor=#FF3333;" parent="1" source="SUnMmAHehi4IOB_Qr8HH-115" target="SUnMmAHehi4IOB_Qr8HH-85" edge="1">
          <mxGeometry relative="1" as="geometry" />
        </mxCell>
        <mxCell id="SUnMmAHehi4IOB_Qr8HH-114" value="&lt;font style=&quot;font-size: 24px&quot;&gt;write back A/D？&lt;/font&gt;" style="edgeLabel;html=1;align=center;verticalAlign=middle;resizable=0;points=[];" parent="SUnMmAHehi4IOB_Qr8HH-113" vertex="1" connectable="0">
          <mxGeometry x="0.2967" y="-1" relative="1" as="geometry">
            <mxPoint x="94" y="27" as="offset" />
          </mxGeometry>
        </mxCell>
        <mxCell id="SUnMmAHehi4IOB_Qr8HH-115" value="&lt;font style=&quot;font-size: 24px&quot;&gt;A/D check&lt;/font&gt;" style="ellipse;whiteSpace=wrap;html=1;aspect=fixed;strokeColor=#000000;strokeWidth=2;" parent="1" vertex="1">
          <mxGeometry x="1048" y="1036" width="80" height="80" as="geometry" />
        </mxCell>
        <mxCell id="SUnMmAHehi4IOB_Qr8HH-116" value="" style="edgeStyle=elbowEdgeStyle;elbow=vertical;endArrow=classic;html=1;entryX=0;entryY=0.5;entryDx=0;entryDy=0;exitX=0.464;exitY=-0.167;exitDx=0;exitDy=0;exitPerimeter=0;strokeWidth=2;strokeColor=#FF3333;" parent="1" source="SUnMmAHehi4IOB_Qr8HH-109" target="SUnMmAHehi4IOB_Qr8HH-115" edge="1">
          <mxGeometry width="50" height="50" relative="1" as="geometry">
            <mxPoint x="799" y="1153" as="sourcePoint" />
            <mxPoint x="962" y="1094" as="targetPoint" />
            <Array as="points">
              <mxPoint x="921" y="1076" />
            </Array>
          </mxGeometry>
        </mxCell>
        <mxCell id="SUnMmAHehi4IOB_Qr8HH-117" style="edgeStyle=orthogonalEdgeStyle;rounded=0;orthogonalLoop=1;jettySize=auto;html=1;exitX=1;exitY=0.5;exitDx=0;exitDy=0;entryX=0.093;entryY=1.011;entryDx=0;entryDy=0;entryPerimeter=0;strokeWidth=2;" parent="1" source="SUnMmAHehi4IOB_Qr8HH-109" target="SUnMmAHehi4IOB_Qr8HH-85" edge="1">
          <mxGeometry relative="1" as="geometry" />
        </mxCell>
        <mxCell id="SUnMmAHehi4IOB_Qr8HH-118" value="&lt;font style=&quot;font-size: 24px&quot;&gt;PTE address&lt;/font&gt;" style="edgeLabel;html=1;align=center;verticalAlign=middle;resizable=0;points=[];" parent="SUnMmAHehi4IOB_Qr8HH-117" vertex="1" connectable="0">
          <mxGeometry x="-0.275" y="3" relative="1" as="geometry">
            <mxPoint x="24" y="19" as="offset" />
          </mxGeometry>
        </mxCell>
        <mxCell id="SUnMmAHehi4IOB_Qr8HH-119" style="edgeStyle=orthogonalEdgeStyle;rounded=0;orthogonalLoop=1;jettySize=auto;html=1;entryX=0.958;entryY=1.023;entryDx=0;entryDy=0;entryPerimeter=0;strokeWidth=2;" parent="1" source="SUnMmAHehi4IOB_Qr8HH-120" target="SUnMmAHehi4IOB_Qr8HH-85" edge="1">
          <mxGeometry relative="1" as="geometry" />
        </mxCell>
        <mxCell id="SUnMmAHehi4IOB_Qr8HH-120" value="&lt;font style=&quot;font-size: 24px&quot;&gt;raddr&lt;br&gt;(reg)&lt;/font&gt;" style="rounded=0;whiteSpace=wrap;html=1;strokeColor=#000000;strokeWidth=2;" parent="1" vertex="1">
          <mxGeometry x="897" y="1253" width="60" height="210" as="geometry" />
        </mxCell>
        <mxCell id="SUnMmAHehi4IOB_Qr8HH-121" value="&lt;font style=&quot;font-size: 24px&quot;&gt;TLB&lt;/font&gt;" style="text;html=1;strokeColor=none;fillColor=none;align=center;verticalAlign=middle;whiteSpace=wrap;rounded=0;" parent="1" vertex="1">
          <mxGeometry x="657" y="1077" width="40" height="20" as="geometry" />
        </mxCell>
        <mxCell id="SUnMmAHehi4IOB_Qr8HH-122" value="&lt;span style=&quot;font-size: 24px&quot;&gt;hit entry&lt;/span&gt;" style="text;html=1;strokeColor=none;fillColor=none;align=center;verticalAlign=middle;whiteSpace=wrap;rounded=0;" parent="1" vertex="1">
          <mxGeometry x="876.5" y="1164" width="101" height="26" as="geometry" />
        </mxCell>
        <mxCell id="SUnMmAHehi4IOB_Qr8HH-123" style="edgeStyle=orthogonalEdgeStyle;rounded=0;orthogonalLoop=1;jettySize=auto;html=1;entryX=0;entryY=0.5;entryDx=0;entryDy=0;strokeWidth=2;" parent="1" source="SUnMmAHehi4IOB_Qr8HH-124" target="SUnMmAHehi4IOB_Qr8HH-120" edge="1">
          <mxGeometry relative="1" as="geometry" />
        </mxCell>
        <mxCell id="SUnMmAHehi4IOB_Qr8HH-124" value="&lt;font style=&quot;font-size: 20px&quot;&gt;PTW address logic&lt;/font&gt;" style="ellipse;shape=cloud;whiteSpace=wrap;html=1;strokeColor=#000000;strokeWidth=2;" parent="1" vertex="1">
          <mxGeometry x="520" y="1263" width="270" height="186" as="geometry" />
        </mxCell>
        <mxCell id="SUnMmAHehi4IOB_Qr8HH-125" value="&lt;div class=&quot;lake-content&quot; style=&quot;font-size: 20px&quot;&gt;addr&lt;/div&gt;&lt;div class=&quot;lake-content&quot; style=&quot;font-size: 20px&quot;&gt;(reg)&lt;/div&gt;" style="rounded=0;whiteSpace=wrap;html=1;strokeColor=#000000;strokeWidth=2;" parent="1" vertex="1">
          <mxGeometry x="398" y="1039.5" width="64" height="238" as="geometry" />
        </mxCell>
        <mxCell id="SUnMmAHehi4IOB_Qr8HH-137" style="edgeStyle=orthogonalEdgeStyle;rounded=0;orthogonalLoop=1;jettySize=auto;html=1;entryX=0.5;entryY=1;entryDx=0;entryDy=0;strokeWidth=2;strokeColor=#330000;" parent="1" source="SUnMmAHehi4IOB_Qr8HH-126" target="SUnMmAHehi4IOB_Qr8HH-136" edge="1">
          <mxGeometry relative="1" as="geometry" />
        </mxCell>
        <mxCell id="SUnMmAHehi4IOB_Qr8HH-126" value="&lt;font style=&quot;font-size: 24px&quot;&gt;...&lt;/font&gt;" style="ellipse;shape=cloud;whiteSpace=wrap;html=1;strokeColor=#000000;strokeWidth=2;" parent="1" vertex="1">
          <mxGeometry x="422.5" y="494" width="117" height="73" as="geometry" />
        </mxCell>
        <mxCell id="SUnMmAHehi4IOB_Qr8HH-129" style="edgeStyle=orthogonalEdgeStyle;rounded=0;orthogonalLoop=1;jettySize=auto;html=1;strokeWidth=2;strokeColor=#330000;" parent="1" source="SUnMmAHehi4IOB_Qr8HH-130" edge="1">
          <mxGeometry relative="1" as="geometry">
            <mxPoint x="510" y="1158" as="targetPoint" />
          </mxGeometry>
        </mxCell>
        <mxCell id="SUnMmAHehi4IOB_Qr8HH-130" value="&lt;font style=&quot;font-size: 24px&quot;&gt;...&lt;/font&gt;" style="ellipse;shape=cloud;whiteSpace=wrap;html=1;strokeColor=#000000;strokeWidth=2;" parent="1" vertex="1">
          <mxGeometry x="371.5" y="1287" width="117" height="73" as="geometry" />
        </mxCell>
        <mxCell id="SUnMmAHehi4IOB_Qr8HH-135" style="edgeStyle=orthogonalEdgeStyle;rounded=0;orthogonalLoop=1;jettySize=auto;html=1;entryX=0.1;entryY=0.5;entryDx=0;entryDy=0;entryPerimeter=0;strokeWidth=2;strokeColor=#FF3333;exitX=1;exitY=0.5;exitDx=0;exitDy=0;" parent="1" source="SUnMmAHehi4IOB_Qr8HH-136" target="SUnMmAHehi4IOB_Qr8HH-43" edge="1">
          <mxGeometry relative="1" as="geometry">
            <mxPoint x="536" y="426" as="sourcePoint" />
          </mxGeometry>
        </mxCell>
        <mxCell id="SUnMmAHehi4IOB_Qr8HH-136" value="&lt;font style=&quot;font-size: 24px&quot;&gt;hit check&lt;/font&gt;" style="ellipse;whiteSpace=wrap;html=1;aspect=fixed;strokeColor=#000000;strokeWidth=2;" parent="1" vertex="1">
          <mxGeometry x="441" y="386.5" width="80" height="80" as="geometry" />
        </mxCell>
        <mxCell id="SUnMmAHehi4IOB_Qr8HH-141" value="" style="edgeStyle=elbowEdgeStyle;elbow=horizontal;endArrow=classic;html=1;strokeColor=#330000;strokeWidth=2;exitX=0.444;exitY=0;exitDx=0;exitDy=0;exitPerimeter=0;entryX=0.5;entryY=0;entryDx=0;entryDy=0;" parent="1" source="SUnMmAHehi4IOB_Qr8HH-27" target="SUnMmAHehi4IOB_Qr8HH-136" edge="1">
          <mxGeometry width="50" height="50" relative="1" as="geometry">
            <mxPoint x="640" y="358" as="sourcePoint" />
            <mxPoint x="690" y="308" as="targetPoint" />
            <Array as="points">
              <mxPoint x="553" y="338" />
            </Array>
          </mxGeometry>
        </mxCell>
        <mxCell id="SUnMmAHehi4IOB_Qr8HH-142" value="" style="rounded=0;whiteSpace=wrap;html=1;strokeColor=#000000;strokeWidth=2;" parent="1" vertex="1">
          <mxGeometry x="285" y="1638" width="1283" height="540" as="geometry" />
        </mxCell>
        <mxCell id="SUnMmAHehi4IOB_Qr8HH-143" style="edgeStyle=orthogonalEdgeStyle;rounded=0;orthogonalLoop=1;jettySize=auto;html=1;exitX=0.5;exitY=0;exitDx=0;exitDy=0;entryX=0;entryY=0.5;entryDx=0;entryDy=0;strokeWidth=2;strokeColor=#FF3333;" parent="1" source="SUnMmAHehi4IOB_Qr8HH-144" target="SUnMmAHehi4IOB_Qr8HH-146" edge="1">
          <mxGeometry relative="1" as="geometry" />
        </mxCell>
        <mxCell id="SUnMmAHehi4IOB_Qr8HH-144" value="&lt;font style=&quot;font-size: 24px&quot;&gt;MUX&lt;/font&gt;" style="shape=trapezoid;perimeter=trapezoidPerimeter;whiteSpace=wrap;html=1;fixedSize=1;rotation=90;fillColor=#d5e8d4;strokeColor=#82b366;" parent="1" vertex="1">
          <mxGeometry x="1128" y="1850" width="236" height="88" as="geometry" />
        </mxCell>
        <mxCell id="SUnMmAHehi4IOB_Qr8HH-146" value="&lt;div class=&quot;lake-content&quot;&gt;&lt;em&gt;&lt;span class=&quot;ne-text&quot;&gt;&lt;font style=&quot;font-size: 24px&quot;&gt;io_mem_req_bits_addr&lt;/font&gt;&lt;/span&gt;&lt;/em&gt;&lt;/div&gt;" style="text;whiteSpace=wrap;html=1;strokeWidth=2;align=center;" parent="1" vertex="1">
          <mxGeometry x="1623" y="1873.5" width="257" height="41" as="geometry" />
        </mxCell>
        <mxCell id="SUnMmAHehi4IOB_Qr8HH-147" value="" style="endArrow=classic;html=1;entryX=0;entryY=0.5;entryDx=0;entryDy=0;strokeWidth=2;strokeColor=#FF3333;exitX=1;exitY=0.5;exitDx=0;exitDy=0;" parent="1" source="SUnMmAHehi4IOB_Qr8HH-188" target="SUnMmAHehi4IOB_Qr8HH-186" edge="1">
          <mxGeometry width="50" height="50" relative="1" as="geometry">
            <mxPoint x="381" y="1802.1545454545453" as="sourcePoint" />
            <mxPoint x="442" y="1802" as="targetPoint" />
          </mxGeometry>
        </mxCell>
        <mxCell id="SUnMmAHehi4IOB_Qr8HH-148" value="" style="shape=table;startSize=0;container=1;collapsible=0;childLayout=tableLayout;strokeWidth=2;" parent="1" vertex="1">
          <mxGeometry x="617" y="1761" width="133" height="83" as="geometry" />
        </mxCell>
        <mxCell id="SUnMmAHehi4IOB_Qr8HH-149" value="" style="shape=partialRectangle;collapsible=0;dropTarget=0;pointerEvents=0;fillColor=none;top=0;left=0;bottom=0;right=0;points=[[0,0.5],[1,0.5]];portConstraint=eastwest;" parent="SUnMmAHehi4IOB_Qr8HH-148" vertex="1">
          <mxGeometry width="133" height="10" as="geometry" />
        </mxCell>
        <mxCell id="SUnMmAHehi4IOB_Qr8HH-150" value="" style="shape=partialRectangle;html=1;whiteSpace=wrap;connectable=0;overflow=hidden;fillColor=none;top=0;left=0;bottom=0;right=0;" parent="SUnMmAHehi4IOB_Qr8HH-149" vertex="1">
          <mxGeometry width="133" height="10" as="geometry" />
        </mxCell>
        <mxCell id="SUnMmAHehi4IOB_Qr8HH-151" value="" style="shape=partialRectangle;collapsible=0;dropTarget=0;pointerEvents=0;fillColor=none;top=0;left=0;bottom=0;right=0;points=[[0,0.5],[1,0.5]];portConstraint=eastwest;" parent="SUnMmAHehi4IOB_Qr8HH-148" vertex="1">
          <mxGeometry y="10" width="133" height="11" as="geometry" />
        </mxCell>
        <mxCell id="SUnMmAHehi4IOB_Qr8HH-152" value="" style="shape=partialRectangle;html=1;whiteSpace=wrap;connectable=0;overflow=hidden;fillColor=none;top=0;left=0;bottom=0;right=0;" parent="SUnMmAHehi4IOB_Qr8HH-151" vertex="1">
          <mxGeometry width="133" height="11" as="geometry" />
        </mxCell>
        <mxCell id="SUnMmAHehi4IOB_Qr8HH-153" value="" style="shape=partialRectangle;collapsible=0;dropTarget=0;pointerEvents=0;fillColor=none;top=0;left=0;bottom=0;right=0;points=[[0,0.5],[1,0.5]];portConstraint=eastwest;" parent="SUnMmAHehi4IOB_Qr8HH-148" vertex="1">
          <mxGeometry y="21" width="133" height="10" as="geometry" />
        </mxCell>
        <mxCell id="SUnMmAHehi4IOB_Qr8HH-154" value="" style="shape=partialRectangle;html=1;whiteSpace=wrap;connectable=0;overflow=hidden;fillColor=none;top=0;left=0;bottom=0;right=0;" parent="SUnMmAHehi4IOB_Qr8HH-153" vertex="1">
          <mxGeometry width="133" height="10" as="geometry" />
        </mxCell>
        <mxCell id="SUnMmAHehi4IOB_Qr8HH-155" value="" style="shape=partialRectangle;collapsible=0;dropTarget=0;pointerEvents=0;fillColor=none;top=0;left=0;bottom=0;right=0;points=[[0,0.5],[1,0.5]];portConstraint=eastwest;" parent="SUnMmAHehi4IOB_Qr8HH-148" vertex="1">
          <mxGeometry y="31" width="133" height="11" as="geometry" />
        </mxCell>
        <mxCell id="SUnMmAHehi4IOB_Qr8HH-156" value="" style="shape=partialRectangle;html=1;whiteSpace=wrap;connectable=0;overflow=hidden;fillColor=none;top=0;left=0;bottom=0;right=0;" parent="SUnMmAHehi4IOB_Qr8HH-155" vertex="1">
          <mxGeometry width="133" height="11" as="geometry" />
        </mxCell>
        <mxCell id="SUnMmAHehi4IOB_Qr8HH-157" value="" style="shape=partialRectangle;collapsible=0;dropTarget=0;pointerEvents=0;fillColor=none;top=0;left=0;bottom=0;right=0;points=[[0,0.5],[1,0.5]];portConstraint=eastwest;" parent="SUnMmAHehi4IOB_Qr8HH-148" vertex="1">
          <mxGeometry y="42" width="133" height="10" as="geometry" />
        </mxCell>
        <mxCell id="SUnMmAHehi4IOB_Qr8HH-158" value="" style="shape=partialRectangle;html=1;whiteSpace=wrap;connectable=0;overflow=hidden;fillColor=none;top=0;left=0;bottom=0;right=0;" parent="SUnMmAHehi4IOB_Qr8HH-157" vertex="1">
          <mxGeometry width="133" height="10" as="geometry" />
        </mxCell>
        <mxCell id="SUnMmAHehi4IOB_Qr8HH-159" value="" style="shape=partialRectangle;collapsible=0;dropTarget=0;pointerEvents=0;fillColor=none;top=0;left=0;bottom=0;right=0;points=[[0,0.5],[1,0.5]];portConstraint=eastwest;" parent="SUnMmAHehi4IOB_Qr8HH-148" vertex="1">
          <mxGeometry y="52" width="133" height="10" as="geometry" />
        </mxCell>
        <mxCell id="SUnMmAHehi4IOB_Qr8HH-160" value="" style="shape=partialRectangle;html=1;whiteSpace=wrap;connectable=0;overflow=hidden;fillColor=none;top=0;left=0;bottom=0;right=0;" parent="SUnMmAHehi4IOB_Qr8HH-159" vertex="1">
          <mxGeometry width="133" height="10" as="geometry" />
        </mxCell>
        <mxCell id="SUnMmAHehi4IOB_Qr8HH-161" value="" style="shape=partialRectangle;collapsible=0;dropTarget=0;pointerEvents=0;fillColor=none;top=0;left=0;bottom=0;right=0;points=[[0,0.5],[1,0.5]];portConstraint=eastwest;" parent="SUnMmAHehi4IOB_Qr8HH-148" vertex="1">
          <mxGeometry y="62" width="133" height="11" as="geometry" />
        </mxCell>
        <mxCell id="SUnMmAHehi4IOB_Qr8HH-162" value="" style="shape=partialRectangle;html=1;whiteSpace=wrap;connectable=0;overflow=hidden;fillColor=none;top=0;left=0;bottom=0;right=0;" parent="SUnMmAHehi4IOB_Qr8HH-161" vertex="1">
          <mxGeometry width="133" height="11" as="geometry" />
        </mxCell>
        <mxCell id="SUnMmAHehi4IOB_Qr8HH-163" value="" style="shape=partialRectangle;collapsible=0;dropTarget=0;pointerEvents=0;fillColor=none;top=0;left=0;bottom=0;right=0;points=[[0,0.5],[1,0.5]];portConstraint=eastwest;" parent="SUnMmAHehi4IOB_Qr8HH-148" vertex="1">
          <mxGeometry y="73" width="133" height="10" as="geometry" />
        </mxCell>
        <mxCell id="SUnMmAHehi4IOB_Qr8HH-164" value="" style="shape=partialRectangle;html=1;whiteSpace=wrap;connectable=0;overflow=hidden;fillColor=none;top=0;left=0;bottom=0;right=0;" parent="SUnMmAHehi4IOB_Qr8HH-163" vertex="1">
          <mxGeometry width="133" height="10" as="geometry" />
        </mxCell>
        <mxCell id="SUnMmAHehi4IOB_Qr8HH-165" value="" style="shape=curlyBracket;whiteSpace=wrap;html=1;rounded=1;strokeColor=#000000;strokeWidth=2;" parent="1" vertex="1">
          <mxGeometry x="589" y="1760" width="20" height="84" as="geometry" />
        </mxCell>
        <mxCell id="SUnMmAHehi4IOB_Qr8HH-166" value="" style="shape=table;startSize=0;container=1;collapsible=0;childLayout=tableLayout;strokeWidth=2;" parent="1" vertex="1">
          <mxGeometry x="874" y="1791" width="110" height="12" as="geometry" />
        </mxCell>
        <mxCell id="SUnMmAHehi4IOB_Qr8HH-167" value="" style="shape=partialRectangle;collapsible=0;dropTarget=0;pointerEvents=0;fillColor=none;top=0;left=0;bottom=0;right=0;points=[[0,0.5],[1,0.5]];portConstraint=eastwest;" parent="SUnMmAHehi4IOB_Qr8HH-166" vertex="1">
          <mxGeometry width="110" height="12" as="geometry" />
        </mxCell>
        <mxCell id="SUnMmAHehi4IOB_Qr8HH-168" value="" style="shape=partialRectangle;html=1;whiteSpace=wrap;connectable=0;overflow=hidden;fillColor=none;top=0;left=0;bottom=0;right=0;" parent="SUnMmAHehi4IOB_Qr8HH-167" vertex="1">
          <mxGeometry width="110" height="12" as="geometry" />
        </mxCell>
        <mxCell id="SUnMmAHehi4IOB_Qr8HH-169" value="" style="endArrow=classic;html=1;exitX=1;exitY=0.5;exitDx=0;exitDy=0;entryX=0;entryY=0.5;entryDx=0;entryDy=0;strokeWidth=2;strokeColor=#FF3333;" parent="1" source="SUnMmAHehi4IOB_Qr8HH-155" target="SUnMmAHehi4IOB_Qr8HH-167" edge="1">
          <mxGeometry width="50" height="50" relative="1" as="geometry">
            <mxPoint x="903" y="1898" as="sourcePoint" />
            <mxPoint x="953" y="1848" as="targetPoint" />
          </mxGeometry>
        </mxCell>
        <mxCell id="SUnMmAHehi4IOB_Qr8HH-170" value="&lt;font style=&quot;font-size: 24px&quot;&gt;fetch&lt;/font&gt;" style="edgeLabel;html=1;align=center;verticalAlign=middle;resizable=0;points=[];" parent="SUnMmAHehi4IOB_Qr8HH-169" vertex="1" connectable="0">
          <mxGeometry x="-0.2744" y="-3" relative="1" as="geometry">
            <mxPoint x="17" y="-24" as="offset" />
          </mxGeometry>
        </mxCell>
        <mxCell id="SUnMmAHehi4IOB_Qr8HH-171" style="edgeStyle=orthogonalEdgeStyle;rounded=0;orthogonalLoop=1;jettySize=auto;html=1;exitX=1;exitY=0.5;exitDx=0;exitDy=0;entryX=0;entryY=0.5;entryDx=0;entryDy=0;strokeWidth=2;strokeColor=#FF3333;" parent="1" source="SUnMmAHehi4IOB_Qr8HH-173" target="SUnMmAHehi4IOB_Qr8HH-144" edge="1">
          <mxGeometry relative="1" as="geometry" />
        </mxCell>
        <mxCell id="SUnMmAHehi4IOB_Qr8HH-172" value="&lt;font style=&quot;font-size: 24px&quot;&gt;write back A/D？&lt;/font&gt;" style="edgeLabel;html=1;align=center;verticalAlign=middle;resizable=0;points=[];" parent="SUnMmAHehi4IOB_Qr8HH-171" vertex="1" connectable="0">
          <mxGeometry x="0.2967" y="-1" relative="1" as="geometry">
            <mxPoint x="94" y="27" as="offset" />
          </mxGeometry>
        </mxCell>
        <mxCell id="SUnMmAHehi4IOB_Qr8HH-173" value="&lt;font style=&quot;font-size: 24px&quot;&gt;A/D check&lt;/font&gt;" style="ellipse;whiteSpace=wrap;html=1;aspect=fixed;strokeColor=#000000;strokeWidth=2;" parent="1" vertex="1">
          <mxGeometry x="1050" y="1680" width="80" height="80" as="geometry" />
        </mxCell>
        <mxCell id="SUnMmAHehi4IOB_Qr8HH-174" value="" style="edgeStyle=elbowEdgeStyle;elbow=vertical;endArrow=classic;html=1;entryX=0;entryY=0.5;entryDx=0;entryDy=0;exitX=0.464;exitY=-0.167;exitDx=0;exitDy=0;exitPerimeter=0;strokeWidth=2;strokeColor=#FF3333;" parent="1" source="SUnMmAHehi4IOB_Qr8HH-167" target="SUnMmAHehi4IOB_Qr8HH-173" edge="1">
          <mxGeometry width="50" height="50" relative="1" as="geometry">
            <mxPoint x="801" y="1797" as="sourcePoint" />
            <mxPoint x="964" y="1738" as="targetPoint" />
            <Array as="points">
              <mxPoint x="923" y="1720" />
            </Array>
          </mxGeometry>
        </mxCell>
        <mxCell id="SUnMmAHehi4IOB_Qr8HH-175" style="edgeStyle=orthogonalEdgeStyle;rounded=0;orthogonalLoop=1;jettySize=auto;html=1;exitX=1;exitY=0.5;exitDx=0;exitDy=0;entryX=0.093;entryY=1.011;entryDx=0;entryDy=0;entryPerimeter=0;strokeWidth=2;" parent="1" source="SUnMmAHehi4IOB_Qr8HH-167" target="SUnMmAHehi4IOB_Qr8HH-144" edge="1">
          <mxGeometry relative="1" as="geometry" />
        </mxCell>
        <mxCell id="SUnMmAHehi4IOB_Qr8HH-176" value="&lt;font style=&quot;font-size: 24px&quot;&gt;PTE address&lt;/font&gt;" style="edgeLabel;html=1;align=center;verticalAlign=middle;resizable=0;points=[];" parent="SUnMmAHehi4IOB_Qr8HH-175" vertex="1" connectable="0">
          <mxGeometry x="-0.275" y="3" relative="1" as="geometry">
            <mxPoint x="24" y="19" as="offset" />
          </mxGeometry>
        </mxCell>
        <mxCell id="SUnMmAHehi4IOB_Qr8HH-177" style="edgeStyle=orthogonalEdgeStyle;rounded=0;orthogonalLoop=1;jettySize=auto;html=1;entryX=0.958;entryY=1.023;entryDx=0;entryDy=0;entryPerimeter=0;strokeWidth=2;" parent="1" source="SUnMmAHehi4IOB_Qr8HH-178" target="SUnMmAHehi4IOB_Qr8HH-144" edge="1">
          <mxGeometry relative="1" as="geometry" />
        </mxCell>
        <mxCell id="SUnMmAHehi4IOB_Qr8HH-178" value="&lt;font style=&quot;font-size: 24px&quot;&gt;raddr&lt;br&gt;(reg)&lt;/font&gt;" style="rounded=0;whiteSpace=wrap;html=1;strokeColor=#000000;strokeWidth=2;" parent="1" vertex="1">
          <mxGeometry x="899" y="1897" width="60" height="210" as="geometry" />
        </mxCell>
        <mxCell id="SUnMmAHehi4IOB_Qr8HH-179" value="&lt;font style=&quot;font-size: 24px&quot;&gt;TLB&lt;/font&gt;" style="text;html=1;strokeColor=none;fillColor=none;align=center;verticalAlign=middle;whiteSpace=wrap;rounded=0;" parent="1" vertex="1">
          <mxGeometry x="663.5" y="1853.5" width="40" height="20" as="geometry" />
        </mxCell>
        <mxCell id="SUnMmAHehi4IOB_Qr8HH-180" value="&lt;span style=&quot;font-size: 24px&quot;&gt;hit entry&lt;/span&gt;" style="text;html=1;strokeColor=none;fillColor=none;align=center;verticalAlign=middle;whiteSpace=wrap;rounded=0;" parent="1" vertex="1">
          <mxGeometry x="878.5" y="1808" width="101" height="26" as="geometry" />
        </mxCell>
        <mxCell id="SUnMmAHehi4IOB_Qr8HH-181" style="edgeStyle=orthogonalEdgeStyle;rounded=0;orthogonalLoop=1;jettySize=auto;html=1;entryX=0;entryY=0.5;entryDx=0;entryDy=0;strokeWidth=2;" parent="1" source="SUnMmAHehi4IOB_Qr8HH-182" target="SUnMmAHehi4IOB_Qr8HH-178" edge="1">
          <mxGeometry relative="1" as="geometry" />
        </mxCell>
        <mxCell id="SUnMmAHehi4IOB_Qr8HH-182" value="&lt;font style=&quot;font-size: 20px&quot;&gt;PTW address logic&lt;/font&gt;" style="ellipse;shape=cloud;whiteSpace=wrap;html=1;strokeColor=#000000;strokeWidth=2;" parent="1" vertex="1">
          <mxGeometry x="489" y="1909" width="270" height="186" as="geometry" />
        </mxCell>
        <mxCell id="SUnMmAHehi4IOB_Qr8HH-183" style="edgeStyle=orthogonalEdgeStyle;rounded=0;orthogonalLoop=1;jettySize=auto;html=1;entryX=0.5;entryY=1;entryDx=0;entryDy=0;strokeWidth=2;strokeColor=#330000;" parent="1" source="SUnMmAHehi4IOB_Qr8HH-184" target="SUnMmAHehi4IOB_Qr8HH-186" edge="1">
          <mxGeometry relative="1" as="geometry" />
        </mxCell>
        <mxCell id="SUnMmAHehi4IOB_Qr8HH-184" value="&lt;font style=&quot;font-size: 24px&quot;&gt;...&lt;/font&gt;" style="ellipse;shape=cloud;whiteSpace=wrap;html=1;strokeColor=#000000;strokeWidth=2;" parent="1" vertex="1">
          <mxGeometry x="281" y="1931" width="117" height="73" as="geometry" />
        </mxCell>
        <mxCell id="SUnMmAHehi4IOB_Qr8HH-185" style="edgeStyle=orthogonalEdgeStyle;rounded=0;orthogonalLoop=1;jettySize=auto;html=1;entryX=0.1;entryY=0.5;entryDx=0;entryDy=0;entryPerimeter=0;strokeWidth=2;strokeColor=#FF3333;exitX=1;exitY=0.5;exitDx=0;exitDy=0;" parent="1" source="SUnMmAHehi4IOB_Qr8HH-186" target="SUnMmAHehi4IOB_Qr8HH-165" edge="1">
          <mxGeometry relative="1" as="geometry">
            <mxPoint x="552" y="1802" as="sourcePoint" />
          </mxGeometry>
        </mxCell>
        <mxCell id="SUnMmAHehi4IOB_Qr8HH-186" value="&lt;font style=&quot;font-size: 24px&quot;&gt;hit check&lt;/font&gt;" style="ellipse;whiteSpace=wrap;html=1;aspect=fixed;strokeColor=#000000;strokeWidth=2;" parent="1" vertex="1">
          <mxGeometry x="457" y="1762.5" width="80" height="80" as="geometry" />
        </mxCell>
        <mxCell id="SUnMmAHehi4IOB_Qr8HH-187" value="" style="edgeStyle=elbowEdgeStyle;elbow=horizontal;endArrow=classic;html=1;strokeColor=#330000;strokeWidth=2;exitX=0.444;exitY=0;exitDx=0;exitDy=0;exitPerimeter=0;entryX=0.5;entryY=0;entryDx=0;entryDy=0;" parent="1" source="SUnMmAHehi4IOB_Qr8HH-149" target="SUnMmAHehi4IOB_Qr8HH-186" edge="1">
          <mxGeometry width="50" height="50" relative="1" as="geometry">
            <mxPoint x="656" y="1734" as="sourcePoint" />
            <mxPoint x="706" y="1684" as="targetPoint" />
            <Array as="points">
              <mxPoint x="569" y="1714" />
            </Array>
          </mxGeometry>
        </mxCell>
        <mxCell id="SUnMmAHehi4IOB_Qr8HH-188" value="&lt;div class=&quot;lake-content&quot; style=&quot;font-size: 20px&quot;&gt;addr&lt;/div&gt;&lt;div class=&quot;lake-content&quot; style=&quot;font-size: 20px&quot;&gt;(reg)&lt;/div&gt;" style="rounded=0;whiteSpace=wrap;html=1;strokeColor=#000000;strokeWidth=2;" parent="1" vertex="1">
          <mxGeometry x="304" y="1683" width="64" height="238" as="geometry" />
        </mxCell>
        <mxCell id="SUnMmAHehi4IOB_Qr8HH-189" value="&lt;div class=&quot;lake-content&quot; style=&quot;font-size: 20px&quot;&gt;latch&lt;/div&gt;" style="rounded=0;whiteSpace=wrap;html=1;strokeColor=#000000;strokeWidth=2;" parent="1" vertex="1">
          <mxGeometry x="918" y="4401" width="64" height="238" as="geometry" />
        </mxCell>
        <mxCell id="SUnMmAHehi4IOB_Qr8HH-297" style="edgeStyle=orthogonalEdgeStyle;rounded=0;orthogonalLoop=1;jettySize=auto;html=1;exitX=1;exitY=0.25;exitDx=0;exitDy=0;entryX=0;entryY=0.5;entryDx=0;entryDy=0;strokeColor=#d6b656;strokeWidth=2;fillColor=#fff2cc;" parent="1" source="SUnMmAHehi4IOB_Qr8HH-193" target="SUnMmAHehi4IOB_Qr8HH-296" edge="1">
          <mxGeometry relative="1" as="geometry" />
        </mxCell>
        <mxCell id="SUnMmAHehi4IOB_Qr8HH-193" value="&lt;div class=&quot;lake-content&quot; style=&quot;font-size: 20px&quot;&gt;state0&lt;/div&gt;" style="rounded=0;whiteSpace=wrap;html=1;strokeColor=#000000;strokeWidth=2;" parent="1" vertex="1">
          <mxGeometry x="1383" y="4239" width="65" height="144" as="geometry" />
        </mxCell>
        <mxCell id="SUnMmAHehi4IOB_Qr8HH-298" style="edgeStyle=orthogonalEdgeStyle;rounded=0;orthogonalLoop=1;jettySize=auto;html=1;exitX=1;exitY=0.25;exitDx=0;exitDy=0;entryX=0;entryY=0.5;entryDx=0;entryDy=0;strokeColor=#d6b656;strokeWidth=2;fillColor=#fff2cc;" parent="1" source="SUnMmAHehi4IOB_Qr8HH-196" target="SUnMmAHehi4IOB_Qr8HH-296" edge="1">
          <mxGeometry relative="1" as="geometry" />
        </mxCell>
        <mxCell id="SUnMmAHehi4IOB_Qr8HH-196" value="&lt;div class=&quot;lake-content&quot; style=&quot;font-size: 20px&quot;&gt;state1&lt;/div&gt;" style="rounded=0;whiteSpace=wrap;html=1;strokeColor=#000000;strokeWidth=2;" parent="1" vertex="1">
          <mxGeometry x="1384" y="4402" width="65" height="144" as="geometry" />
        </mxCell>
        <mxCell id="SUnMmAHehi4IOB_Qr8HH-299" style="edgeStyle=orthogonalEdgeStyle;rounded=0;orthogonalLoop=1;jettySize=auto;html=1;exitX=1;exitY=0.25;exitDx=0;exitDy=0;entryX=0;entryY=0.5;entryDx=0;entryDy=0;strokeColor=#d6b656;strokeWidth=2;fillColor=#fff2cc;" parent="1" source="SUnMmAHehi4IOB_Qr8HH-197" target="SUnMmAHehi4IOB_Qr8HH-296" edge="1">
          <mxGeometry relative="1" as="geometry" />
        </mxCell>
        <mxCell id="SUnMmAHehi4IOB_Qr8HH-197" value="&lt;div class=&quot;lake-content&quot; style=&quot;font-size: 20px&quot;&gt;state2&lt;/div&gt;" style="rounded=0;whiteSpace=wrap;html=1;strokeColor=#000000;strokeWidth=2;" parent="1" vertex="1">
          <mxGeometry x="1385" y="4568" width="65" height="144" as="geometry" />
        </mxCell>
        <mxCell id="SUnMmAHehi4IOB_Qr8HH-201" value="" style="edgeStyle=segmentEdgeStyle;endArrow=classic;html=1;strokeColor=#82b366;strokeWidth=2;fillColor=#d5e8d4;" parent="1" edge="1">
          <mxGeometry width="50" height="50" relative="1" as="geometry">
            <mxPoint x="1135" y="4524" as="sourcePoint" />
            <mxPoint x="1380" y="4362" as="targetPoint" />
            <Array as="points">
              <mxPoint x="1135" y="4362" />
              <mxPoint x="1380" y="4362" />
            </Array>
          </mxGeometry>
        </mxCell>
        <mxCell id="SUnMmAHehi4IOB_Qr8HH-202" value="" style="endArrow=classic;html=1;strokeColor=#82b366;strokeWidth=2;exitX=1;exitY=0.529;exitDx=0;exitDy=0;exitPerimeter=0;entryX=-0.046;entryY=0.861;entryDx=0;entryDy=0;entryPerimeter=0;fillColor=#d5e8d4;" parent="1" source="SUnMmAHehi4IOB_Qr8HH-189" target="SUnMmAHehi4IOB_Qr8HH-196" edge="1">
          <mxGeometry width="50" height="50" relative="1" as="geometry">
            <mxPoint x="1227" y="4589" as="sourcePoint" />
            <mxPoint x="1277" y="4539" as="targetPoint" />
          </mxGeometry>
        </mxCell>
        <mxCell id="SUnMmAHehi4IOB_Qr8HH-204" value="" style="edgeStyle=segmentEdgeStyle;endArrow=classic;html=1;strokeColor=#82b366;strokeWidth=2;fillColor=#d5e8d4;" parent="1" edge="1">
          <mxGeometry width="50" height="50" relative="1" as="geometry">
            <mxPoint x="1135" y="4526" as="sourcePoint" />
            <mxPoint x="1384" y="4701" as="targetPoint" />
            <Array as="points">
              <mxPoint x="1135" y="4701" />
              <mxPoint x="1384" y="4701" />
            </Array>
          </mxGeometry>
        </mxCell>
        <mxCell id="SUnMmAHehi4IOB_Qr8HH-206" value="&lt;font style=&quot;font-size: 18px&quot;&gt;clk&lt;/font&gt;" style="text;html=1;strokeColor=none;fillColor=none;align=center;verticalAlign=middle;whiteSpace=wrap;rounded=0;" parent="1" vertex="1">
          <mxGeometry x="1380" y="4351" width="40" height="20" as="geometry" />
        </mxCell>
        <mxCell id="SUnMmAHehi4IOB_Qr8HH-207" value="&lt;font style=&quot;font-size: 18px&quot;&gt;clk&lt;/font&gt;" style="text;html=1;strokeColor=none;fillColor=none;align=center;verticalAlign=middle;whiteSpace=wrap;rounded=0;" parent="1" vertex="1">
          <mxGeometry x="1383" y="4516" width="40" height="20" as="geometry" />
        </mxCell>
        <mxCell id="SUnMmAHehi4IOB_Qr8HH-208" value="&lt;font style=&quot;font-size: 18px&quot;&gt;clk&lt;/font&gt;" style="text;html=1;strokeColor=none;fillColor=none;align=center;verticalAlign=middle;whiteSpace=wrap;rounded=0;" parent="1" vertex="1">
          <mxGeometry x="1383" y="4687" width="40" height="20" as="geometry" />
        </mxCell>
        <mxCell id="SUnMmAHehi4IOB_Qr8HH-209" value="&lt;font style=&quot;font-size: 18px&quot;&gt;en&lt;/font&gt;" style="text;html=1;strokeColor=none;fillColor=none;align=center;verticalAlign=middle;whiteSpace=wrap;rounded=0;" parent="1" vertex="1">
          <mxGeometry x="918" y="4418" width="40" height="20" as="geometry" />
        </mxCell>
        <mxCell id="SUnMmAHehi4IOB_Qr8HH-210" value="" style="endArrow=classic;html=1;strokeWidth=2;entryX=0;entryY=0.5;entryDx=0;entryDy=0;strokeColor=#FF3333;" parent="1" target="SUnMmAHehi4IOB_Qr8HH-209" edge="1">
          <mxGeometry width="50" height="50" relative="1" as="geometry">
            <mxPoint x="748" y="4428" as="sourcePoint" />
            <mxPoint x="635" y="4395" as="targetPoint" />
          </mxGeometry>
        </mxCell>
        <mxCell id="SUnMmAHehi4IOB_Qr8HH-212" value="&lt;div class=&quot;lake-content&quot; style=&quot;font-size: 20px&quot;&gt;addr&lt;/div&gt;&lt;div class=&quot;lake-content&quot; style=&quot;font-size: 20px&quot;&gt;(reg)&lt;/div&gt;" style="rounded=0;whiteSpace=wrap;html=1;strokeColor=#000000;strokeWidth=2;" parent="1" vertex="1">
          <mxGeometry x="304" y="1683" width="64" height="238" as="geometry" />
        </mxCell>
        <mxCell id="SUnMmAHehi4IOB_Qr8HH-213" value="&lt;font style=&quot;font-size: 24px&quot;&gt;...&lt;/font&gt;" style="ellipse;shape=cloud;whiteSpace=wrap;html=1;strokeColor=#000000;strokeWidth=2;" parent="1" vertex="1">
          <mxGeometry x="281" y="1931" width="117" height="73" as="geometry" />
        </mxCell>
        <mxCell id="SUnMmAHehi4IOB_Qr8HH-239" value="" style="endArrow=classic;html=1;entryX=0;entryY=0.5;entryDx=0;entryDy=0;strokeWidth=2;strokeColor=#FF3333;exitX=1;exitY=0.5;exitDx=0;exitDy=0;" parent="1" target="SUnMmAHehi4IOB_Qr8HH-260" edge="1">
          <mxGeometry width="50" height="50" relative="1" as="geometry">
            <mxPoint x="620.5" y="3716" as="sourcePoint" />
            <mxPoint x="694.5" y="3716" as="targetPoint" />
          </mxGeometry>
        </mxCell>
        <mxCell id="SUnMmAHehi4IOB_Qr8HH-240" value="" style="shape=table;startSize=0;container=1;collapsible=0;childLayout=tableLayout;strokeWidth=2;" parent="1" vertex="1">
          <mxGeometry x="869.5" y="3675" width="133" height="83" as="geometry" />
        </mxCell>
        <mxCell id="SUnMmAHehi4IOB_Qr8HH-241" value="" style="shape=partialRectangle;collapsible=0;dropTarget=0;pointerEvents=0;fillColor=none;top=0;left=0;bottom=0;right=0;points=[[0,0.5],[1,0.5]];portConstraint=eastwest;" parent="SUnMmAHehi4IOB_Qr8HH-240" vertex="1">
          <mxGeometry width="133" height="10" as="geometry" />
        </mxCell>
        <mxCell id="SUnMmAHehi4IOB_Qr8HH-242" value="" style="shape=partialRectangle;html=1;whiteSpace=wrap;connectable=0;overflow=hidden;fillColor=none;top=0;left=0;bottom=0;right=0;" parent="SUnMmAHehi4IOB_Qr8HH-241" vertex="1">
          <mxGeometry width="133" height="10" as="geometry" />
        </mxCell>
        <mxCell id="SUnMmAHehi4IOB_Qr8HH-243" value="" style="shape=partialRectangle;collapsible=0;dropTarget=0;pointerEvents=0;fillColor=none;top=0;left=0;bottom=0;right=0;points=[[0,0.5],[1,0.5]];portConstraint=eastwest;" parent="SUnMmAHehi4IOB_Qr8HH-240" vertex="1">
          <mxGeometry y="10" width="133" height="11" as="geometry" />
        </mxCell>
        <mxCell id="SUnMmAHehi4IOB_Qr8HH-244" value="" style="shape=partialRectangle;html=1;whiteSpace=wrap;connectable=0;overflow=hidden;fillColor=none;top=0;left=0;bottom=0;right=0;" parent="SUnMmAHehi4IOB_Qr8HH-243" vertex="1">
          <mxGeometry width="133" height="11" as="geometry" />
        </mxCell>
        <mxCell id="SUnMmAHehi4IOB_Qr8HH-245" value="" style="shape=partialRectangle;collapsible=0;dropTarget=0;pointerEvents=0;fillColor=none;top=0;left=0;bottom=0;right=0;points=[[0,0.5],[1,0.5]];portConstraint=eastwest;" parent="SUnMmAHehi4IOB_Qr8HH-240" vertex="1">
          <mxGeometry y="21" width="133" height="10" as="geometry" />
        </mxCell>
        <mxCell id="SUnMmAHehi4IOB_Qr8HH-246" value="" style="shape=partialRectangle;html=1;whiteSpace=wrap;connectable=0;overflow=hidden;fillColor=none;top=0;left=0;bottom=0;right=0;" parent="SUnMmAHehi4IOB_Qr8HH-245" vertex="1">
          <mxGeometry width="133" height="10" as="geometry" />
        </mxCell>
        <mxCell id="SUnMmAHehi4IOB_Qr8HH-247" value="" style="shape=partialRectangle;collapsible=0;dropTarget=0;pointerEvents=0;fillColor=none;top=0;left=0;bottom=0;right=0;points=[[0,0.5],[1,0.5]];portConstraint=eastwest;" parent="SUnMmAHehi4IOB_Qr8HH-240" vertex="1">
          <mxGeometry y="31" width="133" height="11" as="geometry" />
        </mxCell>
        <mxCell id="SUnMmAHehi4IOB_Qr8HH-248" value="" style="shape=partialRectangle;html=1;whiteSpace=wrap;connectable=0;overflow=hidden;fillColor=none;top=0;left=0;bottom=0;right=0;" parent="SUnMmAHehi4IOB_Qr8HH-247" vertex="1">
          <mxGeometry width="133" height="11" as="geometry" />
        </mxCell>
        <mxCell id="SUnMmAHehi4IOB_Qr8HH-249" value="" style="shape=partialRectangle;collapsible=0;dropTarget=0;pointerEvents=0;fillColor=none;top=0;left=0;bottom=0;right=0;points=[[0,0.5],[1,0.5]];portConstraint=eastwest;" parent="SUnMmAHehi4IOB_Qr8HH-240" vertex="1">
          <mxGeometry y="42" width="133" height="10" as="geometry" />
        </mxCell>
        <mxCell id="SUnMmAHehi4IOB_Qr8HH-250" value="" style="shape=partialRectangle;html=1;whiteSpace=wrap;connectable=0;overflow=hidden;fillColor=none;top=0;left=0;bottom=0;right=0;" parent="SUnMmAHehi4IOB_Qr8HH-249" vertex="1">
          <mxGeometry width="133" height="10" as="geometry" />
        </mxCell>
        <mxCell id="SUnMmAHehi4IOB_Qr8HH-251" value="" style="shape=partialRectangle;collapsible=0;dropTarget=0;pointerEvents=0;fillColor=none;top=0;left=0;bottom=0;right=0;points=[[0,0.5],[1,0.5]];portConstraint=eastwest;" parent="SUnMmAHehi4IOB_Qr8HH-240" vertex="1">
          <mxGeometry y="52" width="133" height="10" as="geometry" />
        </mxCell>
        <mxCell id="SUnMmAHehi4IOB_Qr8HH-252" value="" style="shape=partialRectangle;html=1;whiteSpace=wrap;connectable=0;overflow=hidden;fillColor=none;top=0;left=0;bottom=0;right=0;" parent="SUnMmAHehi4IOB_Qr8HH-251" vertex="1">
          <mxGeometry width="133" height="10" as="geometry" />
        </mxCell>
        <mxCell id="SUnMmAHehi4IOB_Qr8HH-253" value="" style="shape=partialRectangle;collapsible=0;dropTarget=0;pointerEvents=0;fillColor=none;top=0;left=0;bottom=0;right=0;points=[[0,0.5],[1,0.5]];portConstraint=eastwest;" parent="SUnMmAHehi4IOB_Qr8HH-240" vertex="1">
          <mxGeometry y="62" width="133" height="11" as="geometry" />
        </mxCell>
        <mxCell id="SUnMmAHehi4IOB_Qr8HH-254" value="" style="shape=partialRectangle;html=1;whiteSpace=wrap;connectable=0;overflow=hidden;fillColor=none;top=0;left=0;bottom=0;right=0;" parent="SUnMmAHehi4IOB_Qr8HH-253" vertex="1">
          <mxGeometry width="133" height="11" as="geometry" />
        </mxCell>
        <mxCell id="SUnMmAHehi4IOB_Qr8HH-255" value="" style="shape=partialRectangle;collapsible=0;dropTarget=0;pointerEvents=0;fillColor=none;top=0;left=0;bottom=0;right=0;points=[[0,0.5],[1,0.5]];portConstraint=eastwest;" parent="SUnMmAHehi4IOB_Qr8HH-240" vertex="1">
          <mxGeometry y="73" width="133" height="10" as="geometry" />
        </mxCell>
        <mxCell id="SUnMmAHehi4IOB_Qr8HH-256" value="" style="shape=partialRectangle;html=1;whiteSpace=wrap;connectable=0;overflow=hidden;fillColor=none;top=0;left=0;bottom=0;right=0;" parent="SUnMmAHehi4IOB_Qr8HH-255" vertex="1">
          <mxGeometry width="133" height="10" as="geometry" />
        </mxCell>
        <mxCell id="SUnMmAHehi4IOB_Qr8HH-257" value="" style="shape=curlyBracket;whiteSpace=wrap;html=1;rounded=1;strokeColor=#000000;strokeWidth=2;" parent="1" vertex="1">
          <mxGeometry x="841.5" y="3674" width="20" height="84" as="geometry" />
        </mxCell>
        <mxCell id="SUnMmAHehi4IOB_Qr8HH-258" style="edgeStyle=orthogonalEdgeStyle;rounded=0;orthogonalLoop=1;jettySize=auto;html=1;entryX=0.5;entryY=1;entryDx=0;entryDy=0;strokeWidth=2;strokeColor=#330000;" parent="1" target="SUnMmAHehi4IOB_Qr8HH-260" edge="1">
          <mxGeometry relative="1" as="geometry">
            <mxPoint x="650.5" y="3881.5" as="sourcePoint" />
          </mxGeometry>
        </mxCell>
        <mxCell id="SUnMmAHehi4IOB_Qr8HH-259" style="edgeStyle=orthogonalEdgeStyle;rounded=0;orthogonalLoop=1;jettySize=auto;html=1;entryX=0.1;entryY=0.5;entryDx=0;entryDy=0;entryPerimeter=0;strokeWidth=2;strokeColor=#FF3333;exitX=1;exitY=0.5;exitDx=0;exitDy=0;" parent="1" source="SUnMmAHehi4IOB_Qr8HH-260" target="SUnMmAHehi4IOB_Qr8HH-257" edge="1">
          <mxGeometry relative="1" as="geometry">
            <mxPoint x="804.5" y="3716" as="sourcePoint" />
          </mxGeometry>
        </mxCell>
        <mxCell id="SUnMmAHehi4IOB_Qr8HH-260" value="&lt;font style=&quot;font-size: 24px&quot;&gt;hit check&lt;/font&gt;" style="ellipse;whiteSpace=wrap;html=1;aspect=fixed;strokeColor=#000000;strokeWidth=2;" parent="1" vertex="1">
          <mxGeometry x="709.5" y="3676.5" width="80" height="80" as="geometry" />
        </mxCell>
        <mxCell id="SUnMmAHehi4IOB_Qr8HH-261" value="" style="edgeStyle=elbowEdgeStyle;elbow=horizontal;endArrow=classic;html=1;strokeColor=#330000;strokeWidth=2;exitX=0.444;exitY=0;exitDx=0;exitDy=0;exitPerimeter=0;entryX=0.5;entryY=0;entryDx=0;entryDy=0;" parent="1" source="SUnMmAHehi4IOB_Qr8HH-241" target="SUnMmAHehi4IOB_Qr8HH-260" edge="1">
          <mxGeometry width="50" height="50" relative="1" as="geometry">
            <mxPoint x="908.5" y="3648" as="sourcePoint" />
            <mxPoint x="958.5" y="3598" as="targetPoint" />
            <Array as="points">
              <mxPoint x="821.5" y="3628" />
            </Array>
          </mxGeometry>
        </mxCell>
        <mxCell id="SUnMmAHehi4IOB_Qr8HH-262" value="&lt;div class=&quot;lake-content&quot; style=&quot;font-size: 20px&quot;&gt;addr&lt;/div&gt;&lt;div class=&quot;lake-content&quot; style=&quot;font-size: 20px&quot;&gt;(reg)&lt;/div&gt;" style="rounded=0;whiteSpace=wrap;html=1;strokeColor=#000000;strokeWidth=2;" parent="1" vertex="1">
          <mxGeometry x="556.5" y="3597" width="64" height="238" as="geometry" />
        </mxCell>
        <mxCell id="SUnMmAHehi4IOB_Qr8HH-263" value="&lt;font style=&quot;font-size: 24px&quot;&gt;...&lt;/font&gt;" style="ellipse;shape=cloud;whiteSpace=wrap;html=1;strokeColor=#000000;strokeWidth=2;" parent="1" vertex="1">
          <mxGeometry x="533.5" y="3845" width="117" height="73" as="geometry" />
        </mxCell>
        <mxCell id="SUnMmAHehi4IOB_Qr8HH-264" value="&lt;font style=&quot;font-size: 24px&quot;&gt;TLB&lt;/font&gt;" style="text;html=1;strokeColor=none;fillColor=none;align=center;verticalAlign=middle;whiteSpace=wrap;rounded=0;" parent="1" vertex="1">
          <mxGeometry x="912.5" y="3773" width="40" height="20" as="geometry" />
        </mxCell>
        <mxCell id="SUnMmAHehi4IOB_Qr8HH-266" value="" style="endArrow=classic;html=1;strokeColor=#330000;strokeWidth=2;exitX=1;exitY=1;exitDx=0;exitDy=0;entryX=0;entryY=0;entryDx=0;entryDy=0;" parent="1" source="SUnMmAHehi4IOB_Qr8HH-260" target="SUnMmAHehi4IOB_Qr8HH-268" edge="1">
          <mxGeometry width="50" height="50" relative="1" as="geometry">
            <mxPoint x="913.5" y="3900" as="sourcePoint" />
            <mxPoint x="888.5" y="3817" as="targetPoint" />
          </mxGeometry>
        </mxCell>
        <mxCell id="SUnMmAHehi4IOB_Qr8HH-290" value="&lt;font style=&quot;font-size: 24px&quot;&gt;hit or not&lt;/font&gt;" style="edgeLabel;html=1;align=center;verticalAlign=middle;resizable=0;points=[];" parent="SUnMmAHehi4IOB_Qr8HH-266" vertex="1" connectable="0">
          <mxGeometry x="-0.2453" y="-3" relative="1" as="geometry">
            <mxPoint x="7" y="7" as="offset" />
          </mxGeometry>
        </mxCell>
        <mxCell id="SUnMmAHehi4IOB_Qr8HH-269" style="edgeStyle=orthogonalEdgeStyle;rounded=0;orthogonalLoop=1;jettySize=auto;html=1;entryX=0.5;entryY=1;entryDx=0;entryDy=0;strokeColor=#330000;strokeWidth=2;" parent="1" source="SUnMmAHehi4IOB_Qr8HH-267" target="SUnMmAHehi4IOB_Qr8HH-268" edge="1">
          <mxGeometry relative="1" as="geometry" />
        </mxCell>
        <mxCell id="SUnMmAHehi4IOB_Qr8HH-267" value="&lt;font style=&quot;font-size: 24px&quot;&gt;...&lt;/font&gt;" style="ellipse;shape=cloud;whiteSpace=wrap;html=1;strokeColor=#000000;strokeWidth=2;" parent="1" vertex="1">
          <mxGeometry x="745.5" y="3982" width="117" height="73" as="geometry" />
        </mxCell>
        <mxCell id="SUnMmAHehi4IOB_Qr8HH-288" style="edgeStyle=orthogonalEdgeStyle;rounded=0;orthogonalLoop=1;jettySize=auto;html=1;exitX=1;exitY=1;exitDx=0;exitDy=0;entryX=0;entryY=1;entryDx=0;entryDy=0;strokeWidth=2;strokeColor=#FF3333;" parent="1" source="SUnMmAHehi4IOB_Qr8HH-268" target="SUnMmAHehi4IOB_Qr8HH-281" edge="1">
          <mxGeometry relative="1" as="geometry">
            <Array as="points">
              <mxPoint x="985.5" y="4024" />
            </Array>
          </mxGeometry>
        </mxCell>
        <mxCell id="SUnMmAHehi4IOB_Qr8HH-293" value="&lt;font style=&quot;font-size: 24px&quot;&gt;enable&lt;/font&gt;" style="edgeLabel;html=1;align=center;verticalAlign=middle;resizable=0;points=[];" parent="SUnMmAHehi4IOB_Qr8HH-288" vertex="1" connectable="0">
          <mxGeometry x="0.2804" y="4" relative="1" as="geometry">
            <mxPoint as="offset" />
          </mxGeometry>
        </mxCell>
        <mxCell id="SUnMmAHehi4IOB_Qr8HH-289" style="edgeStyle=orthogonalEdgeStyle;rounded=0;orthogonalLoop=1;jettySize=auto;html=1;exitX=1;exitY=1;exitDx=0;exitDy=0;entryX=0;entryY=0;entryDx=0;entryDy=0;strokeColor=#330000;strokeWidth=2;" parent="1" source="SUnMmAHehi4IOB_Qr8HH-268" target="SUnMmAHehi4IOB_Qr8HH-281" edge="1">
          <mxGeometry relative="1" as="geometry" />
        </mxCell>
        <mxCell id="SUnMmAHehi4IOB_Qr8HH-292" value="&lt;font style=&quot;font-size: 24px&quot;&gt;state(next)&lt;/font&gt;" style="edgeLabel;html=1;align=center;verticalAlign=middle;resizable=0;points=[];" parent="SUnMmAHehi4IOB_Qr8HH-289" vertex="1" connectable="0">
          <mxGeometry x="-0.0383" y="3" relative="1" as="geometry">
            <mxPoint as="offset" />
          </mxGeometry>
        </mxCell>
        <mxCell id="SUnMmAHehi4IOB_Qr8HH-268" value="&lt;font style=&quot;font-size: 24px&quot;&gt;state transfer&lt;br&gt;logic&lt;br&gt;&lt;/font&gt;" style="ellipse;whiteSpace=wrap;html=1;aspect=fixed;strokeColor=#000000;strokeWidth=2;" parent="1" vertex="1">
          <mxGeometry x="908.5" y="3835" width="90" height="90" as="geometry" />
        </mxCell>
        <mxCell id="SUnMmAHehi4IOB_Qr8HH-270" value="" style="shape=table;startSize=0;container=1;collapsible=0;childLayout=tableLayout;strokeWidth=2;" parent="1" vertex="1">
          <mxGeometry x="1126.5" y="3708" width="110" height="12" as="geometry" />
        </mxCell>
        <mxCell id="SUnMmAHehi4IOB_Qr8HH-271" value="" style="shape=partialRectangle;collapsible=0;dropTarget=0;pointerEvents=0;fillColor=none;top=0;left=0;bottom=0;right=0;points=[[0,0.5],[1,0.5]];portConstraint=eastwest;" parent="SUnMmAHehi4IOB_Qr8HH-270" vertex="1">
          <mxGeometry width="110" height="12" as="geometry" />
        </mxCell>
        <mxCell id="SUnMmAHehi4IOB_Qr8HH-272" value="" style="shape=partialRectangle;html=1;whiteSpace=wrap;connectable=0;overflow=hidden;fillColor=none;top=0;left=0;bottom=0;right=0;" parent="SUnMmAHehi4IOB_Qr8HH-271" vertex="1">
          <mxGeometry width="110" height="12" as="geometry" />
        </mxCell>
        <mxCell id="SUnMmAHehi4IOB_Qr8HH-273" value="" style="endArrow=classic;html=1;exitX=1;exitY=0.5;exitDx=0;exitDy=0;entryX=0;entryY=0.5;entryDx=0;entryDy=0;strokeWidth=2;strokeColor=#FF3333;" parent="1" target="SUnMmAHehi4IOB_Qr8HH-271" edge="1">
          <mxGeometry width="50" height="50" relative="1" as="geometry">
            <mxPoint x="1002.5" y="3714.5" as="sourcePoint" />
            <mxPoint x="1205.5" y="3765" as="targetPoint" />
          </mxGeometry>
        </mxCell>
        <mxCell id="SUnMmAHehi4IOB_Qr8HH-274" value="&lt;font style=&quot;font-size: 24px&quot;&gt;fetch&lt;/font&gt;" style="edgeLabel;html=1;align=center;verticalAlign=middle;resizable=0;points=[];" parent="SUnMmAHehi4IOB_Qr8HH-273" vertex="1" connectable="0">
          <mxGeometry x="-0.2744" y="-3" relative="1" as="geometry">
            <mxPoint x="17" y="-24" as="offset" />
          </mxGeometry>
        </mxCell>
        <mxCell id="SUnMmAHehi4IOB_Qr8HH-283" style="edgeStyle=orthogonalEdgeStyle;rounded=0;orthogonalLoop=1;jettySize=auto;html=1;exitX=0;exitY=0.5;exitDx=0;exitDy=0;strokeWidth=2;entryX=0.5;entryY=0;entryDx=0;entryDy=0;strokeColor=#FF3333;" parent="1" source="SUnMmAHehi4IOB_Qr8HH-275" target="SUnMmAHehi4IOB_Qr8HH-268" edge="1">
          <mxGeometry relative="1" as="geometry" />
        </mxCell>
        <mxCell id="SUnMmAHehi4IOB_Qr8HH-275" value="&lt;font style=&quot;font-size: 24px&quot;&gt;A/D check&lt;/font&gt;" style="ellipse;whiteSpace=wrap;html=1;aspect=fixed;strokeColor=#000000;strokeWidth=2;" parent="1" vertex="1">
          <mxGeometry x="1141.5" y="3765" width="80" height="80" as="geometry" />
        </mxCell>
        <mxCell id="SUnMmAHehi4IOB_Qr8HH-276" value="" style="edgeStyle=elbowEdgeStyle;elbow=vertical;endArrow=classic;html=1;strokeWidth=2;strokeColor=#FF3333;entryX=0.5;entryY=0;entryDx=0;entryDy=0;exitX=0.5;exitY=1;exitDx=0;exitDy=0;exitPerimeter=0;" parent="1" source="SUnMmAHehi4IOB_Qr8HH-271" target="SUnMmAHehi4IOB_Qr8HH-275" edge="1">
          <mxGeometry width="50" height="50" relative="1" as="geometry">
            <mxPoint x="1053.5" y="3714" as="sourcePoint" />
            <mxPoint x="1118.5" y="3794" as="targetPoint" />
            <Array as="points">
              <mxPoint x="1148.5" y="3740" />
              <mxPoint x="1175.5" y="3637" />
            </Array>
          </mxGeometry>
        </mxCell>
        <mxCell id="SUnMmAHehi4IOB_Qr8HH-279" value="&lt;span style=&quot;font-size: 24px&quot;&gt;hit entry&lt;/span&gt;" style="text;html=1;strokeColor=none;fillColor=none;align=center;verticalAlign=middle;whiteSpace=wrap;rounded=0;" parent="1" vertex="1">
          <mxGeometry x="1133.5" y="3672" width="101" height="26" as="geometry" />
        </mxCell>
        <mxCell id="SUnMmAHehi4IOB_Qr8HH-287" style="edgeStyle=orthogonalEdgeStyle;rounded=0;orthogonalLoop=1;jettySize=auto;html=1;exitX=0.5;exitY=0;exitDx=0;exitDy=0;entryX=1;entryY=0.411;entryDx=0;entryDy=0;entryPerimeter=0;strokeColor=#330000;strokeWidth=2;" parent="1" source="SUnMmAHehi4IOB_Qr8HH-281" target="SUnMmAHehi4IOB_Qr8HH-268" edge="1">
          <mxGeometry relative="1" as="geometry" />
        </mxCell>
        <mxCell id="SUnMmAHehi4IOB_Qr8HH-291" value="&lt;font style=&quot;font-size: 24px&quot;&gt;state(now)&lt;/font&gt;" style="edgeLabel;html=1;align=center;verticalAlign=middle;resizable=0;points=[];" parent="SUnMmAHehi4IOB_Qr8HH-287" vertex="1" connectable="0">
          <mxGeometry x="-0.0672" y="-5" relative="1" as="geometry">
            <mxPoint x="-69" y="4" as="offset" />
          </mxGeometry>
        </mxCell>
        <mxCell id="SUnMmAHehi4IOB_Qr8HH-281" value="&lt;font style=&quot;font-size: 24px&quot;&gt;PTW&#39;s state&lt;/font&gt;" style="ellipse;whiteSpace=wrap;html=1;strokeColor=#000000;strokeWidth=2;" parent="1" vertex="1">
          <mxGeometry x="1390.5" y="3956" width="120" height="80" as="geometry" />
        </mxCell>
        <mxCell id="SUnMmAHehi4IOB_Qr8HH-284" value="&lt;font style=&quot;font-size: 18px&quot;&gt;write back A/D？&lt;/font&gt;" style="edgeLabel;html=1;align=center;verticalAlign=middle;resizable=0;points=[];" parent="1" vertex="1" connectable="0">
          <mxGeometry x="1059.5" y="3787" as="geometry" />
        </mxCell>
        <mxCell id="SUnMmAHehi4IOB_Qr8HH-294" value="&lt;font style=&quot;font-size: 24px&quot;&gt;enable&lt;/font&gt;" style="text;html=1;strokeColor=none;fillColor=none;align=center;verticalAlign=middle;whiteSpace=wrap;rounded=0;" parent="1" vertex="1">
          <mxGeometry x="682" y="4418" width="40" height="20" as="geometry" />
        </mxCell>
        <mxCell id="SUnMmAHehi4IOB_Qr8HH-295" value="&lt;font style=&quot;font-size: 24px&quot;&gt;state(next)&lt;/font&gt;" style="text;html=1;strokeColor=none;fillColor=none;align=center;verticalAlign=middle;whiteSpace=wrap;rounded=0;" parent="1" vertex="1">
          <mxGeometry x="629" y="4219" width="152" height="20" as="geometry" />
        </mxCell>
        <mxCell id="SUnMmAHehi4IOB_Qr8HH-296" value="&lt;font style=&quot;font-size: 24px&quot;&gt;state(now)&lt;/font&gt;" style="text;html=1;strokeColor=none;fillColor=none;align=center;verticalAlign=middle;whiteSpace=wrap;rounded=0;" parent="1" vertex="1">
          <mxGeometry x="1615" y="4427" width="175" height="20" as="geometry" />
        </mxCell>
        <mxCell id="SUnMmAHehi4IOB_Qr8HH-302" value="" style="endArrow=none;html=1;strokeColor=#6c8ebf;strokeWidth=2;exitX=0.901;exitY=0.8;exitDx=0;exitDy=0;exitPerimeter=0;fillColor=#dae8fc;" parent="1" source="SUnMmAHehi4IOB_Qr8HH-295" edge="1">
          <mxGeometry width="50" height="50" relative="1" as="geometry">
            <mxPoint x="896" y="4252" as="sourcePoint" />
            <mxPoint x="1053" y="4235" as="targetPoint" />
          </mxGeometry>
        </mxCell>
        <mxCell id="SUnMmAHehi4IOB_Qr8HH-307" value="" style="edgeStyle=segmentEdgeStyle;endArrow=classic;html=1;strokeColor=#6c8ebf;strokeWidth=2;fillColor=#dae8fc;" parent="1" edge="1">
          <mxGeometry width="50" height="50" relative="1" as="geometry">
            <mxPoint x="1189" y="4415" as="sourcePoint" />
            <mxPoint x="1381" y="4253" as="targetPoint" />
            <Array as="points">
              <mxPoint x="1189" y="4415" />
              <mxPoint x="1189" y="4253" />
            </Array>
          </mxGeometry>
        </mxCell>
        <mxCell id="SUnMmAHehi4IOB_Qr8HH-308" value="" style="endArrow=classic;html=1;strokeColor=#6c8ebf;strokeWidth=2;entryX=-0.046;entryY=0.861;entryDx=0;entryDy=0;entryPerimeter=0;fillColor=#dae8fc;" parent="1" edge="1">
          <mxGeometry width="50" height="50" relative="1" as="geometry">
            <mxPoint x="1046" y="4417" as="sourcePoint" />
            <mxPoint x="1382.0100000000002" y="4416.984" as="targetPoint" />
          </mxGeometry>
        </mxCell>
        <mxCell id="SUnMmAHehi4IOB_Qr8HH-309" value="" style="edgeStyle=segmentEdgeStyle;endArrow=classic;html=1;strokeColor=#6c8ebf;strokeWidth=2;fillColor=#dae8fc;" parent="1" edge="1">
          <mxGeometry width="50" height="50" relative="1" as="geometry">
            <mxPoint x="1190" y="4417" as="sourcePoint" />
            <mxPoint x="1385" y="4592" as="targetPoint" />
            <Array as="points">
              <mxPoint x="1190" y="4417" />
              <mxPoint x="1190" y="4592" />
            </Array>
          </mxGeometry>
        </mxCell>
        <mxCell id="SUnMmAHehi4IOB_Qr8HH-310" value="" style="endArrow=none;html=1;strokeColor=#6c8ebf;strokeWidth=2;fillColor=#dae8fc;" parent="1" edge="1">
          <mxGeometry width="50" height="50" relative="1" as="geometry">
            <mxPoint x="1050" y="4421" as="sourcePoint" />
            <mxPoint x="1050" y="4235" as="targetPoint" />
          </mxGeometry>
        </mxCell>
        <mxCell id="SUnMmAHehi4IOB_Qr8HH-312" value="" style="endArrow=none;html=1;strokeWidth=2;entryX=0;entryY=1;entryDx=0;entryDy=0;dashed=1;strokeColor=#3333FF;" parent="1" target="SUnMmAHehi4IOB_Qr8HH-311" edge="1">
          <mxGeometry width="50" height="50" relative="1" as="geometry">
            <mxPoint x="653" y="4215" as="sourcePoint" />
            <mxPoint x="1095" y="4039" as="targetPoint" />
          </mxGeometry>
        </mxCell>
        <mxCell id="SUnMmAHehi4IOB_Qr8HH-313" value="" style="endArrow=none;html=1;dashed=1;strokeWidth=2;entryX=1;entryY=1;entryDx=0;entryDy=0;strokeColor=#3333FF;" parent="1" target="SUnMmAHehi4IOB_Qr8HH-311" edge="1">
          <mxGeometry width="50" height="50" relative="1" as="geometry">
            <mxPoint x="1800" y="4441" as="sourcePoint" />
            <mxPoint x="1683" y="4106" as="targetPoint" />
          </mxGeometry>
        </mxCell>
        <mxCell id="SUnMmAHehi4IOB_Qr8HH-314" value="" style="rounded=0;whiteSpace=wrap;html=1;strokeColor=#000000;strokeWidth=2;" parent="1" vertex="1">
          <mxGeometry x="484" y="4817" width="1103.5" height="539" as="geometry" />
        </mxCell>
        <mxCell id="SUnMmAHehi4IOB_Qr8HH-315" value="" style="ellipse;whiteSpace=wrap;html=1;strokeWidth=2;strokeColor=#3333FF;" parent="1" vertex="1">
          <mxGeometry x="1322" y="5188" width="206" height="140" as="geometry" />
        </mxCell>
        <mxCell id="SUnMmAHehi4IOB_Qr8HH-316" value="" style="rounded=0;whiteSpace=wrap;html=1;strokeColor=#000000;strokeWidth=2;" parent="1" vertex="1">
          <mxGeometry x="756" y="5454" width="692" height="549" as="geometry" />
        </mxCell>
        <mxCell id="SUnMmAHehi4IOB_Qr8HH-317" value="&lt;div class=&quot;lake-content&quot; style=&quot;font-size: 20px&quot;&gt;latch&lt;/div&gt;" style="rounded=0;whiteSpace=wrap;html=1;strokeColor=#000000;strokeWidth=2;" parent="1" vertex="1">
          <mxGeometry x="889" y="5660" width="64" height="238" as="geometry" />
        </mxCell>
        <mxCell id="SUnMmAHehi4IOB_Qr8HH-318" style="edgeStyle=orthogonalEdgeStyle;rounded=0;orthogonalLoop=1;jettySize=auto;html=1;exitX=1;exitY=0.25;exitDx=0;exitDy=0;entryX=0;entryY=0.5;entryDx=0;entryDy=0;strokeColor=#d6b656;strokeWidth=2;fillColor=#fff2cc;" parent="1" source="SUnMmAHehi4IOB_Qr8HH-319" target="SUnMmAHehi4IOB_Qr8HH-382" edge="1">
          <mxGeometry relative="1" as="geometry" />
        </mxCell>
        <mxCell id="SUnMmAHehi4IOB_Qr8HH-319" value="&lt;div class=&quot;lake-content&quot; style=&quot;font-size: 20px&quot;&gt;state0&lt;/div&gt;" style="rounded=0;whiteSpace=wrap;html=1;strokeColor=#000000;strokeWidth=2;" parent="1" vertex="1">
          <mxGeometry x="1354" y="5498" width="65" height="144" as="geometry" />
        </mxCell>
        <mxCell id="SUnMmAHehi4IOB_Qr8HH-320" style="edgeStyle=orthogonalEdgeStyle;rounded=0;orthogonalLoop=1;jettySize=auto;html=1;exitX=1;exitY=0.25;exitDx=0;exitDy=0;entryX=0;entryY=0.5;entryDx=0;entryDy=0;strokeColor=#d6b656;strokeWidth=2;fillColor=#fff2cc;" parent="1" source="SUnMmAHehi4IOB_Qr8HH-321" target="SUnMmAHehi4IOB_Qr8HH-382" edge="1">
          <mxGeometry relative="1" as="geometry" />
        </mxCell>
        <mxCell id="SUnMmAHehi4IOB_Qr8HH-321" value="&lt;div class=&quot;lake-content&quot; style=&quot;font-size: 20px&quot;&gt;state1&lt;/div&gt;" style="rounded=0;whiteSpace=wrap;html=1;strokeColor=#000000;strokeWidth=2;" parent="1" vertex="1">
          <mxGeometry x="1355" y="5661" width="65" height="144" as="geometry" />
        </mxCell>
        <mxCell id="SUnMmAHehi4IOB_Qr8HH-322" style="edgeStyle=orthogonalEdgeStyle;rounded=0;orthogonalLoop=1;jettySize=auto;html=1;exitX=1;exitY=0.25;exitDx=0;exitDy=0;entryX=0;entryY=0.5;entryDx=0;entryDy=0;strokeColor=#d6b656;strokeWidth=2;fillColor=#fff2cc;" parent="1" source="SUnMmAHehi4IOB_Qr8HH-323" target="SUnMmAHehi4IOB_Qr8HH-382" edge="1">
          <mxGeometry relative="1" as="geometry" />
        </mxCell>
        <mxCell id="SUnMmAHehi4IOB_Qr8HH-323" value="&lt;div class=&quot;lake-content&quot; style=&quot;font-size: 20px&quot;&gt;state2&lt;/div&gt;" style="rounded=0;whiteSpace=wrap;html=1;strokeColor=#000000;strokeWidth=2;" parent="1" vertex="1">
          <mxGeometry x="1356" y="5827" width="65" height="144" as="geometry" />
        </mxCell>
        <mxCell id="SUnMmAHehi4IOB_Qr8HH-324" value="" style="edgeStyle=segmentEdgeStyle;endArrow=classic;html=1;strokeColor=#82b366;strokeWidth=2;fillColor=#d5e8d4;" parent="1" edge="1">
          <mxGeometry width="50" height="50" relative="1" as="geometry">
            <mxPoint x="1106" y="5783" as="sourcePoint" />
            <mxPoint x="1351" y="5621" as="targetPoint" />
            <Array as="points">
              <mxPoint x="1106" y="5621" />
              <mxPoint x="1351" y="5621" />
            </Array>
          </mxGeometry>
        </mxCell>
        <mxCell id="SUnMmAHehi4IOB_Qr8HH-325" value="" style="endArrow=classic;html=1;strokeColor=#82b366;strokeWidth=2;exitX=1;exitY=0.529;exitDx=0;exitDy=0;exitPerimeter=0;entryX=-0.046;entryY=0.861;entryDx=0;entryDy=0;entryPerimeter=0;fillColor=#d5e8d4;" parent="1" source="SUnMmAHehi4IOB_Qr8HH-317" target="SUnMmAHehi4IOB_Qr8HH-321" edge="1">
          <mxGeometry width="50" height="50" relative="1" as="geometry">
            <mxPoint x="1198" y="5848" as="sourcePoint" />
            <mxPoint x="1248" y="5798" as="targetPoint" />
          </mxGeometry>
        </mxCell>
        <mxCell id="SUnMmAHehi4IOB_Qr8HH-326" value="" style="edgeStyle=segmentEdgeStyle;endArrow=classic;html=1;strokeColor=#82b366;strokeWidth=2;fillColor=#d5e8d4;" parent="1" edge="1">
          <mxGeometry width="50" height="50" relative="1" as="geometry">
            <mxPoint x="1106" y="5784.999999999999" as="sourcePoint" />
            <mxPoint x="1355" y="5959.999999999999" as="targetPoint" />
            <Array as="points">
              <mxPoint x="1106" y="5960" />
              <mxPoint x="1355" y="5960" />
            </Array>
          </mxGeometry>
        </mxCell>
        <mxCell id="SUnMmAHehi4IOB_Qr8HH-327" value="&lt;font style=&quot;font-size: 18px&quot;&gt;clk&lt;/font&gt;" style="text;html=1;strokeColor=none;fillColor=none;align=center;verticalAlign=middle;whiteSpace=wrap;rounded=0;" parent="1" vertex="1">
          <mxGeometry x="1351" y="5610" width="40" height="20" as="geometry" />
        </mxCell>
        <mxCell id="SUnMmAHehi4IOB_Qr8HH-328" value="&lt;font style=&quot;font-size: 18px&quot;&gt;clk&lt;/font&gt;" style="text;html=1;strokeColor=none;fillColor=none;align=center;verticalAlign=middle;whiteSpace=wrap;rounded=0;" parent="1" vertex="1">
          <mxGeometry x="1354" y="5775" width="40" height="20" as="geometry" />
        </mxCell>
        <mxCell id="SUnMmAHehi4IOB_Qr8HH-329" value="&lt;font style=&quot;font-size: 18px&quot;&gt;clk&lt;/font&gt;" style="text;html=1;strokeColor=none;fillColor=none;align=center;verticalAlign=middle;whiteSpace=wrap;rounded=0;" parent="1" vertex="1">
          <mxGeometry x="1354" y="5946" width="40" height="20" as="geometry" />
        </mxCell>
        <mxCell id="SUnMmAHehi4IOB_Qr8HH-330" value="&lt;font style=&quot;font-size: 18px&quot;&gt;en&lt;/font&gt;" style="text;html=1;strokeColor=none;fillColor=none;align=center;verticalAlign=middle;whiteSpace=wrap;rounded=0;" parent="1" vertex="1">
          <mxGeometry x="889" y="5677" width="40" height="20" as="geometry" />
        </mxCell>
        <mxCell id="SUnMmAHehi4IOB_Qr8HH-331" value="" style="endArrow=classic;html=1;strokeWidth=2;entryX=0;entryY=0.5;entryDx=0;entryDy=0;strokeColor=#FF3333;" parent="1" target="SUnMmAHehi4IOB_Qr8HH-330" edge="1">
          <mxGeometry width="50" height="50" relative="1" as="geometry">
            <mxPoint x="719" y="5687" as="sourcePoint" />
            <mxPoint x="606" y="5654" as="targetPoint" />
          </mxGeometry>
        </mxCell>
        <mxCell id="SUnMmAHehi4IOB_Qr8HH-332" value="" style="endArrow=classic;html=1;entryX=0;entryY=0.5;entryDx=0;entryDy=0;strokeWidth=2;strokeColor=#FF3333;exitX=1;exitY=0.5;exitDx=0;exitDy=0;" parent="1" source="SUnMmAHehi4IOB_Qr8HH-390" target="SUnMmAHehi4IOB_Qr8HH-353" edge="1">
          <mxGeometry width="50" height="50" relative="1" as="geometry">
            <mxPoint x="591.5" y="4974.999999999999" as="sourcePoint" />
            <mxPoint x="665.5" y="4975" as="targetPoint" />
          </mxGeometry>
        </mxCell>
        <mxCell id="SUnMmAHehi4IOB_Qr8HH-333" value="" style="shape=table;startSize=0;container=1;collapsible=0;childLayout=tableLayout;strokeWidth=2;" parent="1" vertex="1">
          <mxGeometry x="840.5" y="4934" width="133" height="83" as="geometry" />
        </mxCell>
        <mxCell id="SUnMmAHehi4IOB_Qr8HH-334" value="" style="shape=partialRectangle;collapsible=0;dropTarget=0;pointerEvents=0;fillColor=none;top=0;left=0;bottom=0;right=0;points=[[0,0.5],[1,0.5]];portConstraint=eastwest;" parent="SUnMmAHehi4IOB_Qr8HH-333" vertex="1">
          <mxGeometry width="133" height="10" as="geometry" />
        </mxCell>
        <mxCell id="SUnMmAHehi4IOB_Qr8HH-335" value="" style="shape=partialRectangle;html=1;whiteSpace=wrap;connectable=0;overflow=hidden;fillColor=none;top=0;left=0;bottom=0;right=0;" parent="SUnMmAHehi4IOB_Qr8HH-334" vertex="1">
          <mxGeometry width="133" height="10" as="geometry" />
        </mxCell>
        <mxCell id="SUnMmAHehi4IOB_Qr8HH-336" value="" style="shape=partialRectangle;collapsible=0;dropTarget=0;pointerEvents=0;fillColor=none;top=0;left=0;bottom=0;right=0;points=[[0,0.5],[1,0.5]];portConstraint=eastwest;" parent="SUnMmAHehi4IOB_Qr8HH-333" vertex="1">
          <mxGeometry y="10" width="133" height="11" as="geometry" />
        </mxCell>
        <mxCell id="SUnMmAHehi4IOB_Qr8HH-337" value="" style="shape=partialRectangle;html=1;whiteSpace=wrap;connectable=0;overflow=hidden;fillColor=none;top=0;left=0;bottom=0;right=0;" parent="SUnMmAHehi4IOB_Qr8HH-336" vertex="1">
          <mxGeometry width="133" height="11" as="geometry" />
        </mxCell>
        <mxCell id="SUnMmAHehi4IOB_Qr8HH-338" value="" style="shape=partialRectangle;collapsible=0;dropTarget=0;pointerEvents=0;fillColor=none;top=0;left=0;bottom=0;right=0;points=[[0,0.5],[1,0.5]];portConstraint=eastwest;" parent="SUnMmAHehi4IOB_Qr8HH-333" vertex="1">
          <mxGeometry y="21" width="133" height="10" as="geometry" />
        </mxCell>
        <mxCell id="SUnMmAHehi4IOB_Qr8HH-339" value="" style="shape=partialRectangle;html=1;whiteSpace=wrap;connectable=0;overflow=hidden;fillColor=none;top=0;left=0;bottom=0;right=0;" parent="SUnMmAHehi4IOB_Qr8HH-338" vertex="1">
          <mxGeometry width="133" height="10" as="geometry" />
        </mxCell>
        <mxCell id="SUnMmAHehi4IOB_Qr8HH-340" value="" style="shape=partialRectangle;collapsible=0;dropTarget=0;pointerEvents=0;fillColor=none;top=0;left=0;bottom=0;right=0;points=[[0,0.5],[1,0.5]];portConstraint=eastwest;" parent="SUnMmAHehi4IOB_Qr8HH-333" vertex="1">
          <mxGeometry y="31" width="133" height="11" as="geometry" />
        </mxCell>
        <mxCell id="SUnMmAHehi4IOB_Qr8HH-341" value="" style="shape=partialRectangle;html=1;whiteSpace=wrap;connectable=0;overflow=hidden;fillColor=none;top=0;left=0;bottom=0;right=0;" parent="SUnMmAHehi4IOB_Qr8HH-340" vertex="1">
          <mxGeometry width="133" height="11" as="geometry" />
        </mxCell>
        <mxCell id="SUnMmAHehi4IOB_Qr8HH-342" value="" style="shape=partialRectangle;collapsible=0;dropTarget=0;pointerEvents=0;fillColor=none;top=0;left=0;bottom=0;right=0;points=[[0,0.5],[1,0.5]];portConstraint=eastwest;" parent="SUnMmAHehi4IOB_Qr8HH-333" vertex="1">
          <mxGeometry y="42" width="133" height="10" as="geometry" />
        </mxCell>
        <mxCell id="SUnMmAHehi4IOB_Qr8HH-343" value="" style="shape=partialRectangle;html=1;whiteSpace=wrap;connectable=0;overflow=hidden;fillColor=none;top=0;left=0;bottom=0;right=0;" parent="SUnMmAHehi4IOB_Qr8HH-342" vertex="1">
          <mxGeometry width="133" height="10" as="geometry" />
        </mxCell>
        <mxCell id="SUnMmAHehi4IOB_Qr8HH-344" value="" style="shape=partialRectangle;collapsible=0;dropTarget=0;pointerEvents=0;fillColor=none;top=0;left=0;bottom=0;right=0;points=[[0,0.5],[1,0.5]];portConstraint=eastwest;" parent="SUnMmAHehi4IOB_Qr8HH-333" vertex="1">
          <mxGeometry y="52" width="133" height="10" as="geometry" />
        </mxCell>
        <mxCell id="SUnMmAHehi4IOB_Qr8HH-345" value="" style="shape=partialRectangle;html=1;whiteSpace=wrap;connectable=0;overflow=hidden;fillColor=none;top=0;left=0;bottom=0;right=0;" parent="SUnMmAHehi4IOB_Qr8HH-344" vertex="1">
          <mxGeometry width="133" height="10" as="geometry" />
        </mxCell>
        <mxCell id="SUnMmAHehi4IOB_Qr8HH-346" value="" style="shape=partialRectangle;collapsible=0;dropTarget=0;pointerEvents=0;fillColor=none;top=0;left=0;bottom=0;right=0;points=[[0,0.5],[1,0.5]];portConstraint=eastwest;" parent="SUnMmAHehi4IOB_Qr8HH-333" vertex="1">
          <mxGeometry y="62" width="133" height="11" as="geometry" />
        </mxCell>
        <mxCell id="SUnMmAHehi4IOB_Qr8HH-347" value="" style="shape=partialRectangle;html=1;whiteSpace=wrap;connectable=0;overflow=hidden;fillColor=none;top=0;left=0;bottom=0;right=0;" parent="SUnMmAHehi4IOB_Qr8HH-346" vertex="1">
          <mxGeometry width="133" height="11" as="geometry" />
        </mxCell>
        <mxCell id="SUnMmAHehi4IOB_Qr8HH-348" value="" style="shape=partialRectangle;collapsible=0;dropTarget=0;pointerEvents=0;fillColor=none;top=0;left=0;bottom=0;right=0;points=[[0,0.5],[1,0.5]];portConstraint=eastwest;" parent="SUnMmAHehi4IOB_Qr8HH-333" vertex="1">
          <mxGeometry y="73" width="133" height="10" as="geometry" />
        </mxCell>
        <mxCell id="SUnMmAHehi4IOB_Qr8HH-349" value="" style="shape=partialRectangle;html=1;whiteSpace=wrap;connectable=0;overflow=hidden;fillColor=none;top=0;left=0;bottom=0;right=0;" parent="SUnMmAHehi4IOB_Qr8HH-348" vertex="1">
          <mxGeometry width="133" height="10" as="geometry" />
        </mxCell>
        <mxCell id="SUnMmAHehi4IOB_Qr8HH-350" value="" style="shape=curlyBracket;whiteSpace=wrap;html=1;rounded=1;strokeColor=#000000;strokeWidth=2;" parent="1" vertex="1">
          <mxGeometry x="812.5" y="4933" width="20" height="84" as="geometry" />
        </mxCell>
        <mxCell id="SUnMmAHehi4IOB_Qr8HH-351" style="edgeStyle=orthogonalEdgeStyle;rounded=0;orthogonalLoop=1;jettySize=auto;html=1;entryX=0.5;entryY=1;entryDx=0;entryDy=0;strokeWidth=2;strokeColor=#330000;" parent="1" target="SUnMmAHehi4IOB_Qr8HH-353" edge="1">
          <mxGeometry relative="1" as="geometry">
            <mxPoint x="621.5" y="5140.5" as="sourcePoint" />
          </mxGeometry>
        </mxCell>
        <mxCell id="SUnMmAHehi4IOB_Qr8HH-352" style="edgeStyle=orthogonalEdgeStyle;rounded=0;orthogonalLoop=1;jettySize=auto;html=1;entryX=0.1;entryY=0.5;entryDx=0;entryDy=0;entryPerimeter=0;strokeWidth=2;strokeColor=#FF3333;exitX=1;exitY=0.5;exitDx=0;exitDy=0;" parent="1" source="SUnMmAHehi4IOB_Qr8HH-353" target="SUnMmAHehi4IOB_Qr8HH-350" edge="1">
          <mxGeometry relative="1" as="geometry">
            <mxPoint x="775.5" y="4975" as="sourcePoint" />
          </mxGeometry>
        </mxCell>
        <mxCell id="SUnMmAHehi4IOB_Qr8HH-353" value="&lt;font style=&quot;font-size: 24px&quot;&gt;hit check&lt;/font&gt;" style="ellipse;whiteSpace=wrap;html=1;aspect=fixed;strokeColor=#000000;strokeWidth=2;" parent="1" vertex="1">
          <mxGeometry x="680.5" y="4935.5" width="80" height="80" as="geometry" />
        </mxCell>
        <mxCell id="SUnMmAHehi4IOB_Qr8HH-354" value="" style="edgeStyle=elbowEdgeStyle;elbow=horizontal;endArrow=classic;html=1;strokeColor=#330000;strokeWidth=2;exitX=0.444;exitY=0;exitDx=0;exitDy=0;exitPerimeter=0;entryX=0.5;entryY=0;entryDx=0;entryDy=0;" parent="1" source="SUnMmAHehi4IOB_Qr8HH-334" target="SUnMmAHehi4IOB_Qr8HH-353" edge="1">
          <mxGeometry width="50" height="50" relative="1" as="geometry">
            <mxPoint x="879.5" y="4907" as="sourcePoint" />
            <mxPoint x="929.5" y="4857" as="targetPoint" />
            <Array as="points">
              <mxPoint x="792.5" y="4887" />
            </Array>
          </mxGeometry>
        </mxCell>
        <mxCell id="SUnMmAHehi4IOB_Qr8HH-356" value="&lt;font style=&quot;font-size: 24px&quot;&gt;...&lt;/font&gt;" style="ellipse;shape=cloud;whiteSpace=wrap;html=1;strokeColor=#000000;strokeWidth=2;" parent="1" vertex="1">
          <mxGeometry x="504.5" y="5104" width="117" height="73" as="geometry" />
        </mxCell>
        <mxCell id="SUnMmAHehi4IOB_Qr8HH-357" value="&lt;font style=&quot;font-size: 24px&quot;&gt;TLB&lt;/font&gt;" style="text;html=1;strokeColor=none;fillColor=none;align=center;verticalAlign=middle;whiteSpace=wrap;rounded=0;" parent="1" vertex="1">
          <mxGeometry x="883.5" y="5032" width="40" height="20" as="geometry" />
        </mxCell>
        <mxCell id="SUnMmAHehi4IOB_Qr8HH-358" value="" style="endArrow=classic;html=1;strokeColor=#330000;strokeWidth=2;exitX=1;exitY=1;exitDx=0;exitDy=0;entryX=0;entryY=0;entryDx=0;entryDy=0;" parent="1" source="SUnMmAHehi4IOB_Qr8HH-353" target="SUnMmAHehi4IOB_Qr8HH-366" edge="1">
          <mxGeometry width="50" height="50" relative="1" as="geometry">
            <mxPoint x="884.5" y="5159" as="sourcePoint" />
            <mxPoint x="859.5" y="5076" as="targetPoint" />
          </mxGeometry>
        </mxCell>
        <mxCell id="SUnMmAHehi4IOB_Qr8HH-359" value="&lt;font style=&quot;font-size: 24px&quot;&gt;hit or not&lt;/font&gt;" style="edgeLabel;html=1;align=center;verticalAlign=middle;resizable=0;points=[];" parent="SUnMmAHehi4IOB_Qr8HH-358" vertex="1" connectable="0">
          <mxGeometry x="-0.2453" y="-3" relative="1" as="geometry">
            <mxPoint x="7" y="7" as="offset" />
          </mxGeometry>
        </mxCell>
        <mxCell id="SUnMmAHehi4IOB_Qr8HH-360" style="edgeStyle=orthogonalEdgeStyle;rounded=0;orthogonalLoop=1;jettySize=auto;html=1;entryX=0.5;entryY=1;entryDx=0;entryDy=0;strokeColor=#330000;strokeWidth=2;" parent="1" source="SUnMmAHehi4IOB_Qr8HH-361" target="SUnMmAHehi4IOB_Qr8HH-366" edge="1">
          <mxGeometry relative="1" as="geometry" />
        </mxCell>
        <mxCell id="SUnMmAHehi4IOB_Qr8HH-361" value="&lt;font style=&quot;font-size: 24px&quot;&gt;...&lt;/font&gt;" style="ellipse;shape=cloud;whiteSpace=wrap;html=1;strokeColor=#000000;strokeWidth=2;" parent="1" vertex="1">
          <mxGeometry x="716.5" y="5241" width="117" height="73" as="geometry" />
        </mxCell>
        <mxCell id="SUnMmAHehi4IOB_Qr8HH-362" style="edgeStyle=orthogonalEdgeStyle;rounded=0;orthogonalLoop=1;jettySize=auto;html=1;exitX=1;exitY=1;exitDx=0;exitDy=0;entryX=0;entryY=1;entryDx=0;entryDy=0;strokeWidth=2;strokeColor=#FF3333;" parent="1" source="SUnMmAHehi4IOB_Qr8HH-366" target="SUnMmAHehi4IOB_Qr8HH-378" edge="1">
          <mxGeometry relative="1" as="geometry">
            <Array as="points">
              <mxPoint x="956.5" y="5283" />
            </Array>
          </mxGeometry>
        </mxCell>
        <mxCell id="SUnMmAHehi4IOB_Qr8HH-363" value="&lt;font style=&quot;font-size: 24px&quot;&gt;enable&lt;/font&gt;" style="edgeLabel;html=1;align=center;verticalAlign=middle;resizable=0;points=[];" parent="SUnMmAHehi4IOB_Qr8HH-362" vertex="1" connectable="0">
          <mxGeometry x="0.2804" y="4" relative="1" as="geometry">
            <mxPoint as="offset" />
          </mxGeometry>
        </mxCell>
        <mxCell id="SUnMmAHehi4IOB_Qr8HH-364" style="edgeStyle=orthogonalEdgeStyle;rounded=0;orthogonalLoop=1;jettySize=auto;html=1;exitX=1;exitY=1;exitDx=0;exitDy=0;entryX=0;entryY=0;entryDx=0;entryDy=0;strokeColor=#330000;strokeWidth=2;" parent="1" source="SUnMmAHehi4IOB_Qr8HH-366" target="SUnMmAHehi4IOB_Qr8HH-378" edge="1">
          <mxGeometry relative="1" as="geometry" />
        </mxCell>
        <mxCell id="SUnMmAHehi4IOB_Qr8HH-365" value="&lt;font style=&quot;font-size: 24px&quot;&gt;state(next)&lt;/font&gt;" style="edgeLabel;html=1;align=center;verticalAlign=middle;resizable=0;points=[];" parent="SUnMmAHehi4IOB_Qr8HH-364" vertex="1" connectable="0">
          <mxGeometry x="-0.0383" y="3" relative="1" as="geometry">
            <mxPoint as="offset" />
          </mxGeometry>
        </mxCell>
        <mxCell id="SUnMmAHehi4IOB_Qr8HH-366" value="&lt;font style=&quot;font-size: 24px&quot;&gt;state transfer&lt;br&gt;logic&lt;br&gt;&lt;/font&gt;" style="ellipse;whiteSpace=wrap;html=1;aspect=fixed;strokeColor=#000000;strokeWidth=2;" parent="1" vertex="1">
          <mxGeometry x="879.5" y="5094" width="90" height="90" as="geometry" />
        </mxCell>
        <mxCell id="SUnMmAHehi4IOB_Qr8HH-367" value="" style="shape=table;startSize=0;container=1;collapsible=0;childLayout=tableLayout;strokeWidth=2;" parent="1" vertex="1">
          <mxGeometry x="1097.5" y="4967" width="110" height="12" as="geometry" />
        </mxCell>
        <mxCell id="SUnMmAHehi4IOB_Qr8HH-368" value="" style="shape=partialRectangle;collapsible=0;dropTarget=0;pointerEvents=0;fillColor=none;top=0;left=0;bottom=0;right=0;points=[[0,0.5],[1,0.5]];portConstraint=eastwest;" parent="SUnMmAHehi4IOB_Qr8HH-367" vertex="1">
          <mxGeometry width="110" height="12" as="geometry" />
        </mxCell>
        <mxCell id="SUnMmAHehi4IOB_Qr8HH-369" value="" style="shape=partialRectangle;html=1;whiteSpace=wrap;connectable=0;overflow=hidden;fillColor=none;top=0;left=0;bottom=0;right=0;" parent="SUnMmAHehi4IOB_Qr8HH-368" vertex="1">
          <mxGeometry width="110" height="12" as="geometry" />
        </mxCell>
        <mxCell id="SUnMmAHehi4IOB_Qr8HH-370" value="" style="endArrow=classic;html=1;exitX=1;exitY=0.5;exitDx=0;exitDy=0;entryX=0;entryY=0.5;entryDx=0;entryDy=0;strokeWidth=2;strokeColor=#FF3333;" parent="1" target="SUnMmAHehi4IOB_Qr8HH-368" edge="1">
          <mxGeometry width="50" height="50" relative="1" as="geometry">
            <mxPoint x="973.5" y="4973.5" as="sourcePoint" />
            <mxPoint x="1176.5" y="5024" as="targetPoint" />
          </mxGeometry>
        </mxCell>
        <mxCell id="SUnMmAHehi4IOB_Qr8HH-371" value="&lt;font style=&quot;font-size: 24px&quot;&gt;fetch&lt;/font&gt;" style="edgeLabel;html=1;align=center;verticalAlign=middle;resizable=0;points=[];" parent="SUnMmAHehi4IOB_Qr8HH-370" vertex="1" connectable="0">
          <mxGeometry x="-0.2744" y="-3" relative="1" as="geometry">
            <mxPoint x="17" y="-24" as="offset" />
          </mxGeometry>
        </mxCell>
        <mxCell id="SUnMmAHehi4IOB_Qr8HH-372" style="edgeStyle=orthogonalEdgeStyle;rounded=0;orthogonalLoop=1;jettySize=auto;html=1;exitX=0;exitY=0.5;exitDx=0;exitDy=0;strokeWidth=2;entryX=0.5;entryY=0;entryDx=0;entryDy=0;strokeColor=#FF3333;" parent="1" source="SUnMmAHehi4IOB_Qr8HH-373" target="SUnMmAHehi4IOB_Qr8HH-366" edge="1">
          <mxGeometry relative="1" as="geometry" />
        </mxCell>
        <mxCell id="SUnMmAHehi4IOB_Qr8HH-373" value="&lt;font style=&quot;font-size: 24px&quot;&gt;A/D check&lt;/font&gt;" style="ellipse;whiteSpace=wrap;html=1;aspect=fixed;strokeColor=#000000;strokeWidth=2;" parent="1" vertex="1">
          <mxGeometry x="1112.5" y="5024" width="80" height="80" as="geometry" />
        </mxCell>
        <mxCell id="SUnMmAHehi4IOB_Qr8HH-374" value="" style="edgeStyle=elbowEdgeStyle;elbow=vertical;endArrow=classic;html=1;strokeWidth=2;strokeColor=#FF3333;entryX=0.5;entryY=0;entryDx=0;entryDy=0;exitX=0.5;exitY=1;exitDx=0;exitDy=0;exitPerimeter=0;" parent="1" source="SUnMmAHehi4IOB_Qr8HH-368" target="SUnMmAHehi4IOB_Qr8HH-373" edge="1">
          <mxGeometry width="50" height="50" relative="1" as="geometry">
            <mxPoint x="1024.5" y="4973" as="sourcePoint" />
            <mxPoint x="1089.5" y="5053" as="targetPoint" />
            <Array as="points">
              <mxPoint x="1119.5" y="4999" />
              <mxPoint x="1146.5" y="4896" />
            </Array>
          </mxGeometry>
        </mxCell>
        <mxCell id="SUnMmAHehi4IOB_Qr8HH-375" value="&lt;span style=&quot;font-size: 24px&quot;&gt;hit entry&lt;/span&gt;" style="text;html=1;strokeColor=none;fillColor=none;align=center;verticalAlign=middle;whiteSpace=wrap;rounded=0;" parent="1" vertex="1">
          <mxGeometry x="1104.5" y="4931" width="101" height="26" as="geometry" />
        </mxCell>
        <mxCell id="SUnMmAHehi4IOB_Qr8HH-376" style="edgeStyle=orthogonalEdgeStyle;rounded=0;orthogonalLoop=1;jettySize=auto;html=1;exitX=0.5;exitY=0;exitDx=0;exitDy=0;entryX=1;entryY=0.411;entryDx=0;entryDy=0;entryPerimeter=0;strokeColor=#330000;strokeWidth=2;" parent="1" source="SUnMmAHehi4IOB_Qr8HH-378" target="SUnMmAHehi4IOB_Qr8HH-366" edge="1">
          <mxGeometry relative="1" as="geometry" />
        </mxCell>
        <mxCell id="SUnMmAHehi4IOB_Qr8HH-377" value="&lt;font style=&quot;font-size: 24px&quot;&gt;state(now)&lt;/font&gt;" style="edgeLabel;html=1;align=center;verticalAlign=middle;resizable=0;points=[];" parent="SUnMmAHehi4IOB_Qr8HH-376" vertex="1" connectable="0">
          <mxGeometry x="-0.0672" y="-5" relative="1" as="geometry">
            <mxPoint x="-69" y="4" as="offset" />
          </mxGeometry>
        </mxCell>
        <mxCell id="SUnMmAHehi4IOB_Qr8HH-378" value="&lt;font style=&quot;font-size: 24px&quot;&gt;PTW&#39;s state&lt;/font&gt;" style="ellipse;whiteSpace=wrap;html=1;strokeColor=#000000;strokeWidth=2;" parent="1" vertex="1">
          <mxGeometry x="1361.5" y="5215" width="120" height="80" as="geometry" />
        </mxCell>
        <mxCell id="SUnMmAHehi4IOB_Qr8HH-379" value="&lt;font style=&quot;font-size: 18px&quot;&gt;write back A/D？&lt;/font&gt;" style="edgeLabel;html=1;align=center;verticalAlign=middle;resizable=0;points=[];" parent="1" vertex="1" connectable="0">
          <mxGeometry x="1030.5" y="5046" as="geometry" />
        </mxCell>
        <mxCell id="SUnMmAHehi4IOB_Qr8HH-380" value="&lt;font style=&quot;font-size: 24px&quot;&gt;enable&lt;/font&gt;" style="text;html=1;strokeColor=none;fillColor=none;align=center;verticalAlign=middle;whiteSpace=wrap;rounded=0;" parent="1" vertex="1">
          <mxGeometry x="653" y="5677" width="40" height="20" as="geometry" />
        </mxCell>
        <mxCell id="SUnMmAHehi4IOB_Qr8HH-381" value="&lt;font style=&quot;font-size: 24px&quot;&gt;state(next)&lt;/font&gt;" style="text;html=1;strokeColor=none;fillColor=none;align=center;verticalAlign=middle;whiteSpace=wrap;rounded=0;" parent="1" vertex="1">
          <mxGeometry x="600" y="5478" width="152" height="20" as="geometry" />
        </mxCell>
        <mxCell id="SUnMmAHehi4IOB_Qr8HH-382" value="&lt;font style=&quot;font-size: 24px&quot;&gt;state(now)&lt;/font&gt;" style="text;html=1;strokeColor=none;fillColor=none;align=center;verticalAlign=middle;whiteSpace=wrap;rounded=0;" parent="1" vertex="1">
          <mxGeometry x="1586" y="5686" width="175" height="20" as="geometry" />
        </mxCell>
        <mxCell id="SUnMmAHehi4IOB_Qr8HH-383" value="" style="endArrow=none;html=1;strokeColor=#6c8ebf;strokeWidth=2;exitX=0.901;exitY=0.8;exitDx=0;exitDy=0;exitPerimeter=0;fillColor=#dae8fc;" parent="1" source="SUnMmAHehi4IOB_Qr8HH-381" edge="1">
          <mxGeometry width="50" height="50" relative="1" as="geometry">
            <mxPoint x="867" y="5511" as="sourcePoint" />
            <mxPoint x="1024" y="5494" as="targetPoint" />
          </mxGeometry>
        </mxCell>
        <mxCell id="SUnMmAHehi4IOB_Qr8HH-384" value="" style="edgeStyle=segmentEdgeStyle;endArrow=classic;html=1;strokeColor=#6c8ebf;strokeWidth=2;fillColor=#dae8fc;" parent="1" edge="1">
          <mxGeometry width="50" height="50" relative="1" as="geometry">
            <mxPoint x="1160" y="5674" as="sourcePoint" />
            <mxPoint x="1352" y="5512" as="targetPoint" />
            <Array as="points">
              <mxPoint x="1160" y="5674" />
              <mxPoint x="1160" y="5512" />
            </Array>
          </mxGeometry>
        </mxCell>
        <mxCell id="SUnMmAHehi4IOB_Qr8HH-385" value="" style="endArrow=classic;html=1;strokeColor=#6c8ebf;strokeWidth=2;entryX=-0.046;entryY=0.861;entryDx=0;entryDy=0;entryPerimeter=0;fillColor=#dae8fc;" parent="1" edge="1">
          <mxGeometry width="50" height="50" relative="1" as="geometry">
            <mxPoint x="1017" y="5676" as="sourcePoint" />
            <mxPoint x="1353.0100000000002" y="5675.984" as="targetPoint" />
          </mxGeometry>
        </mxCell>
        <mxCell id="SUnMmAHehi4IOB_Qr8HH-386" value="" style="edgeStyle=segmentEdgeStyle;endArrow=classic;html=1;strokeColor=#6c8ebf;strokeWidth=2;fillColor=#dae8fc;" parent="1" edge="1">
          <mxGeometry width="50" height="50" relative="1" as="geometry">
            <mxPoint x="1161" y="5676" as="sourcePoint" />
            <mxPoint x="1356" y="5851" as="targetPoint" />
            <Array as="points">
              <mxPoint x="1161" y="5676" />
              <mxPoint x="1161" y="5851" />
            </Array>
          </mxGeometry>
        </mxCell>
        <mxCell id="SUnMmAHehi4IOB_Qr8HH-387" value="" style="endArrow=none;html=1;strokeColor=#6c8ebf;strokeWidth=2;fillColor=#dae8fc;" parent="1" edge="1">
          <mxGeometry width="50" height="50" relative="1" as="geometry">
            <mxPoint x="1021" y="5679.999999999999" as="sourcePoint" />
            <mxPoint x="1021" y="5494" as="targetPoint" />
          </mxGeometry>
        </mxCell>
        <mxCell id="SUnMmAHehi4IOB_Qr8HH-388" value="" style="endArrow=none;html=1;strokeWidth=2;entryX=0;entryY=1;entryDx=0;entryDy=0;dashed=1;strokeColor=#3333FF;" parent="1" target="SUnMmAHehi4IOB_Qr8HH-315" edge="1">
          <mxGeometry width="50" height="50" relative="1" as="geometry">
            <mxPoint x="624" y="5474" as="sourcePoint" />
            <mxPoint x="1066" y="5298" as="targetPoint" />
          </mxGeometry>
        </mxCell>
        <mxCell id="SUnMmAHehi4IOB_Qr8HH-389" value="" style="endArrow=none;html=1;dashed=1;strokeWidth=2;entryX=1;entryY=1;entryDx=0;entryDy=0;strokeColor=#3333FF;" parent="1" target="SUnMmAHehi4IOB_Qr8HH-315" edge="1">
          <mxGeometry width="50" height="50" relative="1" as="geometry">
            <mxPoint x="1771" y="5699.999999999999" as="sourcePoint" />
            <mxPoint x="1654" y="5365" as="targetPoint" />
          </mxGeometry>
        </mxCell>
        <mxCell id="SUnMmAHehi4IOB_Qr8HH-390" value="&lt;div class=&quot;lake-content&quot;&gt;&lt;i&gt;&lt;font style=&quot;font-size: 24px&quot;&gt;satp&lt;/font&gt;&lt;/i&gt;&lt;/div&gt;" style="text;whiteSpace=wrap;html=1;strokeWidth=2;align=center;" parent="1" vertex="1">
          <mxGeometry x="381" y="4954.5" width="68" height="42" as="geometry" />
        </mxCell>
        <mxCell id="Ww1nCT65mCDDprMEdBzV-1" value="" style="rounded=0;whiteSpace=wrap;html=1;strokeColor=#000000;strokeWidth=2;" vertex="1" parent="1">
          <mxGeometry x="314" y="2642" width="1151" height="537" as="geometry" />
        </mxCell>
        <mxCell id="Ww1nCT65mCDDprMEdBzV-2" style="edgeStyle=orthogonalEdgeStyle;rounded=0;orthogonalLoop=1;jettySize=auto;html=1;exitX=0.5;exitY=0;exitDx=0;exitDy=0;entryX=0;entryY=0.5;entryDx=0;entryDy=0;strokeWidth=2;strokeColor=#FF3333;" edge="1" parent="1" source="Ww1nCT65mCDDprMEdBzV-3" target="Ww1nCT65mCDDprMEdBzV-5">
          <mxGeometry relative="1" as="geometry" />
        </mxCell>
        <mxCell id="Ww1nCT65mCDDprMEdBzV-3" value="&lt;font style=&quot;font-size: 24px&quot;&gt;MUX&lt;/font&gt;" style="shape=trapezoid;perimeter=trapezoidPerimeter;whiteSpace=wrap;html=1;fixedSize=1;rotation=90;fillColor=#d5e8d4;strokeColor=#82b366;" vertex="1" parent="1">
          <mxGeometry x="1245.5" y="2851" width="236" height="88" as="geometry" />
        </mxCell>
        <mxCell id="Ww1nCT65mCDDprMEdBzV-4" value="&lt;div class=&quot;lake-content&quot;&gt;&lt;i&gt;&lt;font style=&quot;font-size: 24px&quot;&gt;satp&lt;/font&gt;&lt;/i&gt;&lt;/div&gt;" style="text;whiteSpace=wrap;html=1;strokeWidth=2;align=center;" vertex="1" parent="1">
          <mxGeometry x="210" y="2782" width="68" height="42" as="geometry" />
        </mxCell>
        <mxCell id="Ww1nCT65mCDDprMEdBzV-5" value="&lt;div class=&quot;lake-content&quot;&gt;&lt;em&gt;&lt;span class=&quot;ne-text&quot;&gt;&lt;font style=&quot;font-size: 24px&quot;&gt;io_mem_req_bits_wdata&lt;/font&gt;&lt;/span&gt;&lt;/em&gt;&lt;/div&gt;" style="text;whiteSpace=wrap;html=1;strokeWidth=2;align=center;" vertex="1" parent="1">
          <mxGeometry x="1519" y="2874.5" width="257" height="41" as="geometry" />
        </mxCell>
        <mxCell id="Ww1nCT65mCDDprMEdBzV-6" value="" style="endArrow=classic;html=1;entryX=0;entryY=0.5;entryDx=0;entryDy=0;strokeWidth=2;strokeColor=#FF3333;" edge="1" parent="1" source="Ww1nCT65mCDDprMEdBzV-4" target="Ww1nCT65mCDDprMEdBzV-45">
          <mxGeometry width="50" height="50" relative="1" as="geometry">
            <mxPoint x="206" y="2919" as="sourcePoint" />
            <mxPoint x="339" y="2803" as="targetPoint" />
          </mxGeometry>
        </mxCell>
        <mxCell id="Ww1nCT65mCDDprMEdBzV-7" value="" style="shape=table;startSize=0;container=1;collapsible=0;childLayout=tableLayout;strokeWidth=2;" vertex="1" parent="1">
          <mxGeometry x="514" y="2762" width="133" height="83" as="geometry" />
        </mxCell>
        <mxCell id="Ww1nCT65mCDDprMEdBzV-8" value="" style="shape=partialRectangle;collapsible=0;dropTarget=0;pointerEvents=0;fillColor=none;top=0;left=0;bottom=0;right=0;points=[[0,0.5],[1,0.5]];portConstraint=eastwest;" vertex="1" parent="Ww1nCT65mCDDprMEdBzV-7">
          <mxGeometry width="133" height="10" as="geometry" />
        </mxCell>
        <mxCell id="Ww1nCT65mCDDprMEdBzV-9" value="" style="shape=partialRectangle;html=1;whiteSpace=wrap;connectable=0;overflow=hidden;fillColor=none;top=0;left=0;bottom=0;right=0;" vertex="1" parent="Ww1nCT65mCDDprMEdBzV-8">
          <mxGeometry width="133" height="10" as="geometry" />
        </mxCell>
        <mxCell id="Ww1nCT65mCDDprMEdBzV-10" value="" style="shape=partialRectangle;collapsible=0;dropTarget=0;pointerEvents=0;fillColor=none;top=0;left=0;bottom=0;right=0;points=[[0,0.5],[1,0.5]];portConstraint=eastwest;" vertex="1" parent="Ww1nCT65mCDDprMEdBzV-7">
          <mxGeometry y="10" width="133" height="11" as="geometry" />
        </mxCell>
        <mxCell id="Ww1nCT65mCDDprMEdBzV-11" value="" style="shape=partialRectangle;html=1;whiteSpace=wrap;connectable=0;overflow=hidden;fillColor=none;top=0;left=0;bottom=0;right=0;" vertex="1" parent="Ww1nCT65mCDDprMEdBzV-10">
          <mxGeometry width="133" height="11" as="geometry" />
        </mxCell>
        <mxCell id="Ww1nCT65mCDDprMEdBzV-12" value="" style="shape=partialRectangle;collapsible=0;dropTarget=0;pointerEvents=0;fillColor=none;top=0;left=0;bottom=0;right=0;points=[[0,0.5],[1,0.5]];portConstraint=eastwest;" vertex="1" parent="Ww1nCT65mCDDprMEdBzV-7">
          <mxGeometry y="21" width="133" height="10" as="geometry" />
        </mxCell>
        <mxCell id="Ww1nCT65mCDDprMEdBzV-13" value="" style="shape=partialRectangle;html=1;whiteSpace=wrap;connectable=0;overflow=hidden;fillColor=none;top=0;left=0;bottom=0;right=0;" vertex="1" parent="Ww1nCT65mCDDprMEdBzV-12">
          <mxGeometry width="133" height="10" as="geometry" />
        </mxCell>
        <mxCell id="Ww1nCT65mCDDprMEdBzV-14" value="" style="shape=partialRectangle;collapsible=0;dropTarget=0;pointerEvents=0;fillColor=none;top=0;left=0;bottom=0;right=0;points=[[0,0.5],[1,0.5]];portConstraint=eastwest;" vertex="1" parent="Ww1nCT65mCDDprMEdBzV-7">
          <mxGeometry y="31" width="133" height="11" as="geometry" />
        </mxCell>
        <mxCell id="Ww1nCT65mCDDprMEdBzV-15" value="" style="shape=partialRectangle;html=1;whiteSpace=wrap;connectable=0;overflow=hidden;fillColor=none;top=0;left=0;bottom=0;right=0;" vertex="1" parent="Ww1nCT65mCDDprMEdBzV-14">
          <mxGeometry width="133" height="11" as="geometry" />
        </mxCell>
        <mxCell id="Ww1nCT65mCDDprMEdBzV-16" value="" style="shape=partialRectangle;collapsible=0;dropTarget=0;pointerEvents=0;fillColor=none;top=0;left=0;bottom=0;right=0;points=[[0,0.5],[1,0.5]];portConstraint=eastwest;" vertex="1" parent="Ww1nCT65mCDDprMEdBzV-7">
          <mxGeometry y="42" width="133" height="10" as="geometry" />
        </mxCell>
        <mxCell id="Ww1nCT65mCDDprMEdBzV-17" value="" style="shape=partialRectangle;html=1;whiteSpace=wrap;connectable=0;overflow=hidden;fillColor=none;top=0;left=0;bottom=0;right=0;" vertex="1" parent="Ww1nCT65mCDDprMEdBzV-16">
          <mxGeometry width="133" height="10" as="geometry" />
        </mxCell>
        <mxCell id="Ww1nCT65mCDDprMEdBzV-18" value="" style="shape=partialRectangle;collapsible=0;dropTarget=0;pointerEvents=0;fillColor=none;top=0;left=0;bottom=0;right=0;points=[[0,0.5],[1,0.5]];portConstraint=eastwest;" vertex="1" parent="Ww1nCT65mCDDprMEdBzV-7">
          <mxGeometry y="52" width="133" height="10" as="geometry" />
        </mxCell>
        <mxCell id="Ww1nCT65mCDDprMEdBzV-19" value="" style="shape=partialRectangle;html=1;whiteSpace=wrap;connectable=0;overflow=hidden;fillColor=none;top=0;left=0;bottom=0;right=0;" vertex="1" parent="Ww1nCT65mCDDprMEdBzV-18">
          <mxGeometry width="133" height="10" as="geometry" />
        </mxCell>
        <mxCell id="Ww1nCT65mCDDprMEdBzV-20" value="" style="shape=partialRectangle;collapsible=0;dropTarget=0;pointerEvents=0;fillColor=none;top=0;left=0;bottom=0;right=0;points=[[0,0.5],[1,0.5]];portConstraint=eastwest;" vertex="1" parent="Ww1nCT65mCDDprMEdBzV-7">
          <mxGeometry y="62" width="133" height="11" as="geometry" />
        </mxCell>
        <mxCell id="Ww1nCT65mCDDprMEdBzV-21" value="" style="shape=partialRectangle;html=1;whiteSpace=wrap;connectable=0;overflow=hidden;fillColor=none;top=0;left=0;bottom=0;right=0;" vertex="1" parent="Ww1nCT65mCDDprMEdBzV-20">
          <mxGeometry width="133" height="11" as="geometry" />
        </mxCell>
        <mxCell id="Ww1nCT65mCDDprMEdBzV-22" value="" style="shape=partialRectangle;collapsible=0;dropTarget=0;pointerEvents=0;fillColor=none;top=0;left=0;bottom=0;right=0;points=[[0,0.5],[1,0.5]];portConstraint=eastwest;" vertex="1" parent="Ww1nCT65mCDDprMEdBzV-7">
          <mxGeometry y="73" width="133" height="10" as="geometry" />
        </mxCell>
        <mxCell id="Ww1nCT65mCDDprMEdBzV-23" value="" style="shape=partialRectangle;html=1;whiteSpace=wrap;connectable=0;overflow=hidden;fillColor=none;top=0;left=0;bottom=0;right=0;" vertex="1" parent="Ww1nCT65mCDDprMEdBzV-22">
          <mxGeometry width="133" height="10" as="geometry" />
        </mxCell>
        <mxCell id="Ww1nCT65mCDDprMEdBzV-24" value="" style="shape=curlyBracket;whiteSpace=wrap;html=1;rounded=1;strokeColor=#000000;strokeWidth=2;" vertex="1" parent="1">
          <mxGeometry x="486" y="2761" width="20" height="84" as="geometry" />
        </mxCell>
        <mxCell id="Ww1nCT65mCDDprMEdBzV-25" value="" style="shape=table;startSize=0;container=1;collapsible=0;childLayout=tableLayout;strokeWidth=2;" vertex="1" parent="1">
          <mxGeometry x="771" y="2792" width="110" height="12" as="geometry" />
        </mxCell>
        <mxCell id="Ww1nCT65mCDDprMEdBzV-26" value="" style="shape=partialRectangle;collapsible=0;dropTarget=0;pointerEvents=0;fillColor=none;top=0;left=0;bottom=0;right=0;points=[[0,0.5],[1,0.5]];portConstraint=eastwest;" vertex="1" parent="Ww1nCT65mCDDprMEdBzV-25">
          <mxGeometry width="110" height="12" as="geometry" />
        </mxCell>
        <mxCell id="Ww1nCT65mCDDprMEdBzV-27" value="" style="shape=partialRectangle;html=1;whiteSpace=wrap;connectable=0;overflow=hidden;fillColor=none;top=0;left=0;bottom=0;right=0;" vertex="1" parent="Ww1nCT65mCDDprMEdBzV-26">
          <mxGeometry width="110" height="12" as="geometry" />
        </mxCell>
        <mxCell id="Ww1nCT65mCDDprMEdBzV-28" value="" style="endArrow=classic;html=1;exitX=1;exitY=0.5;exitDx=0;exitDy=0;entryX=0;entryY=0.5;entryDx=0;entryDy=0;strokeWidth=2;strokeColor=#FF3333;" edge="1" parent="1" source="Ww1nCT65mCDDprMEdBzV-14" target="Ww1nCT65mCDDprMEdBzV-26">
          <mxGeometry width="50" height="50" relative="1" as="geometry">
            <mxPoint x="800" y="2899" as="sourcePoint" />
            <mxPoint x="850" y="2849" as="targetPoint" />
          </mxGeometry>
        </mxCell>
        <mxCell id="Ww1nCT65mCDDprMEdBzV-29" value="&lt;font style=&quot;font-size: 24px&quot;&gt;fetch&lt;/font&gt;" style="edgeLabel;html=1;align=center;verticalAlign=middle;resizable=0;points=[];" vertex="1" connectable="0" parent="Ww1nCT65mCDDprMEdBzV-28">
          <mxGeometry x="-0.2744" y="-3" relative="1" as="geometry">
            <mxPoint x="17" y="-24" as="offset" />
          </mxGeometry>
        </mxCell>
        <mxCell id="Ww1nCT65mCDDprMEdBzV-30" style="edgeStyle=orthogonalEdgeStyle;rounded=0;orthogonalLoop=1;jettySize=auto;html=1;exitX=1;exitY=0.5;exitDx=0;exitDy=0;entryX=0;entryY=0.5;entryDx=0;entryDy=0;strokeWidth=2;strokeColor=#FF3333;" edge="1" parent="1" source="Ww1nCT65mCDDprMEdBzV-32" target="Ww1nCT65mCDDprMEdBzV-3">
          <mxGeometry relative="1" as="geometry" />
        </mxCell>
        <mxCell id="Ww1nCT65mCDDprMEdBzV-31" value="&lt;font style=&quot;font-size: 24px&quot;&gt;write back A/D？&lt;/font&gt;" style="edgeLabel;html=1;align=center;verticalAlign=middle;resizable=0;points=[];" vertex="1" connectable="0" parent="Ww1nCT65mCDDprMEdBzV-30">
          <mxGeometry x="0.2967" y="-1" relative="1" as="geometry">
            <mxPoint x="83" y="27" as="offset" />
          </mxGeometry>
        </mxCell>
        <mxCell id="Ww1nCT65mCDDprMEdBzV-32" value="&lt;font style=&quot;font-size: 24px&quot;&gt;A/D check&lt;/font&gt;" style="ellipse;whiteSpace=wrap;html=1;aspect=fixed;strokeColor=#000000;strokeWidth=2;" vertex="1" parent="1">
          <mxGeometry x="947" y="2681" width="80" height="80" as="geometry" />
        </mxCell>
        <mxCell id="Ww1nCT65mCDDprMEdBzV-33" value="" style="edgeStyle=elbowEdgeStyle;elbow=vertical;endArrow=classic;html=1;entryX=0;entryY=0.5;entryDx=0;entryDy=0;exitX=0.464;exitY=-0.167;exitDx=0;exitDy=0;exitPerimeter=0;strokeWidth=2;strokeColor=#FF3333;" edge="1" parent="1" source="Ww1nCT65mCDDprMEdBzV-26" target="Ww1nCT65mCDDprMEdBzV-32">
          <mxGeometry width="50" height="50" relative="1" as="geometry">
            <mxPoint x="698" y="2798" as="sourcePoint" />
            <mxPoint x="861" y="2739" as="targetPoint" />
            <Array as="points">
              <mxPoint x="820" y="2721" />
            </Array>
          </mxGeometry>
        </mxCell>
        <mxCell id="Ww1nCT65mCDDprMEdBzV-34" style="edgeStyle=orthogonalEdgeStyle;rounded=0;orthogonalLoop=1;jettySize=auto;html=1;exitX=1;exitY=0.5;exitDx=0;exitDy=0;strokeWidth=2;entryX=-0.001;entryY=0.207;entryDx=0;entryDy=0;entryPerimeter=0;" edge="1" parent="1" source="Ww1nCT65mCDDprMEdBzV-26" target="Ww1nCT65mCDDprMEdBzV-47">
          <mxGeometry relative="1" as="geometry">
            <mxPoint x="1008" y="2799" as="targetPoint" />
          </mxGeometry>
        </mxCell>
        <mxCell id="Ww1nCT65mCDDprMEdBzV-35" value="&lt;font style=&quot;font-size: 24px&quot;&gt;PTE&amp;nbsp;&lt;/font&gt;" style="edgeLabel;html=1;align=center;verticalAlign=middle;resizable=0;points=[];" vertex="1" connectable="0" parent="Ww1nCT65mCDDprMEdBzV-34">
          <mxGeometry x="-0.275" y="3" relative="1" as="geometry">
            <mxPoint x="24" y="19" as="offset" />
          </mxGeometry>
        </mxCell>
        <mxCell id="Ww1nCT65mCDDprMEdBzV-36" style="edgeStyle=orthogonalEdgeStyle;rounded=0;orthogonalLoop=1;jettySize=auto;html=1;entryX=0.958;entryY=1.023;entryDx=0;entryDy=0;entryPerimeter=0;strokeWidth=2;" edge="1" parent="1" source="Ww1nCT65mCDDprMEdBzV-37" target="Ww1nCT65mCDDprMEdBzV-3">
          <mxGeometry relative="1" as="geometry" />
        </mxCell>
        <mxCell id="Ww1nCT65mCDDprMEdBzV-37" value="&lt;font&gt;&lt;span style=&quot;font-size: 24px&quot;&gt;mem&lt;br&gt;Resp&lt;br&gt;Store&lt;/span&gt;&lt;br&gt;&lt;span style=&quot;font-size: 24px&quot;&gt;(reg)&lt;/span&gt;&lt;/font&gt;" style="rounded=0;whiteSpace=wrap;html=1;strokeColor=#000000;strokeWidth=2;" vertex="1" parent="1">
          <mxGeometry x="573" y="2898" width="60" height="210" as="geometry" />
        </mxCell>
        <mxCell id="Ww1nCT65mCDDprMEdBzV-38" value="&lt;font style=&quot;font-size: 24px&quot;&gt;TLB&lt;/font&gt;" style="text;html=1;strokeColor=none;fillColor=none;align=center;verticalAlign=middle;whiteSpace=wrap;rounded=0;" vertex="1" parent="1">
          <mxGeometry x="560.5" y="2854.5" width="40" height="20" as="geometry" />
        </mxCell>
        <mxCell id="Ww1nCT65mCDDprMEdBzV-39" value="&lt;span style=&quot;font-size: 24px&quot;&gt;hit entry&lt;/span&gt;" style="text;html=1;strokeColor=none;fillColor=none;align=center;verticalAlign=middle;whiteSpace=wrap;rounded=0;" vertex="1" parent="1">
          <mxGeometry x="775.5" y="2809" width="101" height="26" as="geometry" />
        </mxCell>
        <mxCell id="Ww1nCT65mCDDprMEdBzV-42" style="edgeStyle=orthogonalEdgeStyle;rounded=0;orthogonalLoop=1;jettySize=auto;html=1;entryX=0.5;entryY=1;entryDx=0;entryDy=0;strokeWidth=2;strokeColor=#330000;" edge="1" parent="1" source="Ww1nCT65mCDDprMEdBzV-43" target="Ww1nCT65mCDDprMEdBzV-45">
          <mxGeometry relative="1" as="geometry" />
        </mxCell>
        <mxCell id="Ww1nCT65mCDDprMEdBzV-43" value="&lt;font style=&quot;font-size: 24px&quot;&gt;...&lt;/font&gt;" style="ellipse;shape=cloud;whiteSpace=wrap;html=1;strokeColor=#000000;strokeWidth=2;" vertex="1" parent="1">
          <mxGeometry x="335.5" y="2871" width="117" height="73" as="geometry" />
        </mxCell>
        <mxCell id="Ww1nCT65mCDDprMEdBzV-44" style="edgeStyle=orthogonalEdgeStyle;rounded=0;orthogonalLoop=1;jettySize=auto;html=1;entryX=0.1;entryY=0.5;entryDx=0;entryDy=0;entryPerimeter=0;strokeWidth=2;strokeColor=#FF3333;exitX=1;exitY=0.5;exitDx=0;exitDy=0;" edge="1" parent="1" source="Ww1nCT65mCDDprMEdBzV-45" target="Ww1nCT65mCDDprMEdBzV-24">
          <mxGeometry relative="1" as="geometry">
            <mxPoint x="449" y="2803" as="sourcePoint" />
          </mxGeometry>
        </mxCell>
        <mxCell id="Ww1nCT65mCDDprMEdBzV-45" value="&lt;font style=&quot;font-size: 24px&quot;&gt;hit check&lt;/font&gt;" style="ellipse;whiteSpace=wrap;html=1;aspect=fixed;strokeColor=#000000;strokeWidth=2;" vertex="1" parent="1">
          <mxGeometry x="354" y="2763.5" width="80" height="80" as="geometry" />
        </mxCell>
        <mxCell id="Ww1nCT65mCDDprMEdBzV-46" value="" style="edgeStyle=elbowEdgeStyle;elbow=horizontal;endArrow=classic;html=1;strokeColor=#330000;strokeWidth=2;exitX=0.444;exitY=0;exitDx=0;exitDy=0;exitPerimeter=0;entryX=0.5;entryY=0;entryDx=0;entryDy=0;" edge="1" parent="1" source="Ww1nCT65mCDDprMEdBzV-8" target="Ww1nCT65mCDDprMEdBzV-45">
          <mxGeometry width="50" height="50" relative="1" as="geometry">
            <mxPoint x="553" y="2735" as="sourcePoint" />
            <mxPoint x="603" y="2685" as="targetPoint" />
            <Array as="points">
              <mxPoint x="466" y="2715" />
            </Array>
          </mxGeometry>
        </mxCell>
        <mxCell id="Ww1nCT65mCDDprMEdBzV-48" style="edgeStyle=orthogonalEdgeStyle;rounded=0;orthogonalLoop=1;jettySize=auto;html=1;exitX=1;exitY=0.25;exitDx=0;exitDy=0;entryX=0.127;entryY=1.022;entryDx=0;entryDy=0;entryPerimeter=0;strokeWidth=2;" edge="1" parent="1" source="Ww1nCT65mCDDprMEdBzV-47" target="Ww1nCT65mCDDprMEdBzV-3">
          <mxGeometry relative="1" as="geometry" />
        </mxCell>
        <mxCell id="Ww1nCT65mCDDprMEdBzV-47" value="&lt;font&gt;&lt;span style=&quot;font-size: 24px&quot;&gt;hit&lt;br&gt;WB&lt;br&gt;Store&lt;/span&gt;&lt;br&gt;&lt;span style=&quot;font-size: 24px&quot;&gt;(reg)&lt;/span&gt;&lt;/font&gt;" style="rounded=0;whiteSpace=wrap;html=1;strokeColor=#000000;strokeWidth=2;" vertex="1" parent="1">
          <mxGeometry x="1042" y="2755" width="60" height="210" as="geometry" />
        </mxCell>
        <mxCell id="Ww1nCT65mCDDprMEdBzV-52" value="" style="rounded=0;whiteSpace=wrap;html=1;strokeColor=#000000;strokeWidth=2;" vertex="1" parent="1">
          <mxGeometry x="121" y="6684" width="1283" height="540" as="geometry" />
        </mxCell>
        <mxCell id="Ww1nCT65mCDDprMEdBzV-53" style="edgeStyle=orthogonalEdgeStyle;rounded=0;orthogonalLoop=1;jettySize=auto;html=1;exitX=0.5;exitY=0;exitDx=0;exitDy=0;entryX=0;entryY=0.5;entryDx=0;entryDy=0;strokeWidth=2;strokeColor=#FF3333;" edge="1" parent="1" source="Ww1nCT65mCDDprMEdBzV-54" target="Ww1nCT65mCDDprMEdBzV-55">
          <mxGeometry relative="1" as="geometry" />
        </mxCell>
        <mxCell id="Ww1nCT65mCDDprMEdBzV-54" value="&lt;font style=&quot;font-size: 24px&quot;&gt;MUX&lt;/font&gt;" style="shape=trapezoid;perimeter=trapezoidPerimeter;whiteSpace=wrap;html=1;fixedSize=1;rotation=90;fillColor=#d5e8d4;strokeColor=#82b366;" vertex="1" parent="1">
          <mxGeometry x="1192.5" y="6896" width="236" height="88" as="geometry" />
        </mxCell>
        <mxCell id="Ww1nCT65mCDDprMEdBzV-55" value="&lt;div class=&quot;lake-content&quot;&gt;&lt;em&gt;&lt;span class=&quot;ne-text&quot;&gt;&lt;font style=&quot;font-size: 24px&quot;&gt;io_mem_req_bits_wdata&lt;/font&gt;&lt;/span&gt;&lt;/em&gt;&lt;/div&gt;" style="text;whiteSpace=wrap;html=1;strokeWidth=2;align=center;" vertex="1" parent="1">
          <mxGeometry x="1459" y="6919.5" width="257" height="41" as="geometry" />
        </mxCell>
        <mxCell id="Ww1nCT65mCDDprMEdBzV-56" value="" style="endArrow=classic;html=1;entryX=0;entryY=0.5;entryDx=0;entryDy=0;strokeWidth=2;strokeColor=#FF3333;exitX=1;exitY=0.5;exitDx=0;exitDy=0;" edge="1" parent="1" source="Ww1nCT65mCDDprMEdBzV-97" target="Ww1nCT65mCDDprMEdBzV-95">
          <mxGeometry width="50" height="50" relative="1" as="geometry">
            <mxPoint x="217" y="6848.154545454545" as="sourcePoint" />
            <mxPoint x="278" y="6848" as="targetPoint" />
          </mxGeometry>
        </mxCell>
        <mxCell id="Ww1nCT65mCDDprMEdBzV-57" value="" style="shape=table;startSize=0;container=1;collapsible=0;childLayout=tableLayout;strokeWidth=2;" vertex="1" parent="1">
          <mxGeometry x="453" y="6807" width="133" height="83" as="geometry" />
        </mxCell>
        <mxCell id="Ww1nCT65mCDDprMEdBzV-58" value="" style="shape=partialRectangle;collapsible=0;dropTarget=0;pointerEvents=0;fillColor=none;top=0;left=0;bottom=0;right=0;points=[[0,0.5],[1,0.5]];portConstraint=eastwest;" vertex="1" parent="Ww1nCT65mCDDprMEdBzV-57">
          <mxGeometry width="133" height="10" as="geometry" />
        </mxCell>
        <mxCell id="Ww1nCT65mCDDprMEdBzV-59" value="" style="shape=partialRectangle;html=1;whiteSpace=wrap;connectable=0;overflow=hidden;fillColor=none;top=0;left=0;bottom=0;right=0;" vertex="1" parent="Ww1nCT65mCDDprMEdBzV-58">
          <mxGeometry width="133" height="10" as="geometry" />
        </mxCell>
        <mxCell id="Ww1nCT65mCDDprMEdBzV-60" value="" style="shape=partialRectangle;collapsible=0;dropTarget=0;pointerEvents=0;fillColor=none;top=0;left=0;bottom=0;right=0;points=[[0,0.5],[1,0.5]];portConstraint=eastwest;" vertex="1" parent="Ww1nCT65mCDDprMEdBzV-57">
          <mxGeometry y="10" width="133" height="11" as="geometry" />
        </mxCell>
        <mxCell id="Ww1nCT65mCDDprMEdBzV-61" value="" style="shape=partialRectangle;html=1;whiteSpace=wrap;connectable=0;overflow=hidden;fillColor=none;top=0;left=0;bottom=0;right=0;" vertex="1" parent="Ww1nCT65mCDDprMEdBzV-60">
          <mxGeometry width="133" height="11" as="geometry" />
        </mxCell>
        <mxCell id="Ww1nCT65mCDDprMEdBzV-62" value="" style="shape=partialRectangle;collapsible=0;dropTarget=0;pointerEvents=0;fillColor=none;top=0;left=0;bottom=0;right=0;points=[[0,0.5],[1,0.5]];portConstraint=eastwest;" vertex="1" parent="Ww1nCT65mCDDprMEdBzV-57">
          <mxGeometry y="21" width="133" height="10" as="geometry" />
        </mxCell>
        <mxCell id="Ww1nCT65mCDDprMEdBzV-63" value="" style="shape=partialRectangle;html=1;whiteSpace=wrap;connectable=0;overflow=hidden;fillColor=none;top=0;left=0;bottom=0;right=0;" vertex="1" parent="Ww1nCT65mCDDprMEdBzV-62">
          <mxGeometry width="133" height="10" as="geometry" />
        </mxCell>
        <mxCell id="Ww1nCT65mCDDprMEdBzV-64" value="" style="shape=partialRectangle;collapsible=0;dropTarget=0;pointerEvents=0;fillColor=none;top=0;left=0;bottom=0;right=0;points=[[0,0.5],[1,0.5]];portConstraint=eastwest;" vertex="1" parent="Ww1nCT65mCDDprMEdBzV-57">
          <mxGeometry y="31" width="133" height="11" as="geometry" />
        </mxCell>
        <mxCell id="Ww1nCT65mCDDprMEdBzV-65" value="" style="shape=partialRectangle;html=1;whiteSpace=wrap;connectable=0;overflow=hidden;fillColor=none;top=0;left=0;bottom=0;right=0;" vertex="1" parent="Ww1nCT65mCDDprMEdBzV-64">
          <mxGeometry width="133" height="11" as="geometry" />
        </mxCell>
        <mxCell id="Ww1nCT65mCDDprMEdBzV-66" value="" style="shape=partialRectangle;collapsible=0;dropTarget=0;pointerEvents=0;fillColor=none;top=0;left=0;bottom=0;right=0;points=[[0,0.5],[1,0.5]];portConstraint=eastwest;" vertex="1" parent="Ww1nCT65mCDDprMEdBzV-57">
          <mxGeometry y="42" width="133" height="10" as="geometry" />
        </mxCell>
        <mxCell id="Ww1nCT65mCDDprMEdBzV-67" value="" style="shape=partialRectangle;html=1;whiteSpace=wrap;connectable=0;overflow=hidden;fillColor=none;top=0;left=0;bottom=0;right=0;" vertex="1" parent="Ww1nCT65mCDDprMEdBzV-66">
          <mxGeometry width="133" height="10" as="geometry" />
        </mxCell>
        <mxCell id="Ww1nCT65mCDDprMEdBzV-68" value="" style="shape=partialRectangle;collapsible=0;dropTarget=0;pointerEvents=0;fillColor=none;top=0;left=0;bottom=0;right=0;points=[[0,0.5],[1,0.5]];portConstraint=eastwest;" vertex="1" parent="Ww1nCT65mCDDprMEdBzV-57">
          <mxGeometry y="52" width="133" height="10" as="geometry" />
        </mxCell>
        <mxCell id="Ww1nCT65mCDDprMEdBzV-69" value="" style="shape=partialRectangle;html=1;whiteSpace=wrap;connectable=0;overflow=hidden;fillColor=none;top=0;left=0;bottom=0;right=0;" vertex="1" parent="Ww1nCT65mCDDprMEdBzV-68">
          <mxGeometry width="133" height="10" as="geometry" />
        </mxCell>
        <mxCell id="Ww1nCT65mCDDprMEdBzV-70" value="" style="shape=partialRectangle;collapsible=0;dropTarget=0;pointerEvents=0;fillColor=none;top=0;left=0;bottom=0;right=0;points=[[0,0.5],[1,0.5]];portConstraint=eastwest;" vertex="1" parent="Ww1nCT65mCDDprMEdBzV-57">
          <mxGeometry y="62" width="133" height="11" as="geometry" />
        </mxCell>
        <mxCell id="Ww1nCT65mCDDprMEdBzV-71" value="" style="shape=partialRectangle;html=1;whiteSpace=wrap;connectable=0;overflow=hidden;fillColor=none;top=0;left=0;bottom=0;right=0;" vertex="1" parent="Ww1nCT65mCDDprMEdBzV-70">
          <mxGeometry width="133" height="11" as="geometry" />
        </mxCell>
        <mxCell id="Ww1nCT65mCDDprMEdBzV-72" value="" style="shape=partialRectangle;collapsible=0;dropTarget=0;pointerEvents=0;fillColor=none;top=0;left=0;bottom=0;right=0;points=[[0,0.5],[1,0.5]];portConstraint=eastwest;" vertex="1" parent="Ww1nCT65mCDDprMEdBzV-57">
          <mxGeometry y="73" width="133" height="10" as="geometry" />
        </mxCell>
        <mxCell id="Ww1nCT65mCDDprMEdBzV-73" value="" style="shape=partialRectangle;html=1;whiteSpace=wrap;connectable=0;overflow=hidden;fillColor=none;top=0;left=0;bottom=0;right=0;" vertex="1" parent="Ww1nCT65mCDDprMEdBzV-72">
          <mxGeometry width="133" height="10" as="geometry" />
        </mxCell>
        <mxCell id="Ww1nCT65mCDDprMEdBzV-74" value="" style="shape=curlyBracket;whiteSpace=wrap;html=1;rounded=1;strokeColor=#000000;strokeWidth=2;" vertex="1" parent="1">
          <mxGeometry x="425" y="6806" width="20" height="84" as="geometry" />
        </mxCell>
        <mxCell id="Ww1nCT65mCDDprMEdBzV-75" value="" style="shape=table;startSize=0;container=1;collapsible=0;childLayout=tableLayout;strokeWidth=2;" vertex="1" parent="1">
          <mxGeometry x="710" y="6837" width="110" height="12" as="geometry" />
        </mxCell>
        <mxCell id="Ww1nCT65mCDDprMEdBzV-76" value="" style="shape=partialRectangle;collapsible=0;dropTarget=0;pointerEvents=0;fillColor=none;top=0;left=0;bottom=0;right=0;points=[[0,0.5],[1,0.5]];portConstraint=eastwest;" vertex="1" parent="Ww1nCT65mCDDprMEdBzV-75">
          <mxGeometry width="110" height="12" as="geometry" />
        </mxCell>
        <mxCell id="Ww1nCT65mCDDprMEdBzV-77" value="" style="shape=partialRectangle;html=1;whiteSpace=wrap;connectable=0;overflow=hidden;fillColor=none;top=0;left=0;bottom=0;right=0;" vertex="1" parent="Ww1nCT65mCDDprMEdBzV-76">
          <mxGeometry width="110" height="12" as="geometry" />
        </mxCell>
        <mxCell id="Ww1nCT65mCDDprMEdBzV-78" value="" style="endArrow=classic;html=1;exitX=1;exitY=0.5;exitDx=0;exitDy=0;entryX=0;entryY=0.5;entryDx=0;entryDy=0;strokeWidth=2;strokeColor=#FF3333;" edge="1" parent="1" source="Ww1nCT65mCDDprMEdBzV-64" target="Ww1nCT65mCDDprMEdBzV-76">
          <mxGeometry width="50" height="50" relative="1" as="geometry">
            <mxPoint x="739" y="6944" as="sourcePoint" />
            <mxPoint x="789" y="6894" as="targetPoint" />
          </mxGeometry>
        </mxCell>
        <mxCell id="Ww1nCT65mCDDprMEdBzV-79" value="&lt;font style=&quot;font-size: 24px&quot;&gt;fetch&lt;/font&gt;" style="edgeLabel;html=1;align=center;verticalAlign=middle;resizable=0;points=[];" vertex="1" connectable="0" parent="Ww1nCT65mCDDprMEdBzV-78">
          <mxGeometry x="-0.2744" y="-3" relative="1" as="geometry">
            <mxPoint x="17" y="-24" as="offset" />
          </mxGeometry>
        </mxCell>
        <mxCell id="Ww1nCT65mCDDprMEdBzV-80" style="edgeStyle=orthogonalEdgeStyle;rounded=0;orthogonalLoop=1;jettySize=auto;html=1;exitX=1;exitY=0.5;exitDx=0;exitDy=0;entryX=0;entryY=0.5;entryDx=0;entryDy=0;strokeWidth=2;strokeColor=#FF3333;" edge="1" parent="1" source="Ww1nCT65mCDDprMEdBzV-82" target="Ww1nCT65mCDDprMEdBzV-54">
          <mxGeometry relative="1" as="geometry" />
        </mxCell>
        <mxCell id="Ww1nCT65mCDDprMEdBzV-81" value="&lt;font style=&quot;font-size: 24px&quot;&gt;write back A/D？&lt;/font&gt;" style="edgeLabel;html=1;align=center;verticalAlign=middle;resizable=0;points=[];" vertex="1" connectable="0" parent="Ww1nCT65mCDDprMEdBzV-80">
          <mxGeometry x="0.2967" y="-1" relative="1" as="geometry">
            <mxPoint x="79" y="27" as="offset" />
          </mxGeometry>
        </mxCell>
        <mxCell id="Ww1nCT65mCDDprMEdBzV-82" value="&lt;font style=&quot;font-size: 24px&quot;&gt;A/D check&lt;/font&gt;" style="ellipse;whiteSpace=wrap;html=1;aspect=fixed;strokeColor=#000000;strokeWidth=2;" vertex="1" parent="1">
          <mxGeometry x="886" y="6726" width="80" height="80" as="geometry" />
        </mxCell>
        <mxCell id="Ww1nCT65mCDDprMEdBzV-83" value="" style="edgeStyle=elbowEdgeStyle;elbow=vertical;endArrow=classic;html=1;entryX=0;entryY=0.5;entryDx=0;entryDy=0;exitX=0.464;exitY=-0.167;exitDx=0;exitDy=0;exitPerimeter=0;strokeWidth=2;strokeColor=#FF3333;" edge="1" parent="1" source="Ww1nCT65mCDDprMEdBzV-76" target="Ww1nCT65mCDDprMEdBzV-82">
          <mxGeometry width="50" height="50" relative="1" as="geometry">
            <mxPoint x="637" y="6843" as="sourcePoint" />
            <mxPoint x="800" y="6784" as="targetPoint" />
            <Array as="points">
              <mxPoint x="759" y="6766" />
            </Array>
          </mxGeometry>
        </mxCell>
        <mxCell id="Ww1nCT65mCDDprMEdBzV-84" style="edgeStyle=orthogonalEdgeStyle;rounded=0;orthogonalLoop=1;jettySize=auto;html=1;exitX=1;exitY=0.5;exitDx=0;exitDy=0;strokeWidth=2;" edge="1" parent="1" source="Ww1nCT65mCDDprMEdBzV-76">
          <mxGeometry relative="1" as="geometry">
            <mxPoint x="963" y="6844" as="targetPoint" />
          </mxGeometry>
        </mxCell>
        <mxCell id="Ww1nCT65mCDDprMEdBzV-85" value="&lt;font style=&quot;font-size: 24px&quot;&gt;PTE&lt;/font&gt;" style="edgeLabel;html=1;align=center;verticalAlign=middle;resizable=0;points=[];" vertex="1" connectable="0" parent="Ww1nCT65mCDDprMEdBzV-84">
          <mxGeometry x="-0.275" y="3" relative="1" as="geometry">
            <mxPoint x="14" y="19" as="offset" />
          </mxGeometry>
        </mxCell>
        <mxCell id="Ww1nCT65mCDDprMEdBzV-86" style="edgeStyle=orthogonalEdgeStyle;rounded=0;orthogonalLoop=1;jettySize=auto;html=1;entryX=0.958;entryY=1.023;entryDx=0;entryDy=0;entryPerimeter=0;strokeWidth=2;" edge="1" parent="1" target="Ww1nCT65mCDDprMEdBzV-54">
          <mxGeometry relative="1" as="geometry">
            <mxPoint x="783" y="7048" as="sourcePoint" />
          </mxGeometry>
        </mxCell>
        <mxCell id="Ww1nCT65mCDDprMEdBzV-88" value="&lt;font style=&quot;font-size: 24px&quot;&gt;TLB&lt;/font&gt;" style="text;html=1;strokeColor=none;fillColor=none;align=center;verticalAlign=middle;whiteSpace=wrap;rounded=0;" vertex="1" parent="1">
          <mxGeometry x="499.5" y="6899.5" width="40" height="20" as="geometry" />
        </mxCell>
        <mxCell id="Ww1nCT65mCDDprMEdBzV-89" value="&lt;span style=&quot;font-size: 24px&quot;&gt;hit entry&lt;/span&gt;" style="text;html=1;strokeColor=none;fillColor=none;align=center;verticalAlign=middle;whiteSpace=wrap;rounded=0;" vertex="1" parent="1">
          <mxGeometry x="714.5" y="6854" width="101" height="26" as="geometry" />
        </mxCell>
        <mxCell id="Ww1nCT65mCDDprMEdBzV-92" style="edgeStyle=orthogonalEdgeStyle;rounded=0;orthogonalLoop=1;jettySize=auto;html=1;entryX=0.5;entryY=1;entryDx=0;entryDy=0;strokeWidth=2;strokeColor=#330000;" edge="1" parent="1" source="Ww1nCT65mCDDprMEdBzV-93" target="Ww1nCT65mCDDprMEdBzV-95">
          <mxGeometry relative="1" as="geometry" />
        </mxCell>
        <mxCell id="Ww1nCT65mCDDprMEdBzV-93" value="&lt;font style=&quot;font-size: 24px&quot;&gt;...&lt;/font&gt;" style="ellipse;shape=cloud;whiteSpace=wrap;html=1;strokeColor=#000000;strokeWidth=2;" vertex="1" parent="1">
          <mxGeometry x="117" y="6977" width="117" height="73" as="geometry" />
        </mxCell>
        <mxCell id="Ww1nCT65mCDDprMEdBzV-94" style="edgeStyle=orthogonalEdgeStyle;rounded=0;orthogonalLoop=1;jettySize=auto;html=1;entryX=0.1;entryY=0.5;entryDx=0;entryDy=0;entryPerimeter=0;strokeWidth=2;strokeColor=#FF3333;exitX=1;exitY=0.5;exitDx=0;exitDy=0;" edge="1" parent="1" source="Ww1nCT65mCDDprMEdBzV-95" target="Ww1nCT65mCDDprMEdBzV-74">
          <mxGeometry relative="1" as="geometry">
            <mxPoint x="388" y="6848" as="sourcePoint" />
          </mxGeometry>
        </mxCell>
        <mxCell id="Ww1nCT65mCDDprMEdBzV-95" value="&lt;font style=&quot;font-size: 24px&quot;&gt;hit check&lt;/font&gt;" style="ellipse;whiteSpace=wrap;html=1;aspect=fixed;strokeColor=#000000;strokeWidth=2;" vertex="1" parent="1">
          <mxGeometry x="293" y="6808.5" width="80" height="80" as="geometry" />
        </mxCell>
        <mxCell id="Ww1nCT65mCDDprMEdBzV-96" value="" style="edgeStyle=elbowEdgeStyle;elbow=horizontal;endArrow=classic;html=1;strokeColor=#330000;strokeWidth=2;exitX=0.444;exitY=0;exitDx=0;exitDy=0;exitPerimeter=0;entryX=0.5;entryY=0;entryDx=0;entryDy=0;" edge="1" parent="1" source="Ww1nCT65mCDDprMEdBzV-58" target="Ww1nCT65mCDDprMEdBzV-95">
          <mxGeometry width="50" height="50" relative="1" as="geometry">
            <mxPoint x="492" y="6780" as="sourcePoint" />
            <mxPoint x="542" y="6730" as="targetPoint" />
            <Array as="points">
              <mxPoint x="405" y="6760" />
            </Array>
          </mxGeometry>
        </mxCell>
        <mxCell id="Ww1nCT65mCDDprMEdBzV-97" value="&lt;div class=&quot;lake-content&quot; style=&quot;font-size: 20px&quot;&gt;addr&lt;/div&gt;&lt;div class=&quot;lake-content&quot; style=&quot;font-size: 20px&quot;&gt;(reg)&lt;/div&gt;" style="rounded=0;whiteSpace=wrap;html=1;strokeColor=#000000;strokeWidth=2;" vertex="1" parent="1">
          <mxGeometry x="140" y="6729" width="64" height="238" as="geometry" />
        </mxCell>
        <mxCell id="Ww1nCT65mCDDprMEdBzV-98" value="&lt;div class=&quot;lake-content&quot; style=&quot;font-size: 20px&quot;&gt;addr&lt;/div&gt;&lt;div class=&quot;lake-content&quot; style=&quot;font-size: 20px&quot;&gt;(reg)&lt;/div&gt;" style="rounded=0;whiteSpace=wrap;html=1;strokeColor=#000000;strokeWidth=2;" vertex="1" parent="1">
          <mxGeometry x="140" y="6729" width="64" height="238" as="geometry" />
        </mxCell>
        <mxCell id="Ww1nCT65mCDDprMEdBzV-99" value="&lt;font style=&quot;font-size: 24px&quot;&gt;...&lt;/font&gt;" style="ellipse;shape=cloud;whiteSpace=wrap;html=1;strokeColor=#000000;strokeWidth=2;" vertex="1" parent="1">
          <mxGeometry x="117" y="6977" width="117" height="73" as="geometry" />
        </mxCell>
        <mxCell id="Ww1nCT65mCDDprMEdBzV-101" value="&lt;font&gt;&lt;span style=&quot;font-size: 24px&quot;&gt;mem&lt;br&gt;Resp&lt;br&gt;Store&lt;/span&gt;&lt;br&gt;&lt;span style=&quot;font-size: 24px&quot;&gt;(reg)&lt;/span&gt;&lt;/font&gt;" style="rounded=0;whiteSpace=wrap;html=1;strokeColor=#000000;strokeWidth=2;" vertex="1" parent="1">
          <mxGeometry x="725" y="6967" width="60" height="210" as="geometry" />
        </mxCell>
        <mxCell id="Ww1nCT65mCDDprMEdBzV-102" value="&lt;font&gt;&lt;span style=&quot;font-size: 24px&quot;&gt;hit&lt;br&gt;WB&lt;br&gt;Store&lt;/span&gt;&lt;br&gt;&lt;span style=&quot;font-size: 24px&quot;&gt;(reg)&lt;/span&gt;&lt;/font&gt;" style="rounded=0;whiteSpace=wrap;html=1;strokeColor=#000000;strokeWidth=2;" vertex="1" parent="1">
          <mxGeometry x="963.5" y="6802" width="60" height="210" as="geometry" />
        </mxCell>
        <mxCell id="Ww1nCT65mCDDprMEdBzV-103" value="" style="endArrow=classic;html=1;strokeWidth=2;exitX=0.996;exitY=0.207;exitDx=0;exitDy=0;exitPerimeter=0;entryX=0.097;entryY=0.983;entryDx=0;entryDy=0;entryPerimeter=0;" edge="1" parent="1" source="Ww1nCT65mCDDprMEdBzV-102" target="Ww1nCT65mCDDprMEdBzV-54">
          <mxGeometry width="50" height="50" relative="1" as="geometry">
            <mxPoint x="1130" y="6895" as="sourcePoint" />
            <mxPoint x="1180" y="6845" as="targetPoint" />
          </mxGeometry>
        </mxCell>
        <mxCell id="Ww1nCT65mCDDprMEdBzV-180" value="" style="rounded=0;whiteSpace=wrap;html=1;strokeColor=#000000;strokeWidth=2;" vertex="1" parent="1">
          <mxGeometry x="217" y="7344" width="1103.5" height="539" as="geometry" />
        </mxCell>
        <mxCell id="Ww1nCT65mCDDprMEdBzV-181" value="" style="ellipse;whiteSpace=wrap;html=1;strokeWidth=2;strokeColor=#3333FF;" vertex="1" parent="1">
          <mxGeometry x="1055" y="7715" width="206" height="140" as="geometry" />
        </mxCell>
        <mxCell id="Ww1nCT65mCDDprMEdBzV-182" value="" style="rounded=0;whiteSpace=wrap;html=1;strokeColor=#000000;strokeWidth=2;" vertex="1" parent="1">
          <mxGeometry x="489" y="7981" width="692" height="549" as="geometry" />
        </mxCell>
        <mxCell id="Ww1nCT65mCDDprMEdBzV-183" value="&lt;div class=&quot;lake-content&quot; style=&quot;font-size: 20px&quot;&gt;latch&lt;/div&gt;" style="rounded=0;whiteSpace=wrap;html=1;strokeColor=#000000;strokeWidth=2;" vertex="1" parent="1">
          <mxGeometry x="622" y="8187" width="64" height="238" as="geometry" />
        </mxCell>
        <mxCell id="Ww1nCT65mCDDprMEdBzV-184" style="edgeStyle=orthogonalEdgeStyle;rounded=0;orthogonalLoop=1;jettySize=auto;html=1;exitX=1;exitY=0.25;exitDx=0;exitDy=0;entryX=0;entryY=0.5;entryDx=0;entryDy=0;strokeColor=#d6b656;strokeWidth=2;fillColor=#fff2cc;" edge="1" parent="1" source="Ww1nCT65mCDDprMEdBzV-185" target="Ww1nCT65mCDDprMEdBzV-248">
          <mxGeometry relative="1" as="geometry" />
        </mxCell>
        <mxCell id="Ww1nCT65mCDDprMEdBzV-185" value="&lt;div class=&quot;lake-content&quot; style=&quot;font-size: 20px&quot;&gt;state0&lt;/div&gt;" style="rounded=0;whiteSpace=wrap;html=1;strokeColor=#000000;strokeWidth=2;" vertex="1" parent="1">
          <mxGeometry x="1087" y="8025" width="65" height="144" as="geometry" />
        </mxCell>
        <mxCell id="Ww1nCT65mCDDprMEdBzV-186" style="edgeStyle=orthogonalEdgeStyle;rounded=0;orthogonalLoop=1;jettySize=auto;html=1;exitX=1;exitY=0.25;exitDx=0;exitDy=0;entryX=0;entryY=0.5;entryDx=0;entryDy=0;strokeColor=#d6b656;strokeWidth=2;fillColor=#fff2cc;" edge="1" parent="1" source="Ww1nCT65mCDDprMEdBzV-187" target="Ww1nCT65mCDDprMEdBzV-248">
          <mxGeometry relative="1" as="geometry" />
        </mxCell>
        <mxCell id="Ww1nCT65mCDDprMEdBzV-187" value="&lt;div class=&quot;lake-content&quot; style=&quot;font-size: 20px&quot;&gt;state1&lt;/div&gt;" style="rounded=0;whiteSpace=wrap;html=1;strokeColor=#000000;strokeWidth=2;" vertex="1" parent="1">
          <mxGeometry x="1088" y="8188" width="65" height="144" as="geometry" />
        </mxCell>
        <mxCell id="Ww1nCT65mCDDprMEdBzV-188" style="edgeStyle=orthogonalEdgeStyle;rounded=0;orthogonalLoop=1;jettySize=auto;html=1;exitX=1;exitY=0.25;exitDx=0;exitDy=0;entryX=0;entryY=0.5;entryDx=0;entryDy=0;strokeColor=#d6b656;strokeWidth=2;fillColor=#fff2cc;" edge="1" parent="1" source="Ww1nCT65mCDDprMEdBzV-189" target="Ww1nCT65mCDDprMEdBzV-248">
          <mxGeometry relative="1" as="geometry" />
        </mxCell>
        <mxCell id="Ww1nCT65mCDDprMEdBzV-189" value="&lt;div class=&quot;lake-content&quot; style=&quot;font-size: 20px&quot;&gt;state2&lt;/div&gt;" style="rounded=0;whiteSpace=wrap;html=1;strokeColor=#000000;strokeWidth=2;" vertex="1" parent="1">
          <mxGeometry x="1089" y="8354" width="65" height="144" as="geometry" />
        </mxCell>
        <mxCell id="Ww1nCT65mCDDprMEdBzV-190" value="" style="edgeStyle=segmentEdgeStyle;endArrow=classic;html=1;strokeColor=#82b366;strokeWidth=2;fillColor=#d5e8d4;" edge="1" parent="1">
          <mxGeometry width="50" height="50" relative="1" as="geometry">
            <mxPoint x="839" y="8310" as="sourcePoint" />
            <mxPoint x="1084" y="8148" as="targetPoint" />
            <Array as="points">
              <mxPoint x="839" y="8148" />
              <mxPoint x="1084" y="8148" />
            </Array>
          </mxGeometry>
        </mxCell>
        <mxCell id="Ww1nCT65mCDDprMEdBzV-191" value="" style="endArrow=classic;html=1;strokeColor=#82b366;strokeWidth=2;exitX=1;exitY=0.529;exitDx=0;exitDy=0;exitPerimeter=0;entryX=-0.046;entryY=0.861;entryDx=0;entryDy=0;entryPerimeter=0;fillColor=#d5e8d4;" edge="1" parent="1" source="Ww1nCT65mCDDprMEdBzV-183" target="Ww1nCT65mCDDprMEdBzV-187">
          <mxGeometry width="50" height="50" relative="1" as="geometry">
            <mxPoint x="931" y="8375" as="sourcePoint" />
            <mxPoint x="981" y="8325" as="targetPoint" />
          </mxGeometry>
        </mxCell>
        <mxCell id="Ww1nCT65mCDDprMEdBzV-192" value="" style="edgeStyle=segmentEdgeStyle;endArrow=classic;html=1;strokeColor=#82b366;strokeWidth=2;fillColor=#d5e8d4;" edge="1" parent="1">
          <mxGeometry width="50" height="50" relative="1" as="geometry">
            <mxPoint x="839" y="8312" as="sourcePoint" />
            <mxPoint x="1088" y="8487" as="targetPoint" />
            <Array as="points">
              <mxPoint x="839" y="8487" />
              <mxPoint x="1088" y="8487" />
            </Array>
          </mxGeometry>
        </mxCell>
        <mxCell id="Ww1nCT65mCDDprMEdBzV-193" value="&lt;font style=&quot;font-size: 18px&quot;&gt;clk&lt;/font&gt;" style="text;html=1;strokeColor=none;fillColor=none;align=center;verticalAlign=middle;whiteSpace=wrap;rounded=0;" vertex="1" parent="1">
          <mxGeometry x="1084" y="8137" width="40" height="20" as="geometry" />
        </mxCell>
        <mxCell id="Ww1nCT65mCDDprMEdBzV-194" value="&lt;font style=&quot;font-size: 18px&quot;&gt;clk&lt;/font&gt;" style="text;html=1;strokeColor=none;fillColor=none;align=center;verticalAlign=middle;whiteSpace=wrap;rounded=0;" vertex="1" parent="1">
          <mxGeometry x="1087" y="8302" width="40" height="20" as="geometry" />
        </mxCell>
        <mxCell id="Ww1nCT65mCDDprMEdBzV-195" value="&lt;font style=&quot;font-size: 18px&quot;&gt;clk&lt;/font&gt;" style="text;html=1;strokeColor=none;fillColor=none;align=center;verticalAlign=middle;whiteSpace=wrap;rounded=0;" vertex="1" parent="1">
          <mxGeometry x="1087" y="8473" width="40" height="20" as="geometry" />
        </mxCell>
        <mxCell id="Ww1nCT65mCDDprMEdBzV-196" value="&lt;font style=&quot;font-size: 18px&quot;&gt;en&lt;/font&gt;" style="text;html=1;strokeColor=none;fillColor=none;align=center;verticalAlign=middle;whiteSpace=wrap;rounded=0;" vertex="1" parent="1">
          <mxGeometry x="622" y="8204" width="40" height="20" as="geometry" />
        </mxCell>
        <mxCell id="Ww1nCT65mCDDprMEdBzV-197" value="" style="endArrow=classic;html=1;strokeWidth=2;entryX=0;entryY=0.5;entryDx=0;entryDy=0;strokeColor=#FF3333;" edge="1" parent="1" target="Ww1nCT65mCDDprMEdBzV-196">
          <mxGeometry width="50" height="50" relative="1" as="geometry">
            <mxPoint x="452" y="8214" as="sourcePoint" />
            <mxPoint x="339" y="8181" as="targetPoint" />
          </mxGeometry>
        </mxCell>
        <mxCell id="Ww1nCT65mCDDprMEdBzV-198" value="" style="endArrow=classic;html=1;entryX=0;entryY=0.5;entryDx=0;entryDy=0;strokeWidth=2;strokeColor=#FF3333;exitX=1;exitY=0.5;exitDx=0;exitDy=0;" edge="1" parent="1" target="Ww1nCT65mCDDprMEdBzV-219">
          <mxGeometry width="50" height="50" relative="1" as="geometry">
            <mxPoint x="324.5" y="7502" as="sourcePoint" />
            <mxPoint x="398.5" y="7502" as="targetPoint" />
          </mxGeometry>
        </mxCell>
        <mxCell id="Ww1nCT65mCDDprMEdBzV-199" value="" style="shape=table;startSize=0;container=1;collapsible=0;childLayout=tableLayout;strokeWidth=2;" vertex="1" parent="1">
          <mxGeometry x="573.5" y="7461" width="133" height="83" as="geometry" />
        </mxCell>
        <mxCell id="Ww1nCT65mCDDprMEdBzV-200" value="" style="shape=partialRectangle;collapsible=0;dropTarget=0;pointerEvents=0;fillColor=none;top=0;left=0;bottom=0;right=0;points=[[0,0.5],[1,0.5]];portConstraint=eastwest;" vertex="1" parent="Ww1nCT65mCDDprMEdBzV-199">
          <mxGeometry width="133" height="10" as="geometry" />
        </mxCell>
        <mxCell id="Ww1nCT65mCDDprMEdBzV-201" value="" style="shape=partialRectangle;html=1;whiteSpace=wrap;connectable=0;overflow=hidden;fillColor=none;top=0;left=0;bottom=0;right=0;" vertex="1" parent="Ww1nCT65mCDDprMEdBzV-200">
          <mxGeometry width="133" height="10" as="geometry" />
        </mxCell>
        <mxCell id="Ww1nCT65mCDDprMEdBzV-202" value="" style="shape=partialRectangle;collapsible=0;dropTarget=0;pointerEvents=0;fillColor=none;top=0;left=0;bottom=0;right=0;points=[[0,0.5],[1,0.5]];portConstraint=eastwest;" vertex="1" parent="Ww1nCT65mCDDprMEdBzV-199">
          <mxGeometry y="10" width="133" height="11" as="geometry" />
        </mxCell>
        <mxCell id="Ww1nCT65mCDDprMEdBzV-203" value="" style="shape=partialRectangle;html=1;whiteSpace=wrap;connectable=0;overflow=hidden;fillColor=none;top=0;left=0;bottom=0;right=0;" vertex="1" parent="Ww1nCT65mCDDprMEdBzV-202">
          <mxGeometry width="133" height="11" as="geometry" />
        </mxCell>
        <mxCell id="Ww1nCT65mCDDprMEdBzV-204" value="" style="shape=partialRectangle;collapsible=0;dropTarget=0;pointerEvents=0;fillColor=none;top=0;left=0;bottom=0;right=0;points=[[0,0.5],[1,0.5]];portConstraint=eastwest;" vertex="1" parent="Ww1nCT65mCDDprMEdBzV-199">
          <mxGeometry y="21" width="133" height="10" as="geometry" />
        </mxCell>
        <mxCell id="Ww1nCT65mCDDprMEdBzV-205" value="" style="shape=partialRectangle;html=1;whiteSpace=wrap;connectable=0;overflow=hidden;fillColor=none;top=0;left=0;bottom=0;right=0;" vertex="1" parent="Ww1nCT65mCDDprMEdBzV-204">
          <mxGeometry width="133" height="10" as="geometry" />
        </mxCell>
        <mxCell id="Ww1nCT65mCDDprMEdBzV-206" value="" style="shape=partialRectangle;collapsible=0;dropTarget=0;pointerEvents=0;fillColor=none;top=0;left=0;bottom=0;right=0;points=[[0,0.5],[1,0.5]];portConstraint=eastwest;" vertex="1" parent="Ww1nCT65mCDDprMEdBzV-199">
          <mxGeometry y="31" width="133" height="11" as="geometry" />
        </mxCell>
        <mxCell id="Ww1nCT65mCDDprMEdBzV-207" value="" style="shape=partialRectangle;html=1;whiteSpace=wrap;connectable=0;overflow=hidden;fillColor=none;top=0;left=0;bottom=0;right=0;" vertex="1" parent="Ww1nCT65mCDDprMEdBzV-206">
          <mxGeometry width="133" height="11" as="geometry" />
        </mxCell>
        <mxCell id="Ww1nCT65mCDDprMEdBzV-208" value="" style="shape=partialRectangle;collapsible=0;dropTarget=0;pointerEvents=0;fillColor=none;top=0;left=0;bottom=0;right=0;points=[[0,0.5],[1,0.5]];portConstraint=eastwest;" vertex="1" parent="Ww1nCT65mCDDprMEdBzV-199">
          <mxGeometry y="42" width="133" height="10" as="geometry" />
        </mxCell>
        <mxCell id="Ww1nCT65mCDDprMEdBzV-209" value="" style="shape=partialRectangle;html=1;whiteSpace=wrap;connectable=0;overflow=hidden;fillColor=none;top=0;left=0;bottom=0;right=0;" vertex="1" parent="Ww1nCT65mCDDprMEdBzV-208">
          <mxGeometry width="133" height="10" as="geometry" />
        </mxCell>
        <mxCell id="Ww1nCT65mCDDprMEdBzV-210" value="" style="shape=partialRectangle;collapsible=0;dropTarget=0;pointerEvents=0;fillColor=none;top=0;left=0;bottom=0;right=0;points=[[0,0.5],[1,0.5]];portConstraint=eastwest;" vertex="1" parent="Ww1nCT65mCDDprMEdBzV-199">
          <mxGeometry y="52" width="133" height="10" as="geometry" />
        </mxCell>
        <mxCell id="Ww1nCT65mCDDprMEdBzV-211" value="" style="shape=partialRectangle;html=1;whiteSpace=wrap;connectable=0;overflow=hidden;fillColor=none;top=0;left=0;bottom=0;right=0;" vertex="1" parent="Ww1nCT65mCDDprMEdBzV-210">
          <mxGeometry width="133" height="10" as="geometry" />
        </mxCell>
        <mxCell id="Ww1nCT65mCDDprMEdBzV-212" value="" style="shape=partialRectangle;collapsible=0;dropTarget=0;pointerEvents=0;fillColor=none;top=0;left=0;bottom=0;right=0;points=[[0,0.5],[1,0.5]];portConstraint=eastwest;" vertex="1" parent="Ww1nCT65mCDDprMEdBzV-199">
          <mxGeometry y="62" width="133" height="11" as="geometry" />
        </mxCell>
        <mxCell id="Ww1nCT65mCDDprMEdBzV-213" value="" style="shape=partialRectangle;html=1;whiteSpace=wrap;connectable=0;overflow=hidden;fillColor=none;top=0;left=0;bottom=0;right=0;" vertex="1" parent="Ww1nCT65mCDDprMEdBzV-212">
          <mxGeometry width="133" height="11" as="geometry" />
        </mxCell>
        <mxCell id="Ww1nCT65mCDDprMEdBzV-214" value="" style="shape=partialRectangle;collapsible=0;dropTarget=0;pointerEvents=0;fillColor=none;top=0;left=0;bottom=0;right=0;points=[[0,0.5],[1,0.5]];portConstraint=eastwest;" vertex="1" parent="Ww1nCT65mCDDprMEdBzV-199">
          <mxGeometry y="73" width="133" height="10" as="geometry" />
        </mxCell>
        <mxCell id="Ww1nCT65mCDDprMEdBzV-215" value="" style="shape=partialRectangle;html=1;whiteSpace=wrap;connectable=0;overflow=hidden;fillColor=none;top=0;left=0;bottom=0;right=0;" vertex="1" parent="Ww1nCT65mCDDprMEdBzV-214">
          <mxGeometry width="133" height="10" as="geometry" />
        </mxCell>
        <mxCell id="Ww1nCT65mCDDprMEdBzV-216" value="" style="shape=curlyBracket;whiteSpace=wrap;html=1;rounded=1;strokeColor=#000000;strokeWidth=2;" vertex="1" parent="1">
          <mxGeometry x="545.5" y="7460" width="20" height="84" as="geometry" />
        </mxCell>
        <mxCell id="Ww1nCT65mCDDprMEdBzV-217" style="edgeStyle=orthogonalEdgeStyle;rounded=0;orthogonalLoop=1;jettySize=auto;html=1;entryX=0.5;entryY=1;entryDx=0;entryDy=0;strokeWidth=2;strokeColor=#330000;" edge="1" parent="1" target="Ww1nCT65mCDDprMEdBzV-219">
          <mxGeometry relative="1" as="geometry">
            <mxPoint x="354.5" y="7667.5" as="sourcePoint" />
          </mxGeometry>
        </mxCell>
        <mxCell id="Ww1nCT65mCDDprMEdBzV-218" style="edgeStyle=orthogonalEdgeStyle;rounded=0;orthogonalLoop=1;jettySize=auto;html=1;entryX=0.1;entryY=0.5;entryDx=0;entryDy=0;entryPerimeter=0;strokeWidth=2;strokeColor=#FF3333;exitX=1;exitY=0.5;exitDx=0;exitDy=0;" edge="1" parent="1" source="Ww1nCT65mCDDprMEdBzV-219" target="Ww1nCT65mCDDprMEdBzV-216">
          <mxGeometry relative="1" as="geometry">
            <mxPoint x="508.5" y="7502" as="sourcePoint" />
          </mxGeometry>
        </mxCell>
        <mxCell id="Ww1nCT65mCDDprMEdBzV-219" value="&lt;font style=&quot;font-size: 24px&quot;&gt;hit check&lt;/font&gt;" style="ellipse;whiteSpace=wrap;html=1;aspect=fixed;strokeColor=#000000;strokeWidth=2;" vertex="1" parent="1">
          <mxGeometry x="413.5" y="7462.5" width="80" height="80" as="geometry" />
        </mxCell>
        <mxCell id="Ww1nCT65mCDDprMEdBzV-220" value="" style="edgeStyle=elbowEdgeStyle;elbow=horizontal;endArrow=classic;html=1;strokeColor=#330000;strokeWidth=2;exitX=0.444;exitY=0;exitDx=0;exitDy=0;exitPerimeter=0;entryX=0.5;entryY=0;entryDx=0;entryDy=0;" edge="1" parent="1" source="Ww1nCT65mCDDprMEdBzV-200" target="Ww1nCT65mCDDprMEdBzV-219">
          <mxGeometry width="50" height="50" relative="1" as="geometry">
            <mxPoint x="612.5" y="7434" as="sourcePoint" />
            <mxPoint x="662.5" y="7384" as="targetPoint" />
            <Array as="points">
              <mxPoint x="525.5" y="7414" />
            </Array>
          </mxGeometry>
        </mxCell>
        <mxCell id="Ww1nCT65mCDDprMEdBzV-221" value="&lt;div class=&quot;lake-content&quot; style=&quot;font-size: 20px&quot;&gt;addr&lt;/div&gt;&lt;div class=&quot;lake-content&quot; style=&quot;font-size: 20px&quot;&gt;(reg)&lt;/div&gt;" style="rounded=0;whiteSpace=wrap;html=1;strokeColor=#000000;strokeWidth=2;" vertex="1" parent="1">
          <mxGeometry x="260.5" y="7383" width="64" height="238" as="geometry" />
        </mxCell>
        <mxCell id="Ww1nCT65mCDDprMEdBzV-222" value="&lt;font style=&quot;font-size: 24px&quot;&gt;...&lt;/font&gt;" style="ellipse;shape=cloud;whiteSpace=wrap;html=1;strokeColor=#000000;strokeWidth=2;" vertex="1" parent="1">
          <mxGeometry x="237.5" y="7631" width="117" height="73" as="geometry" />
        </mxCell>
        <mxCell id="Ww1nCT65mCDDprMEdBzV-223" value="&lt;font style=&quot;font-size: 24px&quot;&gt;TLB&lt;/font&gt;" style="text;html=1;strokeColor=none;fillColor=none;align=center;verticalAlign=middle;whiteSpace=wrap;rounded=0;" vertex="1" parent="1">
          <mxGeometry x="616.5" y="7559" width="40" height="20" as="geometry" />
        </mxCell>
        <mxCell id="Ww1nCT65mCDDprMEdBzV-226" style="edgeStyle=orthogonalEdgeStyle;rounded=0;orthogonalLoop=1;jettySize=auto;html=1;entryX=0.5;entryY=1;entryDx=0;entryDy=0;strokeColor=#330000;strokeWidth=2;" edge="1" parent="1" source="Ww1nCT65mCDDprMEdBzV-227" target="Ww1nCT65mCDDprMEdBzV-232">
          <mxGeometry relative="1" as="geometry" />
        </mxCell>
        <mxCell id="Ww1nCT65mCDDprMEdBzV-227" value="&lt;font style=&quot;font-size: 24px&quot;&gt;...&lt;/font&gt;" style="ellipse;shape=cloud;whiteSpace=wrap;html=1;strokeColor=#000000;strokeWidth=2;" vertex="1" parent="1">
          <mxGeometry x="449.5" y="7768" width="117" height="73" as="geometry" />
        </mxCell>
        <mxCell id="Ww1nCT65mCDDprMEdBzV-256" style="edgeStyle=orthogonalEdgeStyle;rounded=0;orthogonalLoop=1;jettySize=auto;html=1;exitX=1;exitY=0.5;exitDx=0;exitDy=0;strokeWidth=2;entryX=0;entryY=0.5;entryDx=0;entryDy=0;" edge="1" parent="1" source="Ww1nCT65mCDDprMEdBzV-232" target="Ww1nCT65mCDDprMEdBzV-244">
          <mxGeometry relative="1" as="geometry">
            <mxPoint x="1053" y="7782" as="targetPoint" />
            <Array as="points">
              <mxPoint x="803" y="7675" />
              <mxPoint x="803" y="7782" />
            </Array>
          </mxGeometry>
        </mxCell>
        <mxCell id="Ww1nCT65mCDDprMEdBzV-259" value="&lt;font style=&quot;font-size: 24px&quot;&gt;ready&lt;/font&gt;" style="edgeLabel;html=1;align=center;verticalAlign=middle;resizable=0;points=[];" vertex="1" connectable="0" parent="Ww1nCT65mCDDprMEdBzV-256">
          <mxGeometry x="0.004" y="5" relative="1" as="geometry">
            <mxPoint x="24" y="-14" as="offset" />
          </mxGeometry>
        </mxCell>
        <mxCell id="Ww1nCT65mCDDprMEdBzV-232" value="&lt;font style=&quot;font-size: 24px&quot;&gt;&lt;span style=&quot;font-size: 24px&quot;&gt;TLBExec&lt;br&gt;&lt;/span&gt;ready?&lt;br&gt;&lt;/font&gt;" style="ellipse;whiteSpace=wrap;html=1;aspect=fixed;strokeColor=#000000;strokeWidth=2;" vertex="1" parent="1">
          <mxGeometry x="573" y="7618" width="113" height="113" as="geometry" />
        </mxCell>
        <mxCell id="Ww1nCT65mCDDprMEdBzV-233" value="" style="shape=table;startSize=0;container=1;collapsible=0;childLayout=tableLayout;strokeWidth=2;" vertex="1" parent="1">
          <mxGeometry x="830.5" y="7494" width="110" height="12" as="geometry" />
        </mxCell>
        <mxCell id="Ww1nCT65mCDDprMEdBzV-234" value="" style="shape=partialRectangle;collapsible=0;dropTarget=0;pointerEvents=0;fillColor=none;top=0;left=0;bottom=0;right=0;points=[[0,0.5],[1,0.5]];portConstraint=eastwest;" vertex="1" parent="Ww1nCT65mCDDprMEdBzV-233">
          <mxGeometry width="110" height="12" as="geometry" />
        </mxCell>
        <mxCell id="Ww1nCT65mCDDprMEdBzV-235" value="" style="shape=partialRectangle;html=1;whiteSpace=wrap;connectable=0;overflow=hidden;fillColor=none;top=0;left=0;bottom=0;right=0;" vertex="1" parent="Ww1nCT65mCDDprMEdBzV-234">
          <mxGeometry width="110" height="12" as="geometry" />
        </mxCell>
        <mxCell id="Ww1nCT65mCDDprMEdBzV-236" value="" style="endArrow=classic;html=1;exitX=1;exitY=0.5;exitDx=0;exitDy=0;entryX=0;entryY=0.5;entryDx=0;entryDy=0;strokeWidth=2;strokeColor=#FF3333;" edge="1" parent="1" target="Ww1nCT65mCDDprMEdBzV-234">
          <mxGeometry width="50" height="50" relative="1" as="geometry">
            <mxPoint x="706.5" y="7500.5" as="sourcePoint" />
            <mxPoint x="909.5" y="7551" as="targetPoint" />
          </mxGeometry>
        </mxCell>
        <mxCell id="Ww1nCT65mCDDprMEdBzV-237" value="&lt;font style=&quot;font-size: 24px&quot;&gt;fetch&lt;/font&gt;" style="edgeLabel;html=1;align=center;verticalAlign=middle;resizable=0;points=[];" vertex="1" connectable="0" parent="Ww1nCT65mCDDprMEdBzV-236">
          <mxGeometry x="-0.2744" y="-3" relative="1" as="geometry">
            <mxPoint x="17" y="-24" as="offset" />
          </mxGeometry>
        </mxCell>
        <mxCell id="Ww1nCT65mCDDprMEdBzV-238" style="edgeStyle=orthogonalEdgeStyle;rounded=0;orthogonalLoop=1;jettySize=auto;html=1;exitX=0;exitY=0.5;exitDx=0;exitDy=0;strokeWidth=2;entryX=0.5;entryY=0;entryDx=0;entryDy=0;strokeColor=#FF3333;" edge="1" parent="1" source="Ww1nCT65mCDDprMEdBzV-239" target="Ww1nCT65mCDDprMEdBzV-232">
          <mxGeometry relative="1" as="geometry" />
        </mxCell>
        <mxCell id="Ww1nCT65mCDDprMEdBzV-239" value="&lt;font style=&quot;font-size: 24px&quot;&gt;A/D check&lt;/font&gt;" style="ellipse;whiteSpace=wrap;html=1;aspect=fixed;strokeColor=#000000;strokeWidth=2;" vertex="1" parent="1">
          <mxGeometry x="845.5" y="7551" width="80" height="80" as="geometry" />
        </mxCell>
        <mxCell id="Ww1nCT65mCDDprMEdBzV-240" value="" style="edgeStyle=elbowEdgeStyle;elbow=vertical;endArrow=classic;html=1;strokeWidth=2;strokeColor=#FF3333;entryX=0.5;entryY=0;entryDx=0;entryDy=0;exitX=0.5;exitY=1;exitDx=0;exitDy=0;exitPerimeter=0;" edge="1" parent="1" source="Ww1nCT65mCDDprMEdBzV-234" target="Ww1nCT65mCDDprMEdBzV-239">
          <mxGeometry width="50" height="50" relative="1" as="geometry">
            <mxPoint x="757.5" y="7500" as="sourcePoint" />
            <mxPoint x="822.5" y="7580" as="targetPoint" />
            <Array as="points">
              <mxPoint x="852.5" y="7526" />
              <mxPoint x="879.5" y="7423" />
            </Array>
          </mxGeometry>
        </mxCell>
        <mxCell id="Ww1nCT65mCDDprMEdBzV-241" value="&lt;span style=&quot;font-size: 24px&quot;&gt;hit entry&lt;/span&gt;" style="text;html=1;strokeColor=none;fillColor=none;align=center;verticalAlign=middle;whiteSpace=wrap;rounded=0;" vertex="1" parent="1">
          <mxGeometry x="837.5" y="7458" width="101" height="26" as="geometry" />
        </mxCell>
        <mxCell id="Ww1nCT65mCDDprMEdBzV-257" style="edgeStyle=orthogonalEdgeStyle;rounded=0;orthogonalLoop=1;jettySize=auto;html=1;entryX=0.5;entryY=0;entryDx=0;entryDy=0;strokeWidth=2;exitX=0.5;exitY=0;exitDx=0;exitDy=0;" edge="1" parent="1" source="Ww1nCT65mCDDprMEdBzV-244" target="Ww1nCT65mCDDprMEdBzV-219">
          <mxGeometry relative="1" as="geometry">
            <mxPoint x="1155" y="7711" as="sourcePoint" />
            <Array as="points">
              <mxPoint x="1155" y="7386" />
              <mxPoint x="454" y="7386" />
            </Array>
          </mxGeometry>
        </mxCell>
        <mxCell id="Ww1nCT65mCDDprMEdBzV-258" value="&lt;font style=&quot;font-size: 24px&quot;&gt;TLB data and meta&lt;/font&gt;" style="edgeLabel;html=1;align=center;verticalAlign=middle;resizable=0;points=[];" vertex="1" connectable="0" parent="Ww1nCT65mCDDprMEdBzV-257">
          <mxGeometry x="-0.1553" y="4" relative="1" as="geometry">
            <mxPoint x="-33" y="-20" as="offset" />
          </mxGeometry>
        </mxCell>
        <mxCell id="Ww1nCT65mCDDprMEdBzV-244" value="&lt;font style=&quot;font-size: 24px&quot;&gt;MD&lt;/font&gt;" style="ellipse;whiteSpace=wrap;html=1;strokeColor=#000000;strokeWidth=2;" vertex="1" parent="1">
          <mxGeometry x="1094.5" y="7742" width="120" height="80" as="geometry" />
        </mxCell>
        <mxCell id="Ww1nCT65mCDDprMEdBzV-245" value="&lt;font style=&quot;font-size: 18px&quot;&gt;write back A/D？&lt;/font&gt;" style="edgeLabel;html=1;align=center;verticalAlign=middle;resizable=0;points=[];" vertex="1" connectable="0" parent="1">
          <mxGeometry x="763.5" y="7573" as="geometry" />
        </mxCell>
        <mxCell id="Ww1nCT65mCDDprMEdBzV-246" value="&lt;font style=&quot;font-size: 24px&quot;&gt;ready&lt;/font&gt;" style="text;html=1;strokeColor=none;fillColor=none;align=center;verticalAlign=middle;whiteSpace=wrap;rounded=0;" vertex="1" parent="1">
          <mxGeometry x="386" y="8204" width="40" height="20" as="geometry" />
        </mxCell>
        <mxCell id="Ww1nCT65mCDDprMEdBzV-247" value="&lt;font style=&quot;font-size: 24px&quot;&gt;state(next)&lt;/font&gt;" style="text;html=1;strokeColor=none;fillColor=none;align=center;verticalAlign=middle;whiteSpace=wrap;rounded=0;" vertex="1" parent="1">
          <mxGeometry x="333" y="8005" width="152" height="20" as="geometry" />
        </mxCell>
        <mxCell id="Ww1nCT65mCDDprMEdBzV-248" value="&lt;font style=&quot;font-size: 24px&quot;&gt;state(now)&lt;/font&gt;" style="text;html=1;strokeColor=none;fillColor=none;align=center;verticalAlign=middle;whiteSpace=wrap;rounded=0;" vertex="1" parent="1">
          <mxGeometry x="1319" y="8213" width="175" height="20" as="geometry" />
        </mxCell>
        <mxCell id="Ww1nCT65mCDDprMEdBzV-249" value="" style="endArrow=none;html=1;strokeColor=#6c8ebf;strokeWidth=2;exitX=0.901;exitY=0.8;exitDx=0;exitDy=0;exitPerimeter=0;fillColor=#dae8fc;" edge="1" parent="1" source="Ww1nCT65mCDDprMEdBzV-247">
          <mxGeometry width="50" height="50" relative="1" as="geometry">
            <mxPoint x="600" y="8038" as="sourcePoint" />
            <mxPoint x="757" y="8021" as="targetPoint" />
          </mxGeometry>
        </mxCell>
        <mxCell id="Ww1nCT65mCDDprMEdBzV-250" value="" style="edgeStyle=segmentEdgeStyle;endArrow=classic;html=1;strokeColor=#6c8ebf;strokeWidth=2;fillColor=#dae8fc;" edge="1" parent="1">
          <mxGeometry width="50" height="50" relative="1" as="geometry">
            <mxPoint x="893" y="8201" as="sourcePoint" />
            <mxPoint x="1084.9999999999995" y="8039" as="targetPoint" />
            <Array as="points">
              <mxPoint x="893" y="8201" />
              <mxPoint x="893" y="8039" />
            </Array>
          </mxGeometry>
        </mxCell>
        <mxCell id="Ww1nCT65mCDDprMEdBzV-251" value="" style="endArrow=classic;html=1;strokeColor=#6c8ebf;strokeWidth=2;entryX=-0.046;entryY=0.861;entryDx=0;entryDy=0;entryPerimeter=0;fillColor=#dae8fc;" edge="1" parent="1">
          <mxGeometry width="50" height="50" relative="1" as="geometry">
            <mxPoint x="749.9999999999995" y="8203" as="sourcePoint" />
            <mxPoint x="1086.0100000000002" y="8202.984" as="targetPoint" />
          </mxGeometry>
        </mxCell>
        <mxCell id="Ww1nCT65mCDDprMEdBzV-252" value="" style="edgeStyle=segmentEdgeStyle;endArrow=classic;html=1;strokeColor=#6c8ebf;strokeWidth=2;fillColor=#dae8fc;" edge="1" parent="1">
          <mxGeometry width="50" height="50" relative="1" as="geometry">
            <mxPoint x="894" y="8203" as="sourcePoint" />
            <mxPoint x="1089" y="8378" as="targetPoint" />
            <Array as="points">
              <mxPoint x="894" y="8203" />
              <mxPoint x="894" y="8378" />
            </Array>
          </mxGeometry>
        </mxCell>
        <mxCell id="Ww1nCT65mCDDprMEdBzV-253" value="" style="endArrow=none;html=1;strokeColor=#6c8ebf;strokeWidth=2;fillColor=#dae8fc;" edge="1" parent="1">
          <mxGeometry width="50" height="50" relative="1" as="geometry">
            <mxPoint x="754" y="8207" as="sourcePoint" />
            <mxPoint x="754" y="8021" as="targetPoint" />
          </mxGeometry>
        </mxCell>
        <mxCell id="Ww1nCT65mCDDprMEdBzV-254" value="" style="endArrow=none;html=1;strokeWidth=2;entryX=0;entryY=1;entryDx=0;entryDy=0;dashed=1;strokeColor=#3333FF;" edge="1" parent="1" target="Ww1nCT65mCDDprMEdBzV-181">
          <mxGeometry width="50" height="50" relative="1" as="geometry">
            <mxPoint x="357" y="8001" as="sourcePoint" />
            <mxPoint x="799" y="7825" as="targetPoint" />
          </mxGeometry>
        </mxCell>
        <mxCell id="Ww1nCT65mCDDprMEdBzV-255" value="" style="endArrow=none;html=1;dashed=1;strokeWidth=2;entryX=1;entryY=1;entryDx=0;entryDy=0;strokeColor=#3333FF;" edge="1" parent="1" target="Ww1nCT65mCDDprMEdBzV-181">
          <mxGeometry width="50" height="50" relative="1" as="geometry">
            <mxPoint x="1504" y="8227" as="sourcePoint" />
            <mxPoint x="1387" y="7892" as="targetPoint" />
          </mxGeometry>
        </mxCell>
      </root>
    </mxGraphModel>
  </diagram>
</mxfile>
